<?xml version="1.0" encoding="UTF-8"?>
<svg width="10px" height="147px" viewBox="0 0 10 147" version="1.1" xmlns="http://www.w3.org/2000/svg" xmlns:xlink="http://www.w3.org/1999/xlink">
    <title>形状结合</title>
    <g id="页面-1" stroke="none" stroke-width="1" fill="none" fill-rule="evenodd">
        <g id="首页" transform="translate(-24.000000, -841.000000)" fill="#767676" fill-rule="nonzero">
            <path d="M-39.5,910 C-37.025,910 -35,912.025 -35,914.5 C-35,916.975 -37.025,919 -39.5,919 C-41.975,919 -44,916.975 -44,914.5 C-44,912.025 -41.975,910 -39.5,910 Z M-39.5,911 C-41.425,911 -43,912.575 -43,914.5 C-43,916.425 -41.425,918 -39.5,918 C-37.575,918 -36,916.425 -36,914.5 C-36,912.575 -37.575,911 -39.5,911 Z M-39.2093023,912.049505 C-38.744186,912.148515 -38.3255814,912.39604 -38,912.742574 L-38.6511628,913.435644 C-38.8372093,913.237624 -39.1162791,913.089109 -39.3488372,913.039604 C-39.6744186,912.940594 -39.9534884,912.990099 -40.1860465,913.089109 C-40.4186046,913.188119 -40.6511628,913.386139 -40.7906977,913.633663 C-40.9767442,913.881188 -41.0697674,914.178218 -41.0697674,914.475248 C-41.0697674,914.772277 -40.9767442,915.069307 -40.8372093,915.316832 C-40.6976744,915.564356 -40.4651163,915.762376 -40.2325581,915.861386 C-40,915.960396 -39.6744186,916.009901 -39.4418605,915.960396 C-39.1627907,915.910891 -38.9302326,915.762376 -38.7441861,915.564356 L-38.0930233,916.257426 C-38.4186047,916.60396 -38.8372093,916.851485 -39.3023256,916.950495 C-39.7674419,917.049505 -40.2325581,917 -40.6511628,916.80198 C-41.0697674,916.60396 -41.4418605,916.306931 -41.6744186,915.910891 C-41.8604651,915.465347 -42,914.970297 -42,914.475248 C-42,913.980198 -41.8604651,913.485149 -41.627907,913.089109 C-41.3953488,912.693069 -41.0232558,912.346535 -40.6046512,912.19802 C-40.1395349,912 -39.6744186,911.950495 -39.2093023,912.049505 Z M-32.348,916.878 L-29.224,913.776 C-29.114,913.673333 -29.0076667,913.5615 -28.905,913.4405 C-28.8023333,913.3195 -28.7106667,913.193 -28.63,913.061 C-28.5493333,912.929 -28.4851667,912.789667 -28.4375,912.643 C-28.3898333,912.496333 -28.366,912.342333 -28.366,912.181 C-28.366,911.990333 -28.4008333,911.818 -28.4705,911.664 C-28.5401667,911.51 -28.6355,911.379833 -28.7565,911.2735 C-28.8775,911.167167 -29.0205,911.084667 -29.1855,911.026 C-29.3505,910.967333 -29.5246667,910.938 -29.708,910.938 C-30.0893333,910.938 -30.4046667,911.044333 -30.654,911.257 C-30.9033333,911.469667 -31.061,911.763 -31.127,912.137 L-32.271,912.038 C-32.2196667,911.693333 -32.1188333,911.3945 -31.9685,911.1415 C-31.8181667,910.8885 -31.6311667,910.677667 -31.4075,910.509 C-31.1838333,910.340333 -30.9271667,910.215667 -30.6375,910.135 C-30.3478333,910.054333 -30.0343333,910.014 -29.697,910.014 C-29.3596667,910.014 -29.0425,910.059833 -28.7455,910.1515 C-28.4485,910.243167 -28.1881667,910.378833 -27.9645,910.5585 C-27.7408333,910.738167 -27.5648333,910.961833 -27.4365,911.2295 C-27.3081667,911.497167 -27.244,911.810667 -27.244,912.17 C-27.244,912.426667 -27.2825,912.666833 -27.3595,912.8905 C-27.4365,913.114167 -27.5373333,913.325 -27.662,913.523 C-27.7866667,913.721 -27.9296667,913.908 -28.091,914.084 C-28.2523333,914.26 -28.421,914.432333 -28.597,914.601 L-31.16,917.076 L-27.244,917.076 L-27.244,918 L-32.348,918 L-32.348,916.878 Z M-26.364,914.106 C-26.364,913.82 -26.3493333,913.523 -26.32,913.215 C-26.2906667,912.907 -26.2375,912.6045 -26.1605,912.3075 C-26.0835,912.0105 -25.9808333,911.726333 -25.8525,911.455 C-25.7241667,911.183667 -25.5591667,910.947167 -25.3575,910.7455 C-25.1558333,910.543833 -24.9175,910.3825 -24.6425,910.2615 C-24.3675,910.1405 -24.0466667,910.08 -23.68,910.08 C-23.3133333,910.08 -22.9925,910.1405 -22.7175,910.2615 C-22.4425,910.3825 -22.2041667,910.543833 -22.0025,910.7455 C-21.8008333,910.947167 -21.6358333,911.183667 -21.5075,911.455 C-21.3791667,911.726333 -21.2765,912.0105 -21.1995,912.3075 C-21.1225,912.6045 -21.0693333,912.907 -21.04,913.215 C-21.0106667,913.523 -20.996,913.82 -20.996,914.106 C-20.996,914.516667 -21.0326667,914.956667 -21.106,915.426 C-21.1793333,915.895333 -21.315,916.331667 -21.513,916.735 C-21.711,917.138333 -21.9841667,917.472 -22.3325,917.736 C-22.6808333,918 -23.13,918.132 -23.68,918.132 C-24.23,918.132 -24.6791667,918 -25.0275,917.736 C-25.3758333,917.472 -25.649,917.138333 -25.847,916.735 C-26.045,916.331667 -26.1806667,915.895333 -26.254,915.426 C-26.3273333,914.956667 -26.364,914.516667 -26.364,914.106 Z M-25.308,914.106 C-25.308,914.362667 -25.2915,914.667 -25.2585,915.019 C-25.2255,915.371 -25.154,915.710167 -25.044,916.0365 C-24.934,916.362833 -24.7708333,916.639667 -24.5545,916.867 C-24.3381667,917.094333 -24.0466667,917.208 -23.68,917.208 C-23.3133333,917.208 -23.0218333,917.094333 -22.8055,916.867 C-22.5891667,916.639667 -22.426,916.362833 -22.316,916.0365 C-22.206,915.710167 -22.1345,915.371 -22.1015,915.019 C-22.0685,914.667 -22.052,914.362667 -22.052,914.106 C-22.052,913.93 -22.0575,913.730167 -22.0685,913.5065 C-22.0795,913.282833 -22.1051667,913.0555 -22.1455,912.8245 C-22.1858333,912.5935 -22.2426667,912.369833 -22.316,912.1535 C-22.3893333,911.937167 -22.4865,911.742833 -22.6075,911.5705 C-22.7285,911.398167 -22.877,911.260667 -23.053,911.158 C-23.229,911.055333 -23.438,911.004 -23.68,911.004 C-23.922,911.004 -24.131,911.055333 -24.307,911.158 C-24.483,911.260667 -24.6315,911.398167 -24.7525,911.5705 C-24.8735,911.742833 -24.9706667,911.937167 -25.044,912.1535 C-25.1173333,912.369833 -25.1741667,912.5935 -25.2145,912.8245 C-25.2548333,913.0555 -25.2805,913.282833 -25.2915,913.5065 C-25.3025,913.730167 -25.308,913.93 -25.308,914.106 Z M-20.116,916.878 L-16.992,913.776 C-16.882,913.673333 -16.7756667,913.5615 -16.673,913.4405 C-16.5703333,913.3195 -16.4786667,913.193 -16.398,913.061 C-16.3173333,912.929 -16.2531667,912.789667 -16.2055,912.643 C-16.1578333,912.496333 -16.134,912.342333 -16.134,912.181 C-16.134,911.990333 -16.1688333,911.818 -16.2385,911.664 C-16.3081667,911.51 -16.4035,911.379833 -16.5245,911.2735 C-16.6455,911.167167 -16.7885,911.084667 -16.9535,911.026 C-17.1185,910.967333 -17.2926667,910.938 -17.476,910.938 C-17.8573333,910.938 -18.1726667,911.044333 -18.422,911.257 C-18.6713333,911.469667 -18.829,911.763 -18.895,912.137 L-20.039,912.038 C-19.9876667,911.693333 -19.8868333,911.3945 -19.7365,911.1415 C-19.5861667,910.8885 -19.3991667,910.677667 -19.1755,910.509 C-18.9518333,910.340333 -18.6951667,910.215667 -18.4055,910.135 C-18.1158333,910.054333 -17.8023333,910.014 -17.465,910.014 C-17.1276667,910.014 -16.8105,910.059833 -16.5135,910.1515 C-16.2165,910.243167 -15.9561667,910.378833 -15.7325,910.5585 C-15.5088333,910.738167 -15.3328333,910.961833 -15.2045,911.2295 C-15.0761667,911.497167 -15.012,911.810667 -15.012,912.17 C-15.012,912.426667 -15.0505,912.666833 -15.1275,912.8905 C-15.2045,913.114167 -15.3053333,913.325 -15.43,913.523 C-15.5546667,913.721 -15.6976667,913.908 -15.859,914.084 C-16.0203333,914.26 -16.189,914.432333 -16.365,914.601 L-18.928,917.076 L-15.012,917.076 L-15.012,918 L-20.116,918 L-20.116,916.878 Z M-12.889,916.097 C-12.7643333,916.471 -12.5975,916.749667 -12.3885,916.933 C-12.1795,917.116333 -11.8696667,917.208 -11.459,917.208 C-11.2536667,917.208 -11.0611667,917.173167 -10.8815,917.1035 C-10.7018333,917.033833 -10.5423333,916.9385 -10.403,916.8175 C-10.2636667,916.6965 -10.1536667,916.549833 -10.073,916.3775 C-9.99233333,916.205167 -9.952,916.012667 -9.952,915.8 C-9.952,915.477333 -10.0198333,915.218833 -10.1555,915.0245 C-10.2911667,914.830167 -10.4653333,914.6835 -10.678,914.5845 C-10.8906667,914.4855 -11.1253333,914.421333 -11.382,914.392 C-11.6386667,914.362667 -11.8916667,914.348 -12.141,914.348 L-12.141,913.424 C-11.7376667,913.424 -11.4076667,913.3965 -11.151,913.3415 C-10.8943333,913.2865 -10.6926667,913.207667 -10.546,913.105 C-10.3993333,913.002333 -10.2966667,912.874 -10.238,912.72 C-10.1793333,912.566 -10.15,912.393667 -10.15,912.203 C-10.15,911.785 -10.2746667,911.469667 -10.524,911.257 C-10.7733333,911.044333 -11.085,910.938 -11.459,910.938 C-11.745,910.938 -12.0035,911.0205 -12.2345,911.1855 C-12.4655,911.3505 -12.6396667,911.568667 -12.757,911.84 L-13.835,911.477 C-13.6296667,910.978333 -13.3161667,910.609833 -12.8945,910.3715 C-12.4728333,910.133167 -12.0016667,910.014 -11.481,910.014 C-11.1656667,910.014 -10.8631667,910.056167 -10.5735,910.1405 C-10.2838333,910.224833 -10.029,910.355 -9.809,910.531 C-9.589,910.707 -9.41483333,910.928833 -9.2865,911.1965 C-9.15816667,911.464167 -9.094,911.777667 -9.094,912.137 C-9.094,912.547667 -9.21683333,912.914333 -9.4625,913.237 C-9.70816667,913.559667 -10.029,913.779667 -10.425,913.897 L-10.425,913.919 C-10.183,913.963 -9.96666667,914.043667 -9.776,914.161 C-9.58533333,914.278333 -9.424,914.425 -9.292,914.601 C-9.16,914.777 -9.061,914.973167 -8.995,915.1895 C-8.929,915.405833 -8.896,915.635 -8.896,915.877 C-8.896,916.251 -8.9675,916.579167 -9.1105,916.8615 C-9.2535,917.143833 -9.44416667,917.3785 -9.6825,917.5655 C-9.92083333,917.7525 -10.1958333,917.893667 -10.5075,917.989 C-10.8191667,918.084333 -11.1473333,918.132 -11.492,918.132 C-12.086,918.132 -12.6085,917.996333 -13.0595,917.725 C-13.5105,917.453667 -13.824,917.024667 -14,916.438 L-12.889,916.097 Z M-4.1,916.372 C-3.90933333,916.658 -3.6655,916.868833 -3.3685,917.0045 C-3.0715,917.140167 -2.76533333,917.208 -2.45,917.208 C-2.274,917.208 -2.09433333,917.1805 -1.911,917.1255 C-1.72766667,917.0705 -1.56083333,916.988 -1.4105,916.878 C-1.26016667,916.768 -1.13733333,916.632333 -1.042,916.471 C-0.946666667,916.309667 -0.899,916.122667 -0.899,915.91 C-0.899,915.609333 -0.994333333,915.380167 -1.185,915.2225 C-1.37566667,915.064833 -1.61216667,914.932833 -1.8945,914.8265 C-2.17683333,914.720167 -2.48483333,914.6175 -2.8185,914.5185 C-3.15216667,914.4195 -3.46016667,914.282 -3.7425,914.106 C-4.02483333,913.93 -4.26133333,913.6935 -4.452,913.3965 C-4.64266667,913.0995 -4.738,912.698 -4.738,912.192 C-4.738,911.964667 -4.6885,911.722667 -4.5895,911.466 C-4.4905,911.209333 -4.33466667,910.974667 -4.122,910.762 C-3.90933333,910.549333 -3.63616667,910.3715 -3.3025,910.2285 C-2.96883333,910.0855 -2.56733333,910.014 -2.098,910.014 C-1.67266667,910.014 -1.26566667,910.072667 -0.877,910.19 C-0.488333333,910.307333 -0.147333333,910.545667 0.146,910.905 L-0.712,911.686 C-0.844,911.480667 -1.031,911.315667 -1.273,911.191 C-1.515,911.066333 -1.79,911.004 -2.098,911.004 C-2.39133333,911.004 -2.63516667,911.0425 -2.8295,911.1195 C-3.02383333,911.1965 -3.17966667,911.2955 -3.297,911.4165 C-3.41433333,911.5375 -3.49683333,911.667667 -3.5445,911.807 C-3.59216667,911.946333 -3.616,912.074667 -3.616,912.192 C-3.616,912.522 -3.52066667,912.775 -3.33,912.951 C-3.13933333,913.127 -2.90283333,913.27 -2.6205,913.38 C-2.33816667,913.49 -2.03016667,913.589 -1.6965,913.677 C-1.36283333,913.765 -1.05483333,913.887833 -0.7725,914.0455 C-0.490166667,914.203167 -0.253666667,914.415833 -0.063,914.6835 C0.127666667,914.951167 0.223,915.319667 0.223,915.789 C0.223,916.163 0.1515,916.500333 0.0085,916.801 C-0.1345,917.101667 -0.327,917.354667 -0.569,917.56 C-0.811,917.765333 -1.097,917.923 -1.427,918.033 C-1.757,918.143 -2.109,918.198 -2.483,918.198 C-2.98166667,918.198 -3.45466667,918.11 -3.902,917.934 C-4.34933333,917.758 -4.705,917.486667 -4.969,917.12 L-4.1,916.372 Z M1.785,910.212 L2.841,910.212 L2.841,913.446 L6.878,913.446 L6.878,910.212 L7.934,910.212 L7.934,918 L6.878,918 L6.878,914.436 L2.841,914.436 L2.841,918 L1.785,918 L1.785,910.212 Z M9.936,910.212 L14.963,910.212 L14.963,911.202 L10.992,911.202 L10.992,913.523 L14.688,913.523 L14.688,914.513 L10.992,914.513 L10.992,917.01 L15.161,917.01 L15.161,918 L9.936,918 L9.936,910.212 Z M16.657,910.212 L18.043,910.212 L22.333,916.614 L22.355,916.614 L22.355,910.212 L23.411,910.212 L23.411,918 L22.069,918 L17.735,911.598 L17.713,911.598 L17.713,918 L16.657,918 L16.657,910.212 Z M33.454,918 L28.966,918 C28.416,918 27.8953333,917.901 27.404,917.703 C26.9126667,917.505 26.4836667,917.23 26.117,916.878 C25.7503333,916.526 25.4606667,916.106167 25.248,915.6185 C25.0353333,915.130833 24.929,914.597333 24.929,914.018 C24.929,913.446 25.0316667,912.916167 25.237,912.4285 C25.4423333,911.940833 25.7265,911.517333 26.0895,911.158 C26.4525,910.798667 26.8778333,910.518167 27.3655,910.3165 C27.8531667,910.114833 28.383,910.014 28.955,910.014 C29.505,910.014 30.0201667,910.113 30.5005,910.311 C30.9808333,910.509 31.4006667,910.782167 31.76,911.1305 C32.1193333,911.478833 32.4035,911.8895 32.6125,912.3625 C32.8215,912.8355 32.926,913.350667 32.926,913.908 C32.926,914.238 32.8875,914.5625 32.8105,914.8815 C32.7335,915.2005 32.6198333,915.499333 32.4695,915.778 C32.3191667,916.056667 32.1321667,916.306 31.9085,916.526 C31.6848333,916.746 31.43,916.922 31.144,917.054 L31.144,917.076 L33.454,917.076 L33.454,918 Z M28.922,917.01 C29.3473333,917.01 29.7378333,916.931167 30.0935,916.7735 C30.4491667,916.615833 30.7535,916.3995 31.0065,916.1245 C31.2595,915.8495 31.4556667,915.525 31.595,915.151 C31.7343333,914.777 31.804,914.377333 31.804,913.952 C31.804,913.541333 31.7325,913.156333 31.5895,912.797 C31.4465,912.437667 31.2466667,912.126 30.99,911.862 C30.7333333,911.598 30.429,911.389 30.077,911.235 C29.725,911.081 29.34,911.004 28.922,911.004 C28.5113333,911.004 28.1318333,911.081 27.7835,911.235 C27.4351667,911.389 27.1326667,911.598 26.876,911.862 C26.6193333,912.126 26.4176667,912.435833 26.271,912.7915 C26.1243333,913.147167 26.051,913.526667 26.051,913.93 C26.051,914.355333 26.1206667,914.755 26.26,915.129 C26.3993333,915.503 26.5955,915.829333 26.8485,916.108 C27.1015,916.386667 27.404,916.606667 27.756,916.768 C28.108,916.929333 28.4966667,917.01 28.922,917.01 Z M34.565,910.212 L35.621,910.212 L35.621,918 L34.565,918 L34.565,910.212 Z M37.623,910.212 L42.518,910.212 L42.518,911.202 L38.679,911.202 L38.679,913.644 L42.254,913.644 L42.254,914.634 L38.679,914.634 L38.679,918 L37.623,918 L37.623,910.212 Z M46.379,910.212 L47.336,910.212 L50.669,918 L49.437,918 L48.656,916.075 L44.949,916.075 L44.179,918 L42.947,918 L46.379,910.212 Z M48.271,915.151 L46.819,911.576 L46.797,911.576 L45.323,915.151 L48.271,915.151 Z M51.681,910.212 L53.067,910.212 L57.357,916.614 L57.379,916.614 L57.379,910.212 L58.435,910.212 L58.435,918 L57.093,918 L52.759,911.598 L52.737,911.598 L52.737,918 L51.681,918 L51.681,910.212 Z M63.319,910.212 L66.036,910.212 C66.586,910.212 67.0681667,910.274333 67.4825,910.399 C67.8968333,910.523667 68.2561667,910.6905 68.5605,910.8995 C68.8648333,911.1085 69.1178333,911.348667 69.3195,911.62 C69.5211667,911.891333 69.6806667,912.17 69.798,912.456 C69.9153333,912.742 69.9996667,913.028 70.051,913.314 C70.1023333,913.6 70.128,913.864 70.128,914.106 C70.128,914.604667 70.0363333,915.086833 69.853,915.5525 C69.6696667,916.018167 69.3983333,916.4325 69.039,916.7955 C68.6796667,917.1585 68.2341667,917.45 67.7025,917.67 C67.1708333,917.89 66.5566667,918 65.86,918 L63.319,918 L63.319,910.212 Z M64.375,917.01 L65.706,917.01 C66.1533333,917.01 66.5768333,916.9495 66.9765,916.8285 C67.3761667,916.7075 67.7263333,916.526 68.027,916.284 C68.3276667,916.042 68.566,915.7395 68.742,915.3765 C68.918,915.0135 69.006,914.59 69.006,914.106 C69.006,913.856667 68.9656667,913.565167 68.885,913.2315 C68.8043333,912.897833 68.6521667,912.580667 68.4285,912.28 C68.2048333,911.979333 67.895,911.7245 67.499,911.5155 C67.103,911.3065 66.5896667,911.202 65.959,911.202 L64.375,911.202 L64.375,917.01 Z M71.646,910.212 L76.673,910.212 L76.673,911.202 L72.702,911.202 L72.702,913.523 L76.398,913.523 L76.398,914.513 L72.702,914.513 L72.702,917.01 L76.871,917.01 L76.871,918 L71.646,918 L71.646,910.212 Z M78.598,916.372 C78.7886667,916.658 79.0325,916.868833 79.3295,917.0045 C79.6265,917.140167 79.9326667,917.208 80.248,917.208 C80.424,917.208 80.6036667,917.1805 80.787,917.1255 C80.9703333,917.0705 81.1371667,916.988 81.2875,916.878 C81.4378333,916.768 81.5606667,916.632333 81.656,916.471 C81.7513333,916.309667 81.799,916.122667 81.799,915.91 C81.799,915.609333 81.7036667,915.380167 81.513,915.2225 C81.3223333,915.064833 81.0858333,914.932833 80.8035,914.8265 C80.5211667,914.720167 80.2131667,914.6175 79.8795,914.5185 C79.5458333,914.4195 79.2378333,914.282 78.9555,914.106 C78.6731667,913.93 78.4366667,913.6935 78.246,913.3965 C78.0553333,913.0995 77.96,912.698 77.96,912.192 C77.96,911.964667 78.0095,911.722667 78.1085,911.466 C78.2075,911.209333 78.3633333,910.974667 78.576,910.762 C78.7886667,910.549333 79.0618333,910.3715 79.3955,910.2285 C79.7291667,910.0855 80.1306667,910.014 80.6,910.014 C81.0253333,910.014 81.4323333,910.072667 81.821,910.19 C82.2096667,910.307333 82.5506667,910.545667 82.844,910.905 L81.986,911.686 C81.854,911.480667 81.667,911.315667 81.425,911.191 C81.183,911.066333 80.908,911.004 80.6,911.004 C80.3066667,911.004 80.0628333,911.0425 79.8685,911.1195 C79.6741667,911.1965 79.5183333,911.2955 79.401,911.4165 C79.2836667,911.5375 79.2011667,911.667667 79.1535,911.807 C79.1058333,911.946333 79.082,912.074667 79.082,912.192 C79.082,912.522 79.1773333,912.775 79.368,912.951 C79.5586667,913.127 79.7951667,913.27 80.0775,913.38 C80.3598333,913.49 80.6678333,913.589 81.0015,913.677 C81.3351667,913.765 81.6431667,913.887833 81.9255,914.0455 C82.2078333,914.203167 82.4443333,914.415833 82.635,914.6835 C82.8256667,914.951167 82.921,915.319667 82.921,915.789 C82.921,916.163 82.8495,916.500333 82.7065,916.801 C82.5635,917.101667 82.371,917.354667 82.129,917.56 C81.887,917.765333 81.601,917.923 81.271,918.033 C80.941,918.143 80.589,918.198 80.215,918.198 C79.7163333,918.198 79.2433333,918.11 78.796,917.934 C78.3486667,917.758 77.993,917.486667 77.729,917.12 L78.598,916.372 Z M84.483,910.212 L85.539,910.212 L85.539,918 L84.483,918 L84.483,910.212 Z M94.174,913.644 L94.174,917.483 C93.9833333,917.600333 93.767,917.703 93.525,917.791 C93.283,917.879 93.0318333,917.954167 92.7715,918.0165 C92.5111667,918.078833 92.2471667,918.124667 91.9795,918.154 C91.7118333,918.183333 91.4606667,918.198 91.226,918.198 C90.566,918.198 89.9775,918.088 89.4605,917.868 C88.9435,917.648 88.5071667,917.351 88.1515,916.977 C87.7958333,916.603 87.5245,916.1685 87.3375,915.6735 C87.1505,915.1785 87.057,914.656 87.057,914.106 C87.057,913.526667 87.1578333,912.987667 87.3595,912.489 C87.5611667,911.990333 87.8398333,911.557667 88.1955,911.191 C88.5511667,910.824333 88.9783333,910.5365 89.477,910.3275 C89.9756667,910.1185 90.522,910.014 91.116,910.014 C91.8346667,910.014 92.4213333,910.103833 92.876,910.2835 C93.3306667,910.463167 93.712,910.710667 94.02,911.026 L93.272,911.829 C92.9493333,911.521 92.6083333,911.3065 92.249,911.1855 C91.8896667,911.0645 91.512,911.004 91.116,911.004 C90.6686667,911.004 90.2653333,911.0865 89.906,911.2515 C89.5466667,911.4165 89.2386667,911.638333 88.982,911.917 C88.7253333,912.195667 88.5273333,912.523833 88.388,912.9015 C88.2486667,913.279167 88.179,913.680667 88.179,914.106 C88.179,914.546 88.256,914.954833 88.41,915.3325 C88.564,915.710167 88.7766667,916.038333 89.048,916.317 C89.3193333,916.595667 89.6383333,916.813833 90.005,916.9715 C90.3716667,917.129167 90.7713333,917.208 91.204,917.208 C91.578,917.208 91.9318333,917.173167 92.2655,917.1035 C92.5991667,917.033833 92.8833333,916.933 93.118,916.801 L93.118,914.634 L91.391,914.634 L91.391,913.644 L94.174,913.644 Z M96.099,910.212 L97.485,910.212 L101.775,916.614 L101.797,916.614 L101.797,910.212 L102.853,910.212 L102.853,918 L101.511,918 L97.177,911.598 L97.155,911.598 L97.155,918 L96.099,918 L96.099,910.212 Z" id="形状结合" transform="translate(29.426500, 914.500000) rotate(-270.000000) translate(-29.426500, -914.500000) "></path>
        </g>
    </g>
</svg>