<?xml version="1.0" encoding="UTF-8"?>
<svg width="1716px" height="140px" viewBox="0 0 1716 140" version="1.1" xmlns="http://www.w3.org/2000/svg" xmlns:xlink="http://www.w3.org/1999/xlink">
    <title>形状结合</title>
    <g id="页面-1" stroke="none" stroke-width="1" fill="none" fill-rule="evenodd">
        <g id="社交" transform="translate(-101.000000, -67.000000)" fill="#86EE1E" fill-rule="nonzero">
            <path d="M101.314,69 L134.497099,69 C140.047438,69 145.39955,69.8604049 150.553437,71.5812147 C155.707323,73.3020245 160.26653,75.923258 164.231058,79.4449153 C168.195586,82.9665725 171.367208,87.3886535 173.745925,92.7111582 C176.124642,98.0336629 177.314,104.29661 177.314,111.5 C177.314,118.783427 175.946238,125.086394 173.210714,130.408898 C170.475189,135.731403 166.94676,140.133475 162.625424,143.615113 C158.304089,147.096751 153.50701,149.697976 148.234188,151.418785 C142.961366,153.139595 137.787657,154 132.713061,154 L101.314,154 L101.314,69 Z M127.479884,140.313559 C132.158027,140.313559 136.578476,139.773305 140.74123,138.692797 C144.903984,137.612288 148.531527,135.931497 151.623859,133.650424 C154.716191,131.36935 157.154376,128.407957 158.938413,124.766243 C160.722451,121.124529 161.614469,116.702448 161.614469,111.5 C161.614469,106.377589 160.821564,101.975518 159.235753,98.2937853 C157.649942,94.6120527 155.449629,91.6306497 152.634814,89.3495763 C149.819999,87.0685028 146.489796,85.3877119 142.644203,84.3072034 C138.798611,83.2266949 134.576389,82.6864407 129.977537,82.6864407 L116.299915,82.6864407 L116.299915,140.313559 L127.479884,140.313559 Z M191.314,69 L247.170263,69 L247.170263,82.6864407 L206.32016,82.6864407 L206.32016,103.576271 L245.026526,103.576271 L245.026526,117.262712 L206.32016,117.262712 L206.32016,140.313559 L249.314,140.313559 L249.314,154 L191.314,154 L191.314,69 Z M304.778358,87.3360215 C303.176186,85.0232975 301.03328,83.328629 298.349642,82.2520161 C295.666003,81.1754032 292.842174,80.6370968 289.878155,80.6370968 C288.115765,80.6370968 286.413457,80.8364695 284.77123,81.2352151 C283.129003,81.6339606 281.646994,82.2719534 280.325202,83.1491935 C279.003409,84.0264337 277.94197,85.1628584 277.140884,86.5584677 C276.339798,87.9540771 275.939255,89.608871 275.939255,91.5228495 C275.939255,94.3938172 276.940612,96.5869176 278.943328,98.1021505 C280.946043,99.6173835 283.429411,100.933244 286.39343,102.049731 C289.357449,103.166219 292.601848,104.242832 296.126627,105.27957 C299.651407,106.316308 302.895806,107.751792 305.859825,109.586022 C308.823844,111.420251 311.307211,113.852599 313.309927,116.883065 C315.312642,119.91353 316.314,123.94086 316.314,128.965054 C316.314,133.510753 315.472859,137.478271 313.790578,140.867608 C312.108297,144.256944 309.845229,147.0681 307.001373,149.301075 C304.157517,151.53405 300.853036,153.208781 297.087931,154.325269 C293.322826,155.441756 289.357449,156 285.1918,156 C279.904631,156 274.817734,155.12276 269.931108,153.36828 C265.044482,151.613799 260.838779,148.663082 257.314,144.516129 L268.729479,133.510753 C270.571977,136.301971 272.995263,138.475134 275.999336,140.030242 C279.003409,141.585349 282.187727,142.362903 285.552289,142.362903 C287.314679,142.362903 289.077069,142.123656 290.839458,141.645161 C292.601848,141.166667 294.20402,140.448925 295.645976,139.491935 C297.087931,138.534946 298.249506,137.318772 299.130701,135.843414 C300.011895,134.368056 300.452493,132.673387 300.452493,130.759409 C300.452493,127.649194 299.451135,125.25672 297.44842,123.581989 C295.445704,121.907258 292.962337,120.491711 289.998318,119.335349 C287.034299,118.178987 283.7899,117.082437 280.26512,116.045699 C276.740341,115.008961 273.495942,113.593414 270.531923,111.799059 C267.567904,110.004704 265.084536,107.612231 263.081821,104.62164 C261.079105,101.631048 260.077747,97.6236559 260.077747,92.5994624 C260.077747,88.2132616 260.978969,84.4251792 262.781413,81.2352151 C264.583857,78.0452509 266.947062,75.3935932 269.871026,73.2802419 C272.794991,71.1668907 276.139526,69.5918459 279.904631,68.5551075 C283.669737,67.5183692 287.51495,67 291.440273,67 C295.926356,67 300.272248,67.6778674 304.477951,69.0336022 C308.683654,70.3893369 312.468786,72.6223118 315.833348,75.7325269 L304.778358,87.3360215 Z M332.314,69 L347.314,69 L347.314,154 L332.314,154 L332.314,69 Z M440.314,147.626344 C429.839237,153.208781 418.125094,156 405.171571,156 C398.61485,156 392.597858,154.943324 387.120597,152.829973 C381.643335,150.716622 376.925694,147.72603 372.967673,143.858199 C369.009652,139.990367 365.911201,135.344982 363.672321,129.922043 C361.43344,124.499104 360.314,118.478047 360.314,111.858871 C360.314,105.080197 361.43344,98.9195789 363.672321,93.3770161 C365.911201,87.8344534 369.009652,83.109319 372.967673,79.2016129 C376.925694,75.2939068 381.643335,72.2833781 387.120597,70.1700269 C392.597858,68.0566756 398.61485,67 405.171571,67 C411.648333,67 417.725294,67.7775538 423.402456,69.3326613 C429.079617,70.8877688 434.157078,73.6590502 438.63484,77.6465054 L427.480417,88.891129 C424.761776,86.2594086 421.463425,84.2258065 417.585364,82.7903226 C413.707303,81.3548387 409.609352,80.6370968 405.291511,80.6370968 C400.89371,80.6370968 396.915699,81.4146505 393.357478,82.9697581 C389.799257,84.5248656 386.740787,86.6780914 384.182066,89.4294355 C381.623345,92.1807796 379.644335,95.390681 378.245034,99.0591398 C376.845734,102.727599 376.146084,106.675179 376.146084,110.901882 C376.146084,115.447581 376.845734,119.634409 378.245034,123.462366 C379.644335,127.290323 381.623345,130.59991 384.182066,133.391129 C386.740787,136.182348 389.799257,138.375448 393.357478,139.97043 C396.915699,141.565412 400.89371,142.362903 405.291511,142.362903 C409.129592,142.362903 412.747783,142.004032 416.146084,141.28629 C419.544385,140.568548 422.562876,139.452061 425.201556,137.936828 L425.201556,117.959677 L407.810252,117.959677 L407.810252,104.322581 L440.314,104.322581 L440.314,147.626344 Z M457.314,69 L477.207417,69 L518.066351,132.149718 L518.304596,132.149718 L518.304596,69 L533.314,69 L533.314,154 L514.254439,154 L472.561649,88.809322 L472.323404,88.809322 L472.323404,154 L457.314,154 L457.314,69 Z M588.314,69 L616.931234,69 C621.019411,69 624.967307,69.4001883 628.774922,70.200565 C632.582537,71.0009416 635.92923,72.3415725 638.815002,74.2224576 C641.700774,76.1033427 644.005383,78.6245292 645.72883,81.7860169 C647.452277,84.9475047 648.314,88.8893597 648.314,93.6115819 C648.314,98.9741055 647.392156,103.296139 645.548469,106.577684 C643.704782,109.859228 641.219812,112.400424 638.093559,114.201271 C634.967307,116.002119 631.340052,117.222693 627.211796,117.862994 C623.083539,118.503296 618.774922,118.823446 614.285944,118.823446 L603.464301,118.823446 L603.464301,154 L588.314,154 L588.314,69 Z M612.602577,105.857345 C614.766906,105.857345 617.011395,105.777307 619.336044,105.617232 C621.660693,105.457156 623.804982,104.97693 625.76891,104.176554 C627.732838,103.376177 629.336044,102.175612 630.578529,100.574859 C631.821014,98.9741055 632.442257,96.7330508 632.442257,93.8516949 C632.442257,91.210452 631.881134,89.1094633 630.75889,87.5487288 C629.636645,85.9879944 628.19376,84.7874294 626.430232,83.9470339 C624.666705,83.1066384 622.702778,82.5663842 620.538449,82.3262712 C618.37412,82.0861582 616.289952,81.9661017 614.285944,81.9661017 L603.464301,81.9661017 L603.464301,105.857345 L612.602577,105.857345 Z M661.314,69 L690.797146,69 C694.872052,69 698.807134,69.3801789 702.60239,70.1405367 C706.397645,70.9008945 709.773426,72.2015066 712.72973,74.0423729 C715.686035,75.8832392 718.043089,78.3644068 719.800891,81.4858757 C721.558694,84.6073446 722.437596,88.569209 722.437596,93.3714689 C722.437596,99.5343691 720.739718,104.696798 717.343963,108.858757 C713.948207,113.020716 709.094275,115.541902 702.782165,116.422316 L725.314,154 L707.096772,154 L687.441341,117.983051 L676.415124,117.983051 L676.415124,154 L661.314,154 L661.314,69 Z M688.160442,105.016949 C690.317745,105.016949 692.475049,104.916902 694.632352,104.716808 C696.789655,104.516714 698.767184,104.036488 700.564936,103.27613 C702.362689,102.515772 703.820866,101.355226 704.939468,99.7944915 C706.05807,98.2337571 706.617371,96.0527307 706.617371,93.2514124 C706.617371,90.7702448 706.09802,88.7693032 705.059318,87.2485876 C704.020617,85.7278719 702.662315,84.5873352 700.984412,83.8269774 C699.306509,83.0666196 697.448831,82.5663842 695.411378,82.3262712 C693.373925,82.0861582 691.396397,81.9661017 689.478794,81.9661017 L676.415124,81.9661017 L676.415124,105.016949 L688.160442,105.016949 Z M731.314,111.86111 C731.314,105.08278 732.432509,98.9224738 734.669526,93.3801922 C736.906543,87.8379106 740.002415,83.1130158 743.957142,79.2055079 C747.91187,75.298 752.625585,72.287624 758.098288,70.17438 C763.570991,68.0611359 769.582975,67.0045139 776.13424,67.0045139 C782.765398,66.9247688 788.837302,67.9016458 794.349952,69.9351448 C799.862602,71.9686438 804.616264,74.9391473 808.610937,78.8466552 C812.605611,82.7541631 815.721457,87.4591216 817.958474,92.9615307 C820.195491,98.4639397 821.314,104.604309 821.314,111.382639 C821.314,118.001479 820.195491,124.022231 817.958474,129.444895 C815.721457,134.867559 812.605611,139.532645 808.610937,143.440153 C804.616264,147.347661 799.862602,150.39791 794.349952,152.590899 C788.837302,154.783888 782.765398,155.920255 776.13424,156 C769.582975,156 763.570991,154.943378 758.098288,152.830134 C752.625585,150.71689 747.91187,147.72645 743.957142,143.858815 C740.002415,139.991179 736.906543,135.34603 734.669526,129.923366 C732.432509,124.500702 731.314,118.47995 731.314,111.86111 Z M747.132908,110.904169 C747.132908,115.449637 747.831976,119.636253 749.230112,123.464016 C750.628248,127.291779 752.605611,130.601199 755.162202,133.392276 C757.718794,136.183353 760.774719,138.376342 764.329979,139.971243 C767.885238,141.566144 771.859939,142.363595 776.25408,142.363595 C780.648221,142.363595 784.642895,141.566144 788.238101,139.971243 C791.833308,138.376342 794.909206,136.183353 797.465798,133.392276 C800.022389,130.601199 801.999752,127.291779 803.397888,123.464016 C804.796024,119.636253 805.495092,115.449637 805.495092,110.904169 C805.495092,106.677681 804.796024,102.7303 803.397888,99.0620277 C801.999752,95.393755 800.022389,92.1840163 797.465798,89.4328118 C794.909206,86.6816072 791.833308,84.5284906 788.238101,82.973462 C784.642895,81.4184333 780.648221,80.640919 776.25408,80.640919 C771.859939,80.640919 767.885238,81.4184333 764.329979,82.973462 C760.774719,84.5284906 757.718794,86.6816072 755.162202,89.4328118 C752.605611,92.1840163 750.628248,95.393755 749.230112,99.0620277 C747.831976,102.7303 747.132908,106.677681 747.132908,110.904169 Z M876.314,130.355372 C876.314,133.710744 875.779558,136.946281 874.710675,140.061983 C873.641791,143.177686 872.05826,145.913912 869.960081,148.270661 C867.861902,150.62741 865.229281,152.504821 862.062219,153.902893 C858.895156,155.300964 855.213446,156 851.017088,156 C844.366257,156 838.922868,154.442149 834.686922,151.326446 C830.450975,148.210744 827.660002,143.257576 826.314,136.466942 L840.328252,133.11157 C840.803311,135.907713 841.931577,138.144628 843.71305,139.822314 C845.494523,141.5 847.691672,142.338843 850.304499,142.338843 C854.580033,142.338843 857.489772,140.880854 859.033715,137.964876 C860.577658,135.048898 861.349629,131.034435 861.349629,125.921488 L861.349629,69 L876.314,69 L876.314,130.355372 Z M895.314,69 L951.170263,69 L951.170263,82.6864407 L910.32016,82.6864407 L910.32016,103.576271 L949.026526,103.576271 L949.026526,117.262712 L910.32016,117.262712 L910.32016,140.313559 L953.314,140.313559 L953.314,154 L895.314,154 L895.314,69 Z M1024.73406,89.0107527 C1021.63688,85.6612903 1018.63897,83.4283154 1015.74033,82.311828 C1012.84169,81.1953405 1009.9232,80.6370968 1006.98485,80.6370968 C1002.61703,80.6370968 998.666142,81.4146505 995.132182,82.9697581 C991.598222,84.5248656 988.560604,86.6780914 986.019329,89.4294355 C983.478054,92.1807796 981.512537,95.390681 980.122777,99.0591398 C978.733018,102.727599 978.038138,106.675179 978.038138,110.901882 C978.038138,115.447581 978.733018,119.634409 980.122777,123.462366 C981.512537,127.290323 983.478054,130.59991 986.019329,133.391129 C988.560604,136.182348 991.598222,138.375448 995.132182,139.97043 C998.666142,141.565412 1002.61703,142.362903 1006.98485,142.362903 C1010.39968,142.362903 1013.71525,141.545475 1016.93155,139.910618 C1020.14786,138.275762 1023.14577,135.663978 1025.92529,132.075269 L1038.314,140.927419 C1034.50209,146.19086 1029.85632,150.018817 1024.3767,152.41129 C1018.89707,154.803763 1013.06008,156 1006.86572,156 C1000.35371,156 994.377741,154.943324 988.937824,152.829973 C983.497908,150.716622 978.812433,147.72603 974.881398,143.858199 C970.950364,139.990367 967.873039,135.344982 965.649423,129.922043 C963.425808,124.499104 962.314,118.478047 962.314,111.858871 C962.314,105.080197 963.425808,98.9195789 965.649423,93.3770161 C967.873039,87.8344534 970.950364,83.109319 974.881398,79.2016129 C978.812433,75.2939068 983.497908,72.2833781 988.937824,70.1700269 C994.377741,68.0566756 1000.35371,67 1006.86572,67 C1012.58359,67 1017.88453,68.0168011 1022.76855,70.0504032 C1027.65256,72.0840054 1032.19906,75.5331541 1036.40804,80.3978495 L1024.73406,89.0107527 Z M1066.2765,82.6864407 L1040.314,82.6864407 L1040.314,69 L1107.314,69 L1107.314,82.6864407 L1081.3515,82.6864407 L1081.3515,154 L1066.2765,154 L1066.2765,82.6864407 Z M1153.314,69 L1181.93123,69 C1186.01941,69 1189.96731,69.4001883 1193.77492,70.200565 C1197.58254,71.0009416 1200.92923,72.3415725 1203.815,74.2224576 C1206.70077,76.1033427 1209.00538,78.6245292 1210.72883,81.7860169 C1212.45228,84.9475047 1213.314,88.8893597 1213.314,93.6115819 C1213.314,98.9741055 1212.39216,103.296139 1210.54847,106.577684 C1208.70478,109.859228 1206.21981,112.400424 1203.09356,114.201271 C1199.96731,116.002119 1196.34005,117.222693 1192.2118,117.862994 C1188.08354,118.503296 1183.77492,118.823446 1179.28594,118.823446 L1168.4643,118.823446 L1168.4643,154 L1153.314,154 L1153.314,69 Z M1177.60258,105.857345 C1179.76691,105.857345 1182.01139,105.777307 1184.33604,105.617232 C1186.66069,105.457156 1188.80498,104.97693 1190.76891,104.176554 C1192.73284,103.376177 1194.33604,102.175612 1195.57853,100.574859 C1196.82101,98.9741055 1197.44226,96.7330508 1197.44226,93.8516949 C1197.44226,91.210452 1196.88113,89.1094633 1195.75889,87.5487288 C1194.63665,85.9879944 1193.19376,84.7874294 1191.43023,83.9470339 C1189.66671,83.1066384 1187.70278,82.5663842 1185.53845,82.3262712 C1183.37412,82.0861582 1181.28995,81.9661017 1179.28594,81.9661017 L1168.4643,81.9661017 L1168.4643,105.857345 L1177.60258,105.857345 Z M1220.314,111.86111 C1220.314,105.08278 1221.43251,98.9224738 1223.66953,93.3801922 C1225.90654,87.8379106 1229.00242,83.1130158 1232.95714,79.2055079 C1236.91187,75.298 1241.62558,72.287624 1247.09829,70.17438 C1252.57099,68.0611359 1258.58297,67.0045139 1265.13424,67.0045139 C1271.7654,66.9247688 1277.8373,67.9016458 1283.34995,69.9351448 C1288.8626,71.9686438 1293.61626,74.9391473 1297.61094,78.8466552 C1301.60561,82.7541631 1304.72146,87.4591216 1306.95847,92.9615307 C1309.19549,98.4639397 1310.314,104.604309 1310.314,111.382639 C1310.314,118.001479 1309.19549,124.022231 1306.95847,129.444895 C1304.72146,134.867559 1301.60561,139.532645 1297.61094,143.440153 C1293.61626,147.347661 1288.8626,150.39791 1283.34995,152.590899 C1277.8373,154.783888 1271.7654,155.920255 1265.13424,156 C1258.58297,156 1252.57099,154.943378 1247.09829,152.830134 C1241.62558,150.71689 1236.91187,147.72645 1232.95714,143.858815 C1229.00242,139.991179 1225.90654,135.34603 1223.66953,129.923366 C1221.43251,124.500702 1220.314,118.47995 1220.314,111.86111 Z M1236.13291,110.904169 C1236.13291,115.449637 1236.83198,119.636253 1238.23011,123.464016 C1239.62825,127.291779 1241.60561,130.601199 1244.1622,133.392276 C1246.71879,136.183353 1249.77472,138.376342 1253.32998,139.971243 C1256.88524,141.566144 1260.85994,142.363595 1265.25408,142.363595 C1269.64822,142.363595 1273.64289,141.566144 1277.2381,139.971243 C1280.83331,138.376342 1283.90921,136.183353 1286.4658,133.392276 C1289.02239,130.601199 1290.99975,127.291779 1292.39789,123.464016 C1293.79602,119.636253 1294.49509,115.449637 1294.49509,110.904169 C1294.49509,106.677681 1293.79602,102.7303 1292.39789,99.0620277 C1290.99975,95.393755 1289.02239,92.1840163 1286.4658,89.4328118 C1283.90921,86.6816072 1280.83331,84.5284906 1277.2381,82.973462 C1273.64289,81.4184333 1269.64822,80.640919 1265.25408,80.640919 C1260.85994,80.640919 1256.88524,81.4184333 1253.32998,82.973462 C1249.77472,84.5284906 1246.71879,86.6816072 1244.1622,89.4328118 C1241.60561,92.1840163 1239.62825,95.393755 1238.23011,99.0620277 C1236.83198,102.7303 1236.13291,106.677681 1236.13291,110.904169 Z M1324.314,69 L1353.79715,69 C1357.87205,69 1361.80713,69.3801789 1365.60239,70.1405367 C1369.39765,70.9008945 1372.77343,72.2015066 1375.72973,74.0423729 C1378.68603,75.8832392 1381.04309,78.3644068 1382.80089,81.4858757 C1384.55869,84.6073446 1385.4376,88.569209 1385.4376,93.3714689 C1385.4376,99.5343691 1383.73972,104.696798 1380.34396,108.858757 C1376.94821,113.020716 1372.09427,115.541902 1365.78216,116.422316 L1388.314,154 L1370.09677,154 L1350.44134,117.983051 L1339.41512,117.983051 L1339.41512,154 L1324.314,154 L1324.314,69 Z M1351.16044,105.016949 C1353.31775,105.016949 1355.47505,104.916902 1357.63235,104.716808 C1359.78966,104.516714 1361.76718,104.036488 1363.56494,103.27613 C1365.36269,102.515772 1366.82087,101.355226 1367.93947,99.7944915 C1369.05807,98.2337571 1369.61737,96.0527307 1369.61737,93.2514124 C1369.61737,90.7702448 1369.09802,88.7693032 1368.05932,87.2485876 C1367.02062,85.7278719 1365.66231,84.5873352 1363.98441,83.8269774 C1362.30651,83.0666196 1360.44883,82.5663842 1358.41138,82.3262712 C1356.37393,82.0861582 1354.3964,81.9661017 1352.47879,81.9661017 L1339.41512,81.9661017 L1339.41512,105.016949 L1351.16044,105.016949 Z M1417.2765,82.6864407 L1391.314,82.6864407 L1391.314,69 L1458.314,69 L1458.314,82.6864407 L1432.3515,82.6864407 L1432.3515,154 L1417.2765,154 L1417.2765,82.6864407 Z M1467.314,69 L1522.314,69 L1522.314,82.6864407 L1482.47811,82.6864407 L1482.47811,105.016949 L1520.02735,105.016949 L1520.02735,118.70339 L1482.47811,118.70339 L1482.47811,154 L1467.314,154 L1467.314,69 Z M1532.314,111.86111 C1532.314,105.08278 1533.43251,98.9224738 1535.66953,93.3801922 C1537.90654,87.8379106 1541.00242,83.1130158 1544.95714,79.2055079 C1548.91187,75.298 1553.62558,72.287624 1559.09829,70.17438 C1564.57099,68.0611359 1570.58297,67.0045139 1577.13424,67.0045139 C1583.7654,66.9247688 1589.8373,67.9016458 1595.34995,69.9351448 C1600.8626,71.9686438 1605.61626,74.9391473 1609.61094,78.8466552 C1613.60561,82.7541631 1616.72146,87.4591216 1618.95847,92.9615307 C1621.19549,98.4639397 1622.314,104.604309 1622.314,111.382639 C1622.314,118.001479 1621.19549,124.022231 1618.95847,129.444895 C1616.72146,134.867559 1613.60561,139.532645 1609.61094,143.440153 C1605.61626,147.347661 1600.8626,150.39791 1595.34995,152.590899 C1589.8373,154.783888 1583.7654,155.920255 1577.13424,156 C1570.58297,156 1564.57099,154.943378 1559.09829,152.830134 C1553.62558,150.71689 1548.91187,147.72645 1544.95714,143.858815 C1541.00242,139.991179 1537.90654,135.34603 1535.66953,129.923366 C1533.43251,124.500702 1532.314,118.47995 1532.314,111.86111 Z M1548.13291,110.904169 C1548.13291,115.449637 1548.83198,119.636253 1550.23011,123.464016 C1551.62825,127.291779 1553.60561,130.601199 1556.1622,133.392276 C1558.71879,136.183353 1561.77472,138.376342 1565.32998,139.971243 C1568.88524,141.566144 1572.85994,142.363595 1577.25408,142.363595 C1581.64822,142.363595 1585.64289,141.566144 1589.2381,139.971243 C1592.83331,138.376342 1595.90921,136.183353 1598.4658,133.392276 C1601.02239,130.601199 1602.99975,127.291779 1604.39789,123.464016 C1605.79602,119.636253 1606.49509,115.449637 1606.49509,110.904169 C1606.49509,106.677681 1605.79602,102.7303 1604.39789,99.0620277 C1602.99975,95.393755 1601.02239,92.1840163 1598.4658,89.4328118 C1595.90921,86.6816072 1592.83331,84.5284906 1589.2381,82.973462 C1585.64289,81.4184333 1581.64822,80.640919 1577.25408,80.640919 C1572.85994,80.640919 1568.88524,81.4184333 1565.32998,82.973462 C1561.77472,84.5284906 1558.71879,86.6816072 1556.1622,89.4328118 C1553.60561,92.1840163 1551.62825,95.393755 1550.23011,99.0620277 C1548.83198,102.7303 1548.13291,106.677681 1548.13291,110.904169 Z M1636.314,69 L1651.36318,69 L1651.36318,140.313559 L1687.314,140.313559 L1687.314,154 L1636.314,154 L1636.314,69 Z M1697.314,69 L1712.314,69 L1712.314,154 L1697.314,154 L1697.314,69 Z M1726.314,111.86111 C1726.314,105.08278 1727.43251,98.9224738 1729.66953,93.3801922 C1731.90654,87.8379106 1735.00242,83.1130158 1738.95714,79.2055079 C1742.91187,75.298 1747.62558,72.287624 1753.09829,70.17438 C1758.57099,68.0611359 1764.58297,67.0045139 1771.13424,67.0045139 C1777.7654,66.9247688 1783.8373,67.9016458 1789.34995,69.9351448 C1794.8626,71.9686438 1799.61626,74.9391473 1803.61094,78.8466552 C1807.60561,82.7541631 1810.72146,87.4591216 1812.95847,92.9615307 C1815.19549,98.4639397 1816.314,104.604309 1816.314,111.382639 C1816.314,118.001479 1815.19549,124.022231 1812.95847,129.444895 C1810.72146,134.867559 1807.60561,139.532645 1803.61094,143.440153 C1799.61626,147.347661 1794.8626,150.39791 1789.34995,152.590899 C1783.8373,154.783888 1777.7654,155.920255 1771.13424,156 C1764.58297,156 1758.57099,154.943378 1753.09829,152.830134 C1747.62558,150.71689 1742.91187,147.72645 1738.95714,143.858815 C1735.00242,139.991179 1731.90654,135.34603 1729.66953,129.923366 C1727.43251,124.500702 1726.314,118.47995 1726.314,111.86111 Z M1742.13291,110.904169 C1742.13291,115.449637 1742.83198,119.636253 1744.23011,123.464016 C1745.62825,127.291779 1747.60561,130.601199 1750.1622,133.392276 C1752.71879,136.183353 1755.77472,138.376342 1759.32998,139.971243 C1762.88524,141.566144 1766.85994,142.363595 1771.25408,142.363595 C1775.64822,142.363595 1779.64289,141.566144 1783.2381,139.971243 C1786.83331,138.376342 1789.90921,136.183353 1792.4658,133.392276 C1795.02239,130.601199 1796.99975,127.291779 1798.39789,123.464016 C1799.79602,119.636253 1800.49509,115.449637 1800.49509,110.904169 C1800.49509,106.677681 1799.79602,102.7303 1798.39789,99.0620277 C1796.99975,95.393755 1795.02239,92.1840163 1792.4658,89.4328118 C1789.90921,86.6816072 1786.83331,84.5284906 1783.2381,82.973462 C1779.64289,81.4184333 1775.64822,80.640919 1771.25408,80.640919 C1766.85994,80.640919 1762.88524,81.4184333 1759.32998,82.973462 C1755.77472,84.5284906 1752.71879,86.6816072 1750.1622,89.4328118 C1747.60561,92.1840163 1745.62825,95.393755 1744.23011,99.0620277 C1742.83198,102.7303 1742.13291,106.677681 1742.13291,110.904169 Z M101,177.928 L116.538,177.928 L116.538,181.804 L105.284,181.804 L105.284,188.128 L115.892,188.128 L115.892,192.004 L105.284,192.004 L105.284,202 L101,202 L101,177.928 Z M119.224,190.066 C119.224,188.139333 119.541333,186.388333 120.176,184.813 C120.810667,183.237667 121.689,181.894667 122.811,180.784 C123.933,179.673333 125.270333,178.817667 126.823,178.217 C128.375667,177.616333 130.081333,177.316 131.94,177.316 C133.821333,177.293333 135.544,177.571 137.108,178.149 C138.672,178.727 140.020667,179.571333 141.154,180.682 C142.287333,181.792667 143.171333,183.13 143.806,184.694 C144.440667,186.258 144.758,188.003333 144.758,189.93 C144.758,191.811333 144.440667,193.522667 143.806,195.064 C143.171333,196.605333 142.287333,197.931333 141.154,199.042 C140.020667,200.152667 138.672,201.019667 137.108,201.643 C135.544,202.266333 133.821333,202.589333 131.94,202.612 C130.081333,202.612 128.375667,202.311667 126.823,201.711 C125.270333,201.110333 123.933,200.260333 122.811,199.161 C121.689,198.061667 120.810667,196.741333 120.176,195.2 C119.541333,193.658667 119.224,191.947333 119.224,190.066 Z M123.712,189.794 C123.712,191.086 123.910333,192.276 124.307,193.364 C124.703667,194.452 125.264667,195.392667 125.99,196.186 C126.715333,196.979333 127.582333,197.602667 128.591,198.056 C129.599667,198.509333 130.727333,198.736 131.974,198.736 C133.220667,198.736 134.354,198.509333 135.374,198.056 C136.394,197.602667 137.266667,196.979333 137.992,196.186 C138.717333,195.392667 139.278333,194.452 139.675,193.364 C140.071667,192.276 140.27,191.086 140.27,189.794 C140.27,188.592667 140.071667,187.470667 139.675,186.428 C139.278333,185.385333 138.717333,184.473 137.992,183.691 C137.266667,182.909 136.394,182.297 135.374,181.855 C134.354,181.413 133.220667,181.192 131.974,181.192 C130.727333,181.192 129.599667,181.413 128.591,181.855 C127.582333,182.297 126.715333,182.909 125.99,183.691 C125.264667,184.473 124.703667,185.385333 124.307,186.428 C123.910333,187.470667 123.712,188.592667 123.712,189.794 Z M168.116,193.16 C168.116,194.610667 167.866667,195.919667 167.368,197.087 C166.869333,198.254333 166.189333,199.246 165.328,200.062 C164.466667,200.878 163.446667,201.507 162.268,201.949 C161.089333,202.391 159.808667,202.612 158.426,202.612 C157.043333,202.612 155.762667,202.391 154.584,201.949 C153.405333,201.507 152.379667,200.878 151.507,200.062 C150.634333,199.246 149.954333,198.254333 149.467,197.087 C148.979667,195.919667 148.736,194.610667 148.736,193.16 L148.736,177.928 L153.02,177.928 L153.02,193.024 C153.02,193.613333 153.110667,194.231 153.292,194.877 C153.473333,195.523 153.773667,196.118 154.193,196.662 C154.612333,197.206 155.167667,197.653667 155.859,198.005 C156.550333,198.356333 157.406,198.532 158.426,198.532 C159.446,198.532 160.301667,198.356333 160.993,198.005 C161.684333,197.653667 162.239667,197.206 162.659,196.662 C163.078333,196.118 163.378667,195.523 163.56,194.877 C163.741333,194.231 163.832,193.613333 163.832,193.024 L163.832,177.928 L168.116,177.928 L168.116,193.16 Z M173.386,177.928 L181.75,177.928 C182.906,177.928 184.022333,178.035667 185.099,178.251 C186.175667,178.466333 187.133333,178.834667 187.972,179.356 C188.810667,179.877333 189.479333,180.58 189.978,181.464 C190.476667,182.348 190.726,183.47 190.726,184.83 C190.726,186.575333 190.244333,188.037333 189.281,189.216 C188.317667,190.394667 186.940667,191.108667 185.15,191.358 L191.542,202 L186.374,202 L180.798,191.8 L177.67,191.8 L177.67,202 L173.386,202 L173.386,177.928 Z M181.002,188.128 C181.614,188.128 182.226,188.099667 182.838,188.043 C183.45,187.986333 184.011,187.850333 184.521,187.635 C185.031,187.419667 185.444667,187.091 185.762,186.649 C186.079333,186.207 186.238,185.589333 186.238,184.796 C186.238,184.093333 186.090667,183.526667 185.796,183.096 C185.501333,182.665333 185.116,182.342333 184.64,182.127 C184.164,181.911667 183.637,181.77 183.059,181.702 C182.481,181.634 181.92,181.6 181.376,181.6 L177.67,181.6 L177.67,188.128 L181.002,188.128 Z M210.752,191.698 L201.708,177.928 L207.08,177.928 L212.996,187.516 L218.98,177.928 L224.08,177.928 L215.036,191.698 L215.036,202 L210.752,202 L210.752,191.698 Z M226.29,177.928 L242.236,177.928 L242.236,181.804 L230.574,181.804 L230.574,187.72 L241.624,187.72 L241.624,191.596 L230.574,191.596 L230.574,198.124 L242.848,198.124 L242.848,202 L226.29,202 L226.29,177.928 Z M254.85,177.928 L258.556,177.928 L268.926,202 L264.03,202 L261.786,196.492 L251.348,196.492 L249.172,202 L244.378,202 L254.85,177.928 Z M260.29,192.82 L256.584,183.028 L252.81,192.82 L260.29,192.82 Z M271.612,177.928 L279.976,177.928 C281.132,177.928 282.248333,178.035667 283.325,178.251 C284.401667,178.466333 285.359333,178.834667 286.198,179.356 C287.036667,179.877333 287.705333,180.58 288.204,181.464 C288.702667,182.348 288.952,183.47 288.952,184.83 C288.952,186.575333 288.470333,188.037333 287.507,189.216 C286.543667,190.394667 285.166667,191.108667 283.376,191.358 L289.768,202 L284.6,202 L279.024,191.8 L275.896,191.8 L275.896,202 L271.612,202 L271.612,177.928 Z M279.228,188.128 C279.84,188.128 280.452,188.099667 281.064,188.043 C281.676,187.986333 282.237,187.850333 282.747,187.635 C283.257,187.419667 283.670667,187.091 283.988,186.649 C284.305333,186.207 284.464,185.589333 284.464,184.796 C284.464,184.093333 284.316667,183.526667 284.022,183.096 C283.727333,182.665333 283.342,182.342333 282.866,182.127 C282.39,181.911667 281.863,181.77 281.285,181.702 C280.707,181.634 280.146,181.6 279.602,181.6 L275.896,181.6 L275.896,188.128 L279.228,188.128 Z M304.83,183.096 C304.376667,182.438667 303.770333,181.957 303.011,181.651 C302.251667,181.345 301.452667,181.192 300.614,181.192 C300.115333,181.192 299.633667,181.248667 299.169,181.362 C298.704333,181.475333 298.285,181.656667 297.911,181.906 C297.537,182.155333 297.236667,182.478333 297.01,182.875 C296.783333,183.271667 296.67,183.742 296.67,184.286 C296.67,185.102 296.953333,185.725333 297.52,186.156 C298.086667,186.586667 298.789333,186.960667 299.628,187.278 C300.466667,187.595333 301.384667,187.901333 302.382,188.196 C303.379333,188.490667 304.297333,188.898667 305.136,189.42 C305.974667,189.941333 306.677333,190.632667 307.244,191.494 C307.810667,192.355333 308.094,193.5 308.094,194.928 C308.094,196.22 307.856,197.347667 307.38,198.311 C306.904,199.274333 306.263667,200.073333 305.459,200.708 C304.654333,201.342667 303.719333,201.818667 302.654,202.136 C301.588667,202.453333 300.466667,202.612 299.288,202.612 C297.792,202.612 296.352667,202.362667 294.97,201.864 C293.587333,201.365333 292.397333,200.526667 291.4,199.348 L294.63,196.22 C295.151333,197.013333 295.837,197.631 296.687,198.073 C297.537,198.515 298.438,198.736 299.39,198.736 C299.888667,198.736 300.387333,198.668 300.886,198.532 C301.384667,198.396 301.838,198.192 302.246,197.92 C302.654,197.648 302.982667,197.302333 303.232,196.883 C303.481333,196.463667 303.606,195.982 303.606,195.438 C303.606,194.554 303.322667,193.874 302.756,193.398 C302.189333,192.922 301.486667,192.519667 300.648,192.191 C299.809333,191.862333 298.891333,191.550667 297.894,191.256 C296.896667,190.961333 295.978667,190.559 295.14,190.049 C294.301333,189.539 293.598667,188.859 293.032,188.009 C292.465333,187.159 292.182,186.02 292.182,184.592 C292.182,183.345333 292.437,182.268667 292.947,181.362 C293.457,180.455333 294.125667,179.701667 294.953,179.101 C295.780333,178.500333 296.726667,178.052667 297.792,177.758 C298.857333,177.463333 299.945333,177.316 301.056,177.316 C302.325333,177.316 303.555,177.508667 304.745,177.894 C305.935,178.279333 307.006,178.914 307.958,179.798 L304.83,183.096 Z M321.32,190.066 C321.32,188.139333 321.637333,186.388333 322.272,184.813 C322.906667,183.237667 323.785,181.894667 324.907,180.784 C326.029,179.673333 327.366333,178.817667 328.919,178.217 C330.471667,177.616333 332.177333,177.316 334.036,177.316 C335.917333,177.293333 337.64,177.571 339.204,178.149 C340.768,178.727 342.116667,179.571333 343.25,180.682 C344.383333,181.792667 345.267333,183.13 345.902,184.694 C346.536667,186.258 346.854,188.003333 346.854,189.93 C346.854,191.811333 346.536667,193.522667 345.902,195.064 C345.267333,196.605333 344.383333,197.931333 343.25,199.042 C342.116667,200.152667 340.768,201.019667 339.204,201.643 C337.64,202.266333 335.917333,202.589333 334.036,202.612 C332.177333,202.612 330.471667,202.311667 328.919,201.711 C327.366333,201.110333 326.029,200.260333 324.907,199.161 C323.785,198.061667 322.906667,196.741333 322.272,195.2 C321.637333,193.658667 321.32,191.947333 321.32,190.066 Z M325.808,189.794 C325.808,191.086 326.006333,192.276 326.403,193.364 C326.799667,194.452 327.360667,195.392667 328.086,196.186 C328.811333,196.979333 329.678333,197.602667 330.687,198.056 C331.695667,198.509333 332.823333,198.736 334.07,198.736 C335.316667,198.736 336.45,198.509333 337.47,198.056 C338.49,197.602667 339.362667,196.979333 340.088,196.186 C340.813333,195.392667 341.374333,194.452 341.771,193.364 C342.167667,192.276 342.366,191.086 342.366,189.794 C342.366,188.592667 342.167667,187.470667 341.771,186.428 C341.374333,185.385333 340.813333,184.473 340.088,183.691 C339.362667,182.909 338.49,182.297 337.47,181.855 C336.45,181.413 335.316667,181.192 334.07,181.192 C332.823333,181.192 331.695667,181.413 330.687,181.855 C329.678333,182.297 328.811333,182.909 328.086,183.691 C327.360667,184.473 326.799667,185.385333 326.403,186.428 C326.006333,187.470667 325.808,188.592667 325.808,189.794 Z M350.934,177.928 L366.472,177.928 L366.472,181.804 L355.218,181.804 L355.218,188.128 L365.826,188.128 L365.826,192.004 L355.218,192.004 L355.218,202 L350.934,202 L350.934,177.928 Z M380.514,177.928 L396.46,177.928 L396.46,181.804 L384.798,181.804 L384.798,187.72 L395.848,187.72 L395.848,191.596 L384.798,191.596 L384.798,198.124 L397.072,198.124 L397.072,202 L380.514,202 L380.514,177.928 Z M407.17,189.42 L399.146,177.928 L404.552,177.928 L410.23,186.836 L415.84,177.928 L421.042,177.928 L413.154,189.42 L421.892,202 L416.452,202 L410.094,191.834 L403.77,202 L398.602,202 L407.17,189.42 Z M424.578,177.928 L432.67,177.928 C433.826,177.928 434.942333,178.041333 436.019,178.268 C437.095667,178.494667 438.042,178.874333 438.858,179.407 C439.674,179.939667 440.325667,180.653667 440.813,181.549 C441.300333,182.444333 441.544,183.560667 441.544,184.898 C441.544,186.416667 441.283333,187.640667 440.762,188.57 C440.240667,189.499333 439.538,190.219 438.654,190.729 C437.77,191.239 436.744333,191.584667 435.577,191.766 C434.409667,191.947333 433.191333,192.038 431.922,192.038 L428.862,192.038 L428.862,202 L424.578,202 L424.578,177.928 Z M431.446,188.366 C432.058,188.366 432.692667,188.343333 433.35,188.298 C434.007333,188.252667 434.613667,188.116667 435.169,187.89 C435.724333,187.663333 436.177667,187.323333 436.529,186.87 C436.880333,186.416667 437.056,185.782 437.056,184.966 C437.056,184.218 436.897333,183.623 436.58,183.181 C436.262667,182.739 435.854667,182.399 435.356,182.161 C434.857333,181.923 434.302,181.77 433.69,181.702 C433.078,181.634 432.488667,181.6 431.922,181.6 L428.862,181.6 L428.862,188.366 L431.446,188.366 Z M445.352,177.928 L461.298,177.928 L461.298,181.804 L449.636,181.804 L449.636,187.72 L460.686,187.72 L460.686,191.596 L449.636,191.596 L449.636,198.124 L461.91,198.124 L461.91,202 L445.352,202 L445.352,177.928 Z M466.126,177.928 L474.49,177.928 C475.646,177.928 476.762333,178.035667 477.839,178.251 C478.915667,178.466333 479.873333,178.834667 480.712,179.356 C481.550667,179.877333 482.219333,180.58 482.718,181.464 C483.216667,182.348 483.466,183.47 483.466,184.83 C483.466,186.575333 482.984333,188.037333 482.021,189.216 C481.057667,190.394667 479.680667,191.108667 477.89,191.358 L484.282,202 L479.114,202 L473.538,191.8 L470.41,191.8 L470.41,202 L466.126,202 L466.126,177.928 Z M473.742,188.128 C474.354,188.128 474.966,188.099667 475.578,188.043 C476.19,187.986333 476.751,187.850333 477.261,187.635 C477.771,187.419667 478.184667,187.091 478.502,186.649 C478.819333,186.207 478.978,185.589333 478.978,184.796 C478.978,184.093333 478.830667,183.526667 478.536,183.096 C478.241333,182.665333 477.856,182.342333 477.38,182.127 C476.904,181.911667 476.377,181.77 475.799,181.702 C475.221,181.634 474.66,181.6 474.116,181.6 L470.41,181.6 L470.41,188.128 L473.742,188.128 Z M487.444,177.928 L491.728,177.928 L491.728,202 L487.444,202 L487.444,177.928 Z M496.998,177.928 L512.944,177.928 L512.944,181.804 L501.282,181.804 L501.282,187.72 L512.332,187.72 L512.332,191.596 L501.282,191.596 L501.282,198.124 L513.556,198.124 L513.556,202 L496.998,202 L496.998,177.928 Z M517.772,177.928 L523.45,177.928 L535.112,195.812 L535.18,195.812 L535.18,177.928 L539.464,177.928 L539.464,202 L534.024,202 L522.124,183.538 L522.056,183.538 L522.056,202 L517.772,202 L517.772,177.928 Z M561.36,183.572 C560.476,182.62 559.620333,181.985333 558.793,181.668 C557.965667,181.350667 557.132667,181.192 556.294,181.192 C555.047333,181.192 553.919667,181.413 552.911,181.855 C551.902333,182.297 551.035333,182.909 550.31,183.691 C549.584667,184.473 549.023667,185.385333 548.627,186.428 C548.230333,187.470667 548.032,188.592667 548.032,189.794 C548.032,191.086 548.230333,192.276 548.627,193.364 C549.023667,194.452 549.584667,195.392667 550.31,196.186 C551.035333,196.979333 551.902333,197.602667 552.911,198.056 C553.919667,198.509333 555.047333,198.736 556.294,198.736 C557.268667,198.736 558.215,198.503667 559.133,198.039 C560.051,197.574333 560.906667,196.832 561.7,195.812 L565.236,198.328 C564.148,199.824 562.822,200.912 561.258,201.592 C559.694,202.272 558.028,202.612 556.26,202.612 C554.401333,202.612 552.695667,202.311667 551.143,201.711 C549.590333,201.110333 548.253,200.260333 547.131,199.161 C546.009,198.061667 545.130667,196.741333 544.496,195.2 C543.861333,193.658667 543.544,191.947333 543.544,190.066 C543.544,188.139333 543.861333,186.388333 544.496,184.813 C545.130667,183.237667 546.009,181.894667 547.131,180.784 C548.253,179.673333 549.590333,178.817667 551.143,178.217 C552.695667,177.616333 554.401333,177.316 556.26,177.316 C557.892,177.316 559.405,177.605 560.799,178.183 C562.193,178.761 563.490667,179.741333 564.692,181.124 L561.36,183.572 Z M568.126,177.928 L584.072,177.928 L584.072,181.804 L572.41,181.804 L572.41,187.72 L583.46,187.72 L583.46,191.596 L572.41,191.596 L572.41,198.124 L584.684,198.124 L584.684,202 L568.126,202 L568.126,177.928 Z M598.862,177.928 L603.146,177.928 L603.146,202 L598.862,202 L598.862,177.928 Z M608.416,177.928 L614.094,177.928 L625.756,195.812 L625.824,195.812 L625.824,177.928 L630.108,177.928 L630.108,202 L624.668,202 L612.768,183.538 L612.7,183.538 L612.7,202 L608.416,202 L608.416,177.928 Z M664.822,193.16 C664.822,194.610667 664.572667,195.919667 664.074,197.087 C663.575333,198.254333 662.895333,199.246 662.034,200.062 C661.172667,200.878 660.152667,201.507 658.974,201.949 C657.795333,202.391 656.514667,202.612 655.132,202.612 C653.749333,202.612 652.468667,202.391 651.29,201.949 C650.111333,201.507 649.085667,200.878 648.213,200.062 C647.340333,199.246 646.660333,198.254333 646.173,197.087 C645.685667,195.919667 645.442,194.610667 645.442,193.16 L645.442,177.928 L649.726,177.928 L649.726,193.024 C649.726,193.613333 649.816667,194.231 649.998,194.877 C650.179333,195.523 650.479667,196.118 650.899,196.662 C651.318333,197.206 651.873667,197.653667 652.565,198.005 C653.256333,198.356333 654.112,198.532 655.132,198.532 C656.152,198.532 657.007667,198.356333 657.699,198.005 C658.390333,197.653667 658.945667,197.206 659.365,196.662 C659.784333,196.118 660.084667,195.523 660.266,194.877 C660.447333,194.231 660.538,193.613333 660.538,193.024 L660.538,177.928 L664.822,177.928 L664.822,193.16 Z M669.99,177.928 L674.274,177.928 L674.274,202 L669.99,202 L669.99,177.928 Z M689.608,177.928 L699.094,177.928 C700.680667,177.928 702.210667,178.171667 703.684,178.659 C705.157333,179.146333 706.460667,179.888667 707.594,180.886 C708.727333,181.883333 709.634,183.135667 710.314,184.643 C710.994,186.150333 711.334,187.924 711.334,189.964 C711.334,192.026667 710.943,193.811667 710.161,195.319 C709.379,196.826333 708.370333,198.073 707.135,199.059 C705.899667,200.045 704.528333,200.781667 703.021,201.269 C701.513667,201.756333 700.034667,202 698.584,202 L689.608,202 L689.608,177.928 Z M697.088,198.124 C698.425333,198.124 699.689,197.971 700.879,197.665 C702.069,197.359 703.106,196.883 703.99,196.237 C704.874,195.591 705.571,194.752333 706.081,193.721 C706.591,192.689667 706.846,191.437333 706.846,189.964 C706.846,188.513333 706.619333,187.266667 706.166,186.224 C705.712667,185.181333 705.083667,184.337 704.279,183.691 C703.474333,183.045 702.522333,182.569 701.423,182.263 C700.323667,181.957 699.116667,181.804 697.802,181.804 L693.892,181.804 L693.892,198.124 L697.088,198.124 Z M715.414,177.928 L731.36,177.928 L731.36,181.804 L719.698,181.804 L719.698,187.72 L730.748,187.72 L730.748,191.596 L719.698,191.596 L719.698,198.124 L731.972,198.124 L731.972,202 L715.414,202 L715.414,177.928 Z M747.986,183.096 C747.532667,182.438667 746.926333,181.957 746.167,181.651 C745.407667,181.345 744.608667,181.192 743.77,181.192 C743.271333,181.192 742.789667,181.248667 742.325,181.362 C741.860333,181.475333 741.441,181.656667 741.067,181.906 C740.693,182.155333 740.392667,182.478333 740.166,182.875 C739.939333,183.271667 739.826,183.742 739.826,184.286 C739.826,185.102 740.109333,185.725333 740.676,186.156 C741.242667,186.586667 741.945333,186.960667 742.784,187.278 C743.622667,187.595333 744.540667,187.901333 745.538,188.196 C746.535333,188.490667 747.453333,188.898667 748.292,189.42 C749.130667,189.941333 749.833333,190.632667 750.4,191.494 C750.966667,192.355333 751.25,193.5 751.25,194.928 C751.25,196.22 751.012,197.347667 750.536,198.311 C750.06,199.274333 749.419667,200.073333 748.615,200.708 C747.810333,201.342667 746.875333,201.818667 745.81,202.136 C744.744667,202.453333 743.622667,202.612 742.444,202.612 C740.948,202.612 739.508667,202.362667 738.126,201.864 C736.743333,201.365333 735.553333,200.526667 734.556,199.348 L737.786,196.22 C738.307333,197.013333 738.993,197.631 739.843,198.073 C740.693,198.515 741.594,198.736 742.546,198.736 C743.044667,198.736 743.543333,198.668 744.042,198.532 C744.540667,198.396 744.994,198.192 745.402,197.92 C745.81,197.648 746.138667,197.302333 746.388,196.883 C746.637333,196.463667 746.762,195.982 746.762,195.438 C746.762,194.554 746.478667,193.874 745.912,193.398 C745.345333,192.922 744.642667,192.519667 743.804,192.191 C742.965333,191.862333 742.047333,191.550667 741.05,191.256 C740.052667,190.961333 739.134667,190.559 738.296,190.049 C737.457333,189.539 736.754667,188.859 736.188,188.009 C735.621333,187.159 735.338,186.02 735.338,184.592 C735.338,183.345333 735.593,182.268667 736.103,181.362 C736.613,180.455333 737.281667,179.701667 738.109,179.101 C738.936333,178.500333 739.882667,178.052667 740.948,177.758 C742.013333,177.463333 743.101333,177.316 744.212,177.316 C745.481333,177.316 746.711,177.508667 747.901,177.894 C749.091,178.279333 750.162,178.914 751.114,179.798 L747.986,183.096 Z M755.602,177.928 L759.886,177.928 L759.886,202 L755.602,202 L755.602,177.928 Z M786.542,200.232 C783.572667,201.818667 780.252,202.612 776.58,202.612 C774.721333,202.612 773.015667,202.311667 771.463,201.711 C769.910333,201.110333 768.573,200.260333 767.451,199.161 C766.329,198.061667 765.450667,196.741333 764.816,195.2 C764.181333,193.658667 763.864,191.947333 763.864,190.066 C763.864,188.139333 764.181333,186.388333 764.816,184.813 C765.450667,183.237667 766.329,181.894667 767.451,180.784 C768.573,179.673333 769.910333,178.817667 771.463,178.217 C773.015667,177.616333 774.721333,177.316 776.58,177.316 C778.416,177.316 780.138667,177.537 781.748,177.979 C783.357333,178.421 784.796667,179.208667 786.066,180.342 L782.904,183.538 C782.133333,182.79 781.198333,182.212 780.099,181.804 C778.999667,181.396 777.838,181.192 776.614,181.192 C775.367333,181.192 774.239667,181.413 773.231,181.855 C772.222333,182.297 771.355333,182.909 770.63,183.691 C769.904667,184.473 769.343667,185.385333 768.947,186.428 C768.550333,187.470667 768.352,188.592667 768.352,189.794 C768.352,191.086 768.550333,192.276 768.947,193.364 C769.343667,194.452 769.904667,195.392667 770.63,196.186 C771.355333,196.979333 772.222333,197.602667 773.231,198.056 C774.239667,198.509333 775.367333,198.736 776.614,198.736 C777.702,198.736 778.727667,198.634 779.691,198.43 C780.654333,198.226 781.51,197.908667 782.258,197.478 L782.258,191.8 L777.328,191.8 L777.328,187.924 L786.542,187.924 L786.542,200.232 Z M791.608,177.928 L797.286,177.928 L808.948,195.812 L809.016,195.812 L809.016,177.928 L813.3,177.928 L813.3,202 L807.86,202 L795.96,183.538 L795.892,183.538 L795.892,202 L791.608,202 L791.608,177.928 Z M829.722,197.308 L833.87,197.308 L830.98,206.284 L827.342,206.284 L829.722,197.308 Z M848.762,177.928 L853.046,177.928 L853.046,202 L848.762,202 L848.762,177.928 Z M858.316,177.928 L863.994,177.928 L875.656,195.812 L875.724,195.812 L875.724,177.928 L880.008,177.928 L880.008,202 L874.568,202 L862.668,183.538 L862.6,183.538 L862.6,202 L858.316,202 L858.316,177.928 Z M882.592,177.928 L887.522,177.928 L894.084,196.118 L900.85,177.928 L905.474,177.928 L895.75,202 L892.044,202 L882.592,177.928 Z M906.766,190.066 C906.766,188.139333 907.083333,186.388333 907.718,184.813 C908.352667,183.237667 909.231,181.894667 910.353,180.784 C911.475,179.673333 912.812333,178.817667 914.365,178.217 C915.917667,177.616333 917.623333,177.316 919.482,177.316 C921.363333,177.293333 923.086,177.571 924.65,178.149 C926.214,178.727 927.562667,179.571333 928.696,180.682 C929.829333,181.792667 930.713333,183.13 931.348,184.694 C931.982667,186.258 932.3,188.003333 932.3,189.93 C932.3,191.811333 931.982667,193.522667 931.348,195.064 C930.713333,196.605333 929.829333,197.931333 928.696,199.042 C927.562667,200.152667 926.214,201.019667 924.65,201.643 C923.086,202.266333 921.363333,202.589333 919.482,202.612 C917.623333,202.612 915.917667,202.311667 914.365,201.711 C912.812333,201.110333 911.475,200.260333 910.353,199.161 C909.231,198.061667 908.352667,196.741333 907.718,195.2 C907.083333,193.658667 906.766,191.947333 906.766,190.066 Z M911.254,189.794 C911.254,191.086 911.452333,192.276 911.849,193.364 C912.245667,194.452 912.806667,195.392667 913.532,196.186 C914.257333,196.979333 915.124333,197.602667 916.133,198.056 C917.141667,198.509333 918.269333,198.736 919.516,198.736 C920.762667,198.736 921.896,198.509333 922.916,198.056 C923.936,197.602667 924.808667,196.979333 925.534,196.186 C926.259333,195.392667 926.820333,194.452 927.217,193.364 C927.613667,192.276 927.812,191.086 927.812,189.794 C927.812,188.592667 927.613667,187.470667 927.217,186.428 C926.820333,185.385333 926.259333,184.473 925.534,183.691 C924.808667,182.909 923.936,182.297 922.916,181.855 C921.896,181.413 920.762667,181.192 919.516,181.192 C918.269333,181.192 917.141667,181.413 916.133,181.855 C915.124333,182.297 914.257333,182.909 913.532,183.691 C912.806667,184.473 912.245667,185.385333 911.849,186.428 C911.452333,187.470667 911.254,188.592667 911.254,189.794 Z M936.38,177.928 L940.664,177.928 L940.664,198.124 L950.898,198.124 L950.898,202 L936.38,202 L936.38,177.928 Z M951.238,177.928 L956.168,177.928 L962.73,196.118 L969.496,177.928 L974.12,177.928 L964.396,202 L960.69,202 L951.238,177.928 Z M976.704,177.928 L992.65,177.928 L992.65,181.804 L980.988,181.804 L980.988,187.72 L992.038,187.72 L992.038,191.596 L980.988,191.596 L980.988,198.124 L993.262,198.124 L993.262,202 L976.704,202 L976.704,177.928 Z M997.478,177.928 L1006.964,177.928 C1008.55067,177.928 1010.08067,178.171667 1011.554,178.659 C1013.02733,179.146333 1014.33067,179.888667 1015.464,180.886 C1016.59733,181.883333 1017.504,183.135667 1018.184,184.643 C1018.864,186.150333 1019.204,187.924 1019.204,189.964 C1019.204,192.026667 1018.813,193.811667 1018.031,195.319 C1017.249,196.826333 1016.24033,198.073 1015.005,199.059 C1013.76967,200.045 1012.39833,200.781667 1010.891,201.269 C1009.38367,201.756333 1007.90467,202 1006.454,202 L997.478,202 L997.478,177.928 Z M1004.958,198.124 C1006.29533,198.124 1007.559,197.971 1008.749,197.665 C1009.939,197.359 1010.976,196.883 1011.86,196.237 C1012.744,195.591 1013.441,194.752333 1013.951,193.721 C1014.461,192.689667 1014.716,191.437333 1014.716,189.964 C1014.716,188.513333 1014.48933,187.266667 1014.036,186.224 C1013.58267,185.181333 1012.95367,184.337 1012.149,183.691 C1011.34433,183.045 1010.39233,182.569 1009.293,182.263 C1008.19367,181.957 1006.98667,181.804 1005.672,181.804 L1001.762,181.804 L1001.762,198.124 L1004.958,198.124 Z M1033.246,177.928 L1037.53,177.928 L1037.53,202 L1033.246,202 L1033.246,177.928 Z M1042.8,177.928 L1048.478,177.928 L1060.14,195.812 L1060.208,195.812 L1060.208,177.928 L1064.492,177.928 L1064.492,202 L1059.052,202 L1047.152,183.538 L1047.084,183.538 L1047.084,202 L1042.8,202 L1042.8,177.928 Z M1091.726,183.096 C1091.27267,182.438667 1090.66633,181.957 1089.907,181.651 C1089.14767,181.345 1088.34867,181.192 1087.51,181.192 C1087.01133,181.192 1086.52967,181.248667 1086.065,181.362 C1085.60033,181.475333 1085.181,181.656667 1084.807,181.906 C1084.433,182.155333 1084.13267,182.478333 1083.906,182.875 C1083.67933,183.271667 1083.566,183.742 1083.566,184.286 C1083.566,185.102 1083.84933,185.725333 1084.416,186.156 C1084.98267,186.586667 1085.68533,186.960667 1086.524,187.278 C1087.36267,187.595333 1088.28067,187.901333 1089.278,188.196 C1090.27533,188.490667 1091.19333,188.898667 1092.032,189.42 C1092.87067,189.941333 1093.57333,190.632667 1094.14,191.494 C1094.70667,192.355333 1094.99,193.5 1094.99,194.928 C1094.99,196.22 1094.752,197.347667 1094.276,198.311 C1093.8,199.274333 1093.15967,200.073333 1092.355,200.708 C1091.55033,201.342667 1090.61533,201.818667 1089.55,202.136 C1088.48467,202.453333 1087.36267,202.612 1086.184,202.612 C1084.688,202.612 1083.24867,202.362667 1081.866,201.864 C1080.48333,201.365333 1079.29333,200.526667 1078.296,199.348 L1081.526,196.22 C1082.04733,197.013333 1082.733,197.631 1083.583,198.073 C1084.433,198.515 1085.334,198.736 1086.286,198.736 C1086.78467,198.736 1087.28333,198.668 1087.782,198.532 C1088.28067,198.396 1088.734,198.192 1089.142,197.92 C1089.55,197.648 1089.87867,197.302333 1090.128,196.883 C1090.37733,196.463667 1090.502,195.982 1090.502,195.438 C1090.502,194.554 1090.21867,193.874 1089.652,193.398 C1089.08533,192.922 1088.38267,192.519667 1087.544,192.191 C1086.70533,191.862333 1085.78733,191.550667 1084.79,191.256 C1083.79267,190.961333 1082.87467,190.559 1082.036,190.049 C1081.19733,189.539 1080.49467,188.859 1079.928,188.009 C1079.36133,187.159 1079.078,186.02 1079.078,184.592 C1079.078,183.345333 1079.333,182.268667 1079.843,181.362 C1080.353,180.455333 1081.02167,179.701667 1081.849,179.101 C1082.67633,178.500333 1083.62267,178.052667 1084.688,177.758 C1085.75333,177.463333 1086.84133,177.316 1087.952,177.316 C1089.22133,177.316 1090.451,177.508667 1091.641,177.894 C1092.831,178.279333 1093.902,178.914 1094.854,179.798 L1091.726,183.096 Z M1098.152,190.066 C1098.152,188.139333 1098.46933,186.388333 1099.104,184.813 C1099.73867,183.237667 1100.617,181.894667 1101.739,180.784 C1102.861,179.673333 1104.19833,178.817667 1105.751,178.217 C1107.30367,177.616333 1109.00933,177.316 1110.868,177.316 C1112.74933,177.293333 1114.472,177.571 1116.036,178.149 C1117.6,178.727 1118.94867,179.571333 1120.082,180.682 C1121.21533,181.792667 1122.09933,183.13 1122.734,184.694 C1123.36867,186.258 1123.686,188.003333 1123.686,189.93 C1123.686,191.811333 1123.36867,193.522667 1122.734,195.064 C1122.09933,196.605333 1121.21533,197.931333 1120.082,199.042 C1118.94867,200.152667 1117.6,201.019667 1116.036,201.643 C1114.472,202.266333 1112.74933,202.589333 1110.868,202.612 C1109.00933,202.612 1107.30367,202.311667 1105.751,201.711 C1104.19833,201.110333 1102.861,200.260333 1101.739,199.161 C1100.617,198.061667 1099.73867,196.741333 1099.104,195.2 C1098.46933,193.658667 1098.152,191.947333 1098.152,190.066 Z M1102.64,189.794 C1102.64,191.086 1102.83833,192.276 1103.235,193.364 C1103.63167,194.452 1104.19267,195.392667 1104.918,196.186 C1105.64333,196.979333 1106.51033,197.602667 1107.519,198.056 C1108.52767,198.509333 1109.65533,198.736 1110.902,198.736 C1112.14867,198.736 1113.282,198.509333 1114.302,198.056 C1115.322,197.602667 1116.19467,196.979333 1116.92,196.186 C1117.64533,195.392667 1118.20633,194.452 1118.603,193.364 C1118.99967,192.276 1119.198,191.086 1119.198,189.794 C1119.198,188.592667 1118.99967,187.470667 1118.603,186.428 C1118.20633,185.385333 1117.64533,184.473 1116.92,183.691 C1116.19467,182.909 1115.322,182.297 1114.302,181.855 C1113.282,181.413 1112.14867,181.192 1110.902,181.192 C1109.65533,181.192 1108.52767,181.413 1107.519,181.855 C1106.51033,182.297 1105.64333,182.909 1104.918,183.691 C1104.19267,184.473 1103.63167,185.385333 1103.235,186.428 C1102.83833,187.470667 1102.64,188.592667 1102.64,189.794 Z M1144.29,183.572 C1143.406,182.62 1142.55033,181.985333 1141.723,181.668 C1140.89567,181.350667 1140.06267,181.192 1139.224,181.192 C1137.97733,181.192 1136.84967,181.413 1135.841,181.855 C1134.83233,182.297 1133.96533,182.909 1133.24,183.691 C1132.51467,184.473 1131.95367,185.385333 1131.557,186.428 C1131.16033,187.470667 1130.962,188.592667 1130.962,189.794 C1130.962,191.086 1131.16033,192.276 1131.557,193.364 C1131.95367,194.452 1132.51467,195.392667 1133.24,196.186 C1133.96533,196.979333 1134.83233,197.602667 1135.841,198.056 C1136.84967,198.509333 1137.97733,198.736 1139.224,198.736 C1140.19867,198.736 1141.145,198.503667 1142.063,198.039 C1142.981,197.574333 1143.83667,196.832 1144.63,195.812 L1148.166,198.328 C1147.078,199.824 1145.752,200.912 1144.188,201.592 C1142.624,202.272 1140.958,202.612 1139.19,202.612 C1137.33133,202.612 1135.62567,202.311667 1134.073,201.711 C1132.52033,201.110333 1131.183,200.260333 1130.061,199.161 C1128.939,198.061667 1128.06067,196.741333 1127.426,195.2 C1126.79133,193.658667 1126.474,191.947333 1126.474,190.066 C1126.474,188.139333 1126.79133,186.388333 1127.426,184.813 C1128.06067,183.237667 1128.939,181.894667 1130.061,180.784 C1131.183,179.673333 1132.52033,178.817667 1134.073,178.217 C1135.62567,177.616333 1137.33133,177.316 1139.19,177.316 C1140.822,177.316 1142.335,177.605 1143.729,178.183 C1145.123,178.761 1146.42067,179.741333 1147.622,181.124 L1144.29,183.572 Z M1150.954,177.928 L1155.238,177.928 L1155.238,202 L1150.954,202 L1150.954,177.928 Z M1168.294,177.928 L1172,177.928 L1182.37,202 L1177.474,202 L1175.23,196.492 L1164.792,196.492 L1162.616,202 L1157.822,202 L1168.294,177.928 Z M1173.734,192.82 L1170.028,183.028 L1166.254,192.82 L1173.734,192.82 Z M1185.056,177.928 L1189.34,177.928 L1189.34,198.124 L1199.574,198.124 L1199.574,202 L1185.056,202 L1185.056,177.928 Z M1212.766,177.928 L1220.858,177.928 C1222.014,177.928 1223.13033,178.041333 1224.207,178.268 C1225.28367,178.494667 1226.23,178.874333 1227.046,179.407 C1227.862,179.939667 1228.51367,180.653667 1229.001,181.549 C1229.48833,182.444333 1229.732,183.560667 1229.732,184.898 C1229.732,186.416667 1229.47133,187.640667 1228.95,188.57 C1228.42867,189.499333 1227.726,190.219 1226.842,190.729 C1225.958,191.239 1224.93233,191.584667 1223.765,191.766 C1222.59767,191.947333 1221.37933,192.038 1220.11,192.038 L1217.05,192.038 L1217.05,202 L1212.766,202 L1212.766,177.928 Z M1219.634,188.366 C1220.246,188.366 1220.88067,188.343333 1221.538,188.298 C1222.19533,188.252667 1222.80167,188.116667 1223.357,187.89 C1223.91233,187.663333 1224.36567,187.323333 1224.717,186.87 C1225.06833,186.416667 1225.244,185.782 1225.244,184.966 C1225.244,184.218 1225.08533,183.623 1224.768,183.181 C1224.45067,182.739 1224.04267,182.399 1223.544,182.161 C1223.04533,181.923 1222.49,181.77 1221.878,181.702 C1221.266,181.634 1220.67667,181.6 1220.11,181.6 L1217.05,181.6 L1217.05,188.366 L1219.634,188.366 Z M1233.54,177.928 L1241.904,177.928 C1243.06,177.928 1244.17633,178.035667 1245.253,178.251 C1246.32967,178.466333 1247.28733,178.834667 1248.126,179.356 C1248.96467,179.877333 1249.63333,180.58 1250.132,181.464 C1250.63067,182.348 1250.88,183.47 1250.88,184.83 C1250.88,186.575333 1250.39833,188.037333 1249.435,189.216 C1248.47167,190.394667 1247.09467,191.108667 1245.304,191.358 L1251.696,202 L1246.528,202 L1240.952,191.8 L1237.824,191.8 L1237.824,202 L1233.54,202 L1233.54,177.928 Z M1241.156,188.128 C1241.768,188.128 1242.38,188.099667 1242.992,188.043 C1243.604,187.986333 1244.165,187.850333 1244.675,187.635 C1245.185,187.419667 1245.59867,187.091 1245.916,186.649 C1246.23333,186.207 1246.392,185.589333 1246.392,184.796 C1246.392,184.093333 1246.24467,183.526667 1245.95,183.096 C1245.65533,182.665333 1245.27,182.342333 1244.794,182.127 C1244.318,181.911667 1243.791,181.77 1243.213,181.702 C1242.635,181.634 1242.074,181.6 1241.53,181.6 L1237.824,181.6 L1237.824,188.128 L1241.156,188.128 Z M1253.668,190.066 C1253.668,188.139333 1253.98533,186.388333 1254.62,184.813 C1255.25467,183.237667 1256.133,181.894667 1257.255,180.784 C1258.377,179.673333 1259.71433,178.817667 1261.267,178.217 C1262.81967,177.616333 1264.52533,177.316 1266.384,177.316 C1268.26533,177.293333 1269.988,177.571 1271.552,178.149 C1273.116,178.727 1274.46467,179.571333 1275.598,180.682 C1276.73133,181.792667 1277.61533,183.13 1278.25,184.694 C1278.88467,186.258 1279.202,188.003333 1279.202,189.93 C1279.202,191.811333 1278.88467,193.522667 1278.25,195.064 C1277.61533,196.605333 1276.73133,197.931333 1275.598,199.042 C1274.46467,200.152667 1273.116,201.019667 1271.552,201.643 C1269.988,202.266333 1268.26533,202.589333 1266.384,202.612 C1264.52533,202.612 1262.81967,202.311667 1261.267,201.711 C1259.71433,201.110333 1258.377,200.260333 1257.255,199.161 C1256.133,198.061667 1255.25467,196.741333 1254.62,195.2 C1253.98533,193.658667 1253.668,191.947333 1253.668,190.066 Z M1258.156,189.794 C1258.156,191.086 1258.35433,192.276 1258.751,193.364 C1259.14767,194.452 1259.70867,195.392667 1260.434,196.186 C1261.15933,196.979333 1262.02633,197.602667 1263.035,198.056 C1264.04367,198.509333 1265.17133,198.736 1266.418,198.736 C1267.66467,198.736 1268.798,198.509333 1269.818,198.056 C1270.838,197.602667 1271.71067,196.979333 1272.436,196.186 C1273.16133,195.392667 1273.72233,194.452 1274.119,193.364 C1274.51567,192.276 1274.714,191.086 1274.714,189.794 C1274.714,188.592667 1274.51567,187.470667 1274.119,186.428 C1273.72233,185.385333 1273.16133,184.473 1272.436,183.691 C1271.71067,182.909 1270.838,182.297 1269.818,181.855 C1268.798,181.413 1267.66467,181.192 1266.418,181.192 C1265.17133,181.192 1264.04367,181.413 1263.035,181.855 C1262.02633,182.297 1261.15933,182.909 1260.434,183.691 C1259.70867,184.473 1259.14767,185.385333 1258.751,186.428 C1258.35433,187.470667 1258.156,188.592667 1258.156,189.794 Z M1283.282,177.928 L1292.768,177.928 C1294.35467,177.928 1295.88467,178.171667 1297.358,178.659 C1298.83133,179.146333 1300.13467,179.888667 1301.268,180.886 C1302.40133,181.883333 1303.308,183.135667 1303.988,184.643 C1304.668,186.150333 1305.008,187.924 1305.008,189.964 C1305.008,192.026667 1304.617,193.811667 1303.835,195.319 C1303.053,196.826333 1302.04433,198.073 1300.809,199.059 C1299.57367,200.045 1298.20233,200.781667 1296.695,201.269 C1295.18767,201.756333 1293.70867,202 1292.258,202 L1283.282,202 L1283.282,177.928 Z M1290.762,198.124 C1292.09933,198.124 1293.363,197.971 1294.553,197.665 C1295.743,197.359 1296.78,196.883 1297.664,196.237 C1298.548,195.591 1299.245,194.752333 1299.755,193.721 C1300.265,192.689667 1300.52,191.437333 1300.52,189.964 C1300.52,188.513333 1300.29333,187.266667 1299.84,186.224 C1299.38667,185.181333 1298.75767,184.337 1297.953,183.691 C1297.14833,183.045 1296.19633,182.569 1295.097,182.263 C1293.99767,181.957 1292.79067,181.804 1291.476,181.804 L1287.566,181.804 L1287.566,198.124 L1290.762,198.124 Z M1328.366,193.16 C1328.366,194.610667 1328.11667,195.919667 1327.618,197.087 C1327.11933,198.254333 1326.43933,199.246 1325.578,200.062 C1324.71667,200.878 1323.69667,201.507 1322.518,201.949 C1321.33933,202.391 1320.05867,202.612 1318.676,202.612 C1317.29333,202.612 1316.01267,202.391 1314.834,201.949 C1313.65533,201.507 1312.62967,200.878 1311.757,200.062 C1310.88433,199.246 1310.20433,198.254333 1309.717,197.087 C1309.22967,195.919667 1308.986,194.610667 1308.986,193.16 L1308.986,177.928 L1313.27,177.928 L1313.27,193.024 C1313.27,193.613333 1313.36067,194.231 1313.542,194.877 C1313.72333,195.523 1314.02367,196.118 1314.443,196.662 C1314.86233,197.206 1315.41767,197.653667 1316.109,198.005 C1316.80033,198.356333 1317.656,198.532 1318.676,198.532 C1319.696,198.532 1320.55167,198.356333 1321.243,198.005 C1321.93433,197.653667 1322.48967,197.206 1322.909,196.662 C1323.32833,196.118 1323.62867,195.523 1323.81,194.877 C1323.99133,194.231 1324.082,193.613333 1324.082,193.024 L1324.082,177.928 L1328.366,177.928 L1328.366,193.16 Z M1350.16,183.572 C1349.276,182.62 1348.42033,181.985333 1347.593,181.668 C1346.76567,181.350667 1345.93267,181.192 1345.094,181.192 C1343.84733,181.192 1342.71967,181.413 1341.711,181.855 C1340.70233,182.297 1339.83533,182.909 1339.11,183.691 C1338.38467,184.473 1337.82367,185.385333 1337.427,186.428 C1337.03033,187.470667 1336.832,188.592667 1336.832,189.794 C1336.832,191.086 1337.03033,192.276 1337.427,193.364 C1337.82367,194.452 1338.38467,195.392667 1339.11,196.186 C1339.83533,196.979333 1340.70233,197.602667 1341.711,198.056 C1342.71967,198.509333 1343.84733,198.736 1345.094,198.736 C1346.06867,198.736 1347.015,198.503667 1347.933,198.039 C1348.851,197.574333 1349.70667,196.832 1350.5,195.812 L1354.036,198.328 C1352.948,199.824 1351.622,200.912 1350.058,201.592 C1348.494,202.272 1346.828,202.612 1345.06,202.612 C1343.20133,202.612 1341.49567,202.311667 1339.943,201.711 C1338.39033,201.110333 1337.053,200.260333 1335.931,199.161 C1334.809,198.061667 1333.93067,196.741333 1333.296,195.2 C1332.66133,193.658667 1332.344,191.947333 1332.344,190.066 C1332.344,188.139333 1332.66133,186.388333 1333.296,184.813 C1333.93067,183.237667 1334.809,181.894667 1335.931,180.784 C1337.053,179.673333 1338.39033,178.817667 1339.943,178.217 C1341.49567,177.616333 1343.20133,177.316 1345.06,177.316 C1346.692,177.316 1348.205,177.605 1349.599,178.183 C1350.993,178.761 1352.29067,179.741333 1353.492,181.124 L1350.16,183.572 Z M1361.856,181.804 L1354.478,181.804 L1354.478,177.928 L1373.518,177.928 L1373.518,181.804 L1366.14,181.804 L1366.14,202 L1361.856,202 L1361.856,181.804 Z M1388.24,183.096 C1387.78667,182.438667 1387.18033,181.957 1386.421,181.651 C1385.66167,181.345 1384.86267,181.192 1384.024,181.192 C1383.52533,181.192 1383.04367,181.248667 1382.579,181.362 C1382.11433,181.475333 1381.695,181.656667 1381.321,181.906 C1380.947,182.155333 1380.64667,182.478333 1380.42,182.875 C1380.19333,183.271667 1380.08,183.742 1380.08,184.286 C1380.08,185.102 1380.36333,185.725333 1380.93,186.156 C1381.49667,186.586667 1382.19933,186.960667 1383.038,187.278 C1383.87667,187.595333 1384.79467,187.901333 1385.792,188.196 C1386.78933,188.490667 1387.70733,188.898667 1388.546,189.42 C1389.38467,189.941333 1390.08733,190.632667 1390.654,191.494 C1391.22067,192.355333 1391.504,193.5 1391.504,194.928 C1391.504,196.22 1391.266,197.347667 1390.79,198.311 C1390.314,199.274333 1389.67367,200.073333 1388.869,200.708 C1388.06433,201.342667 1387.12933,201.818667 1386.064,202.136 C1384.99867,202.453333 1383.87667,202.612 1382.698,202.612 C1381.202,202.612 1379.76267,202.362667 1378.38,201.864 C1376.99733,201.365333 1375.80733,200.526667 1374.81,199.348 L1378.04,196.22 C1378.56133,197.013333 1379.247,197.631 1380.097,198.073 C1380.947,198.515 1381.848,198.736 1382.8,198.736 C1383.29867,198.736 1383.79733,198.668 1384.296,198.532 C1384.79467,198.396 1385.248,198.192 1385.656,197.92 C1386.064,197.648 1386.39267,197.302333 1386.642,196.883 C1386.89133,196.463667 1387.016,195.982 1387.016,195.438 C1387.016,194.554 1386.73267,193.874 1386.166,193.398 C1385.59933,192.922 1384.89667,192.519667 1384.058,192.191 C1383.21933,191.862333 1382.30133,191.550667 1381.304,191.256 C1380.30667,190.961333 1379.38867,190.559 1378.55,190.049 C1377.71133,189.539 1377.00867,188.859 1376.442,188.009 C1375.87533,187.159 1375.592,186.02 1375.592,184.592 C1375.592,183.345333 1375.847,182.268667 1376.357,181.362 C1376.867,180.455333 1377.53567,179.701667 1378.363,179.101 C1379.19033,178.500333 1380.13667,178.052667 1381.202,177.758 C1382.26733,177.463333 1383.35533,177.316 1384.466,177.316 C1385.73533,177.316 1386.965,177.508667 1388.155,177.894 C1389.345,178.279333 1390.416,178.914 1391.368,179.798 L1388.24,183.096 Z M1406.022,177.928 L1421.56,177.928 L1421.56,181.804 L1410.306,181.804 L1410.306,188.128 L1420.914,188.128 L1420.914,192.004 L1410.306,192.004 L1410.306,202 L1406.022,202 L1406.022,177.928 Z M1424.246,190.066 C1424.246,188.139333 1424.56333,186.388333 1425.198,184.813 C1425.83267,183.237667 1426.711,181.894667 1427.833,180.784 C1428.955,179.673333 1430.29233,178.817667 1431.845,178.217 C1433.39767,177.616333 1435.10333,177.316 1436.962,177.316 C1438.84333,177.293333 1440.566,177.571 1442.13,178.149 C1443.694,178.727 1445.04267,179.571333 1446.176,180.682 C1447.30933,181.792667 1448.19333,183.13 1448.828,184.694 C1449.46267,186.258 1449.78,188.003333 1449.78,189.93 C1449.78,191.811333 1449.46267,193.522667 1448.828,195.064 C1448.19333,196.605333 1447.30933,197.931333 1446.176,199.042 C1445.04267,200.152667 1443.694,201.019667 1442.13,201.643 C1440.566,202.266333 1438.84333,202.589333 1436.962,202.612 C1435.10333,202.612 1433.39767,202.311667 1431.845,201.711 C1430.29233,201.110333 1428.955,200.260333 1427.833,199.161 C1426.711,198.061667 1425.83267,196.741333 1425.198,195.2 C1424.56333,193.658667 1424.246,191.947333 1424.246,190.066 Z M1428.734,189.794 C1428.734,191.086 1428.93233,192.276 1429.329,193.364 C1429.72567,194.452 1430.28667,195.392667 1431.012,196.186 C1431.73733,196.979333 1432.60433,197.602667 1433.613,198.056 C1434.62167,198.509333 1435.74933,198.736 1436.996,198.736 C1438.24267,198.736 1439.376,198.509333 1440.396,198.056 C1441.416,197.602667 1442.28867,196.979333 1443.014,196.186 C1443.73933,195.392667 1444.30033,194.452 1444.697,193.364 C1445.09367,192.276 1445.292,191.086 1445.292,189.794 C1445.292,188.592667 1445.09367,187.470667 1444.697,186.428 C1444.30033,185.385333 1443.73933,184.473 1443.014,183.691 C1442.28867,182.909 1441.416,182.297 1440.396,181.855 C1439.376,181.413 1438.24267,181.192 1436.996,181.192 C1435.74933,181.192 1434.62167,181.413 1433.613,181.855 C1432.60433,182.297 1431.73733,182.909 1431.012,183.691 C1430.28667,184.473 1429.72567,185.385333 1429.329,186.428 C1428.93233,187.470667 1428.734,188.592667 1428.734,189.794 Z M1453.86,177.928 L1462.224,177.928 C1463.38,177.928 1464.49633,178.035667 1465.573,178.251 C1466.64967,178.466333 1467.60733,178.834667 1468.446,179.356 C1469.28467,179.877333 1469.95333,180.58 1470.452,181.464 C1470.95067,182.348 1471.2,183.47 1471.2,184.83 C1471.2,186.575333 1470.71833,188.037333 1469.755,189.216 C1468.79167,190.394667 1467.41467,191.108667 1465.624,191.358 L1472.016,202 L1466.848,202 L1461.272,191.8 L1458.144,191.8 L1458.144,202 L1453.86,202 L1453.86,177.928 Z M1461.476,188.128 C1462.088,188.128 1462.7,188.099667 1463.312,188.043 C1463.924,187.986333 1464.485,187.850333 1464.995,187.635 C1465.505,187.419667 1465.91867,187.091 1466.236,186.649 C1466.55333,186.207 1466.712,185.589333 1466.712,184.796 C1466.712,184.093333 1466.56467,183.526667 1466.27,183.096 C1465.97533,182.665333 1465.59,182.342333 1465.114,182.127 C1464.638,181.911667 1464.111,181.77 1463.533,181.702 C1462.955,181.634 1462.394,181.6 1461.85,181.6 L1458.144,181.6 L1458.144,188.128 L1461.476,188.128 Z M1485.446,177.928 L1491.974,177.928 L1498.4,194.792 L1504.894,177.928 L1511.354,177.928 L1511.354,202 L1507.274,202 L1507.274,182.008 L1507.206,182.008 L1499.896,202 L1496.904,202 L1489.594,182.008 L1489.526,182.008 L1489.526,202 L1485.446,202 L1485.446,177.928 Z M1516.726,177.928 L1521.01,177.928 L1521.01,202 L1516.726,202 L1516.726,177.928 Z M1526.28,177.928 L1530.564,177.928 L1530.564,198.124 L1540.798,198.124 L1540.798,202 L1526.28,202 L1526.28,177.928 Z M1543.926,177.928 L1548.21,177.928 L1548.21,198.124 L1558.444,198.124 L1558.444,202 L1543.926,202 L1543.926,177.928 Z M1561.47,177.928 L1565.754,177.928 L1565.754,202 L1561.47,202 L1561.47,177.928 Z M1569.732,190.066 C1569.732,188.139333 1570.04933,186.388333 1570.684,184.813 C1571.31867,183.237667 1572.197,181.894667 1573.319,180.784 C1574.441,179.673333 1575.77833,178.817667 1577.331,178.217 C1578.88367,177.616333 1580.58933,177.316 1582.448,177.316 C1584.32933,177.293333 1586.052,177.571 1587.616,178.149 C1589.18,178.727 1590.52867,179.571333 1591.662,180.682 C1592.79533,181.792667 1593.67933,183.13 1594.314,184.694 C1594.94867,186.258 1595.266,188.003333 1595.266,189.93 C1595.266,191.811333 1594.94867,193.522667 1594.314,195.064 C1593.67933,196.605333 1592.79533,197.931333 1591.662,199.042 C1590.52867,200.152667 1589.18,201.019667 1587.616,201.643 C1586.052,202.266333 1584.32933,202.589333 1582.448,202.612 C1580.58933,202.612 1578.88367,202.311667 1577.331,201.711 C1575.77833,201.110333 1574.441,200.260333 1573.319,199.161 C1572.197,198.061667 1571.31867,196.741333 1570.684,195.2 C1570.04933,193.658667 1569.732,191.947333 1569.732,190.066 Z M1574.22,189.794 C1574.22,191.086 1574.41833,192.276 1574.815,193.364 C1575.21167,194.452 1575.77267,195.392667 1576.498,196.186 C1577.22333,196.979333 1578.09033,197.602667 1579.099,198.056 C1580.10767,198.509333 1581.23533,198.736 1582.482,198.736 C1583.72867,198.736 1584.862,198.509333 1585.882,198.056 C1586.902,197.602667 1587.77467,196.979333 1588.5,196.186 C1589.22533,195.392667 1589.78633,194.452 1590.183,193.364 C1590.57967,192.276 1590.778,191.086 1590.778,189.794 C1590.778,188.592667 1590.57967,187.470667 1590.183,186.428 C1589.78633,185.385333 1589.22533,184.473 1588.5,183.691 C1587.77467,182.909 1586.902,182.297 1585.882,181.855 C1584.862,181.413 1583.72867,181.192 1582.482,181.192 C1581.23533,181.192 1580.10767,181.413 1579.099,181.855 C1578.09033,182.297 1577.22333,182.909 1576.498,183.691 C1575.77267,184.473 1575.21167,185.385333 1574.815,186.428 C1574.41833,187.470667 1574.22,188.592667 1574.22,189.794 Z M1599.346,177.928 L1605.024,177.928 L1616.686,195.812 L1616.754,195.812 L1616.754,177.928 L1621.038,177.928 L1621.038,202 L1615.598,202 L1603.698,183.538 L1603.63,183.538 L1603.63,202 L1599.346,202 L1599.346,177.928 Z M1638.208,183.096 C1637.75467,182.438667 1637.14833,181.957 1636.389,181.651 C1635.62967,181.345 1634.83067,181.192 1633.992,181.192 C1633.49333,181.192 1633.01167,181.248667 1632.547,181.362 C1632.08233,181.475333 1631.663,181.656667 1631.289,181.906 C1630.915,182.155333 1630.61467,182.478333 1630.388,182.875 C1630.16133,183.271667 1630.048,183.742 1630.048,184.286 C1630.048,185.102 1630.33133,185.725333 1630.898,186.156 C1631.46467,186.586667 1632.16733,186.960667 1633.006,187.278 C1633.84467,187.595333 1634.76267,187.901333 1635.76,188.196 C1636.75733,188.490667 1637.67533,188.898667 1638.514,189.42 C1639.35267,189.941333 1640.05533,190.632667 1640.622,191.494 C1641.18867,192.355333 1641.472,193.5 1641.472,194.928 C1641.472,196.22 1641.234,197.347667 1640.758,198.311 C1640.282,199.274333 1639.64167,200.073333 1638.837,200.708 C1638.03233,201.342667 1637.09733,201.818667 1636.032,202.136 C1634.96667,202.453333 1633.84467,202.612 1632.666,202.612 C1631.17,202.612 1629.73067,202.362667 1628.348,201.864 C1626.96533,201.365333 1625.77533,200.526667 1624.778,199.348 L1628.008,196.22 C1628.52933,197.013333 1629.215,197.631 1630.065,198.073 C1630.915,198.515 1631.816,198.736 1632.768,198.736 C1633.26667,198.736 1633.76533,198.668 1634.264,198.532 C1634.76267,198.396 1635.216,198.192 1635.624,197.92 C1636.032,197.648 1636.36067,197.302333 1636.61,196.883 C1636.85933,196.463667 1636.984,195.982 1636.984,195.438 C1636.984,194.554 1636.70067,193.874 1636.134,193.398 C1635.56733,192.922 1634.86467,192.519667 1634.026,192.191 C1633.18733,191.862333 1632.26933,191.550667 1631.272,191.256 C1630.27467,190.961333 1629.35667,190.559 1628.518,190.049 C1627.67933,189.539 1626.97667,188.859 1626.41,188.009 C1625.84333,187.159 1625.56,186.02 1625.56,184.592 C1625.56,183.345333 1625.815,182.268667 1626.325,181.362 C1626.835,180.455333 1627.50367,179.701667 1628.331,179.101 C1629.15833,178.500333 1630.10467,178.052667 1631.17,177.758 C1632.23533,177.463333 1633.32333,177.316 1634.434,177.316 C1635.70333,177.316 1636.933,177.508667 1638.123,177.894 C1639.313,178.279333 1640.384,178.914 1641.336,179.798 L1638.208,183.096 Z M1654.698,190.066 C1654.698,188.139333 1655.01533,186.388333 1655.65,184.813 C1656.28467,183.237667 1657.163,181.894667 1658.285,180.784 C1659.407,179.673333 1660.74433,178.817667 1662.297,178.217 C1663.84967,177.616333 1665.55533,177.316 1667.414,177.316 C1669.29533,177.293333 1671.018,177.571 1672.582,178.149 C1674.146,178.727 1675.49467,179.571333 1676.628,180.682 C1677.76133,181.792667 1678.64533,183.13 1679.28,184.694 C1679.91467,186.258 1680.232,188.003333 1680.232,189.93 C1680.232,191.811333 1679.91467,193.522667 1679.28,195.064 C1678.64533,196.605333 1677.76133,197.931333 1676.628,199.042 C1675.49467,200.152667 1674.146,201.019667 1672.582,201.643 C1671.018,202.266333 1669.29533,202.589333 1667.414,202.612 C1665.55533,202.612 1663.84967,202.311667 1662.297,201.711 C1660.74433,201.110333 1659.407,200.260333 1658.285,199.161 C1657.163,198.061667 1656.28467,196.741333 1655.65,195.2 C1655.01533,193.658667 1654.698,191.947333 1654.698,190.066 Z M1659.186,189.794 C1659.186,191.086 1659.38433,192.276 1659.781,193.364 C1660.17767,194.452 1660.73867,195.392667 1661.464,196.186 C1662.18933,196.979333 1663.05633,197.602667 1664.065,198.056 C1665.07367,198.509333 1666.20133,198.736 1667.448,198.736 C1668.69467,198.736 1669.828,198.509333 1670.848,198.056 C1671.868,197.602667 1672.74067,196.979333 1673.466,196.186 C1674.19133,195.392667 1674.75233,194.452 1675.149,193.364 C1675.54567,192.276 1675.744,191.086 1675.744,189.794 C1675.744,188.592667 1675.54567,187.470667 1675.149,186.428 C1674.75233,185.385333 1674.19133,184.473 1673.466,183.691 C1672.74067,182.909 1671.868,182.297 1670.848,181.855 C1669.828,181.413 1668.69467,181.192 1667.448,181.192 C1666.20133,181.192 1665.07367,181.413 1664.065,181.855 C1663.05633,182.297 1662.18933,182.909 1661.464,183.691 C1660.73867,184.473 1660.17767,185.385333 1659.781,186.428 C1659.38433,187.470667 1659.186,188.592667 1659.186,189.794 Z M1684.312,177.928 L1699.85,177.928 L1699.85,181.804 L1688.596,181.804 L1688.596,188.128 L1699.204,188.128 L1699.204,192.004 L1688.596,192.004 L1688.596,202 L1684.312,202 L1684.312,177.928 Z M1733.17,193.16 C1733.17,194.610667 1732.92067,195.919667 1732.422,197.087 C1731.92333,198.254333 1731.24333,199.246 1730.382,200.062 C1729.52067,200.878 1728.50067,201.507 1727.322,201.949 C1726.14333,202.391 1724.86267,202.612 1723.48,202.612 C1722.09733,202.612 1720.81667,202.391 1719.638,201.949 C1718.45933,201.507 1717.43367,200.878 1716.561,200.062 C1715.68833,199.246 1715.00833,198.254333 1714.521,197.087 C1714.03367,195.919667 1713.79,194.610667 1713.79,193.16 L1713.79,177.928 L1718.074,177.928 L1718.074,193.024 C1718.074,193.613333 1718.16467,194.231 1718.346,194.877 C1718.52733,195.523 1718.82767,196.118 1719.247,196.662 C1719.66633,197.206 1720.22167,197.653667 1720.913,198.005 C1721.60433,198.356333 1722.46,198.532 1723.48,198.532 C1724.5,198.532 1725.35567,198.356333 1726.047,198.005 C1726.73833,197.653667 1727.29367,197.206 1727.713,196.662 C1728.13233,196.118 1728.43267,195.523 1728.614,194.877 C1728.79533,194.231 1728.886,193.613333 1728.886,193.024 L1728.886,177.928 L1733.17,177.928 L1733.17,193.16 Z M1750.238,183.096 C1749.78467,182.438667 1749.17833,181.957 1748.419,181.651 C1747.65967,181.345 1746.86067,181.192 1746.022,181.192 C1745.52333,181.192 1745.04167,181.248667 1744.577,181.362 C1744.11233,181.475333 1743.693,181.656667 1743.319,181.906 C1742.945,182.155333 1742.64467,182.478333 1742.418,182.875 C1742.19133,183.271667 1742.078,183.742 1742.078,184.286 C1742.078,185.102 1742.36133,185.725333 1742.928,186.156 C1743.49467,186.586667 1744.19733,186.960667 1745.036,187.278 C1745.87467,187.595333 1746.79267,187.901333 1747.79,188.196 C1748.78733,188.490667 1749.70533,188.898667 1750.544,189.42 C1751.38267,189.941333 1752.08533,190.632667 1752.652,191.494 C1753.21867,192.355333 1753.502,193.5 1753.502,194.928 C1753.502,196.22 1753.264,197.347667 1752.788,198.311 C1752.312,199.274333 1751.67167,200.073333 1750.867,200.708 C1750.06233,201.342667 1749.12733,201.818667 1748.062,202.136 C1746.99667,202.453333 1745.87467,202.612 1744.696,202.612 C1743.2,202.612 1741.76067,202.362667 1740.378,201.864 C1738.99533,201.365333 1737.80533,200.526667 1736.808,199.348 L1740.038,196.22 C1740.55933,197.013333 1741.245,197.631 1742.095,198.073 C1742.945,198.515 1743.846,198.736 1744.798,198.736 C1745.29667,198.736 1745.79533,198.668 1746.294,198.532 C1746.79267,198.396 1747.246,198.192 1747.654,197.92 C1748.062,197.648 1748.39067,197.302333 1748.64,196.883 C1748.88933,196.463667 1749.014,195.982 1749.014,195.438 C1749.014,194.554 1748.73067,193.874 1748.164,193.398 C1747.59733,192.922 1746.89467,192.519667 1746.056,192.191 C1745.21733,191.862333 1744.29933,191.550667 1743.302,191.256 C1742.30467,190.961333 1741.38667,190.559 1740.548,190.049 C1739.70933,189.539 1739.00667,188.859 1738.44,188.009 C1737.87333,187.159 1737.59,186.02 1737.59,184.592 C1737.59,183.345333 1737.845,182.268667 1738.355,181.362 C1738.865,180.455333 1739.53367,179.701667 1740.361,179.101 C1741.18833,178.500333 1742.13467,178.052667 1743.2,177.758 C1744.26533,177.463333 1745.35333,177.316 1746.464,177.316 C1747.73333,177.316 1748.963,177.508667 1750.153,177.894 C1751.343,178.279333 1752.414,178.914 1753.366,179.798 L1750.238,183.096 Z M1757.956,177.928 L1773.902,177.928 L1773.902,181.804 L1762.24,181.804 L1762.24,187.72 L1773.29,187.72 L1773.29,191.596 L1762.24,191.596 L1762.24,198.124 L1774.514,198.124 L1774.514,202 L1757.956,202 L1757.956,177.928 Z M1778.73,177.928 L1787.094,177.928 C1788.25,177.928 1789.36633,178.035667 1790.443,178.251 C1791.51967,178.466333 1792.47733,178.834667 1793.316,179.356 C1794.15467,179.877333 1794.82333,180.58 1795.322,181.464 C1795.82067,182.348 1796.07,183.47 1796.07,184.83 C1796.07,186.575333 1795.58833,188.037333 1794.625,189.216 C1793.66167,190.394667 1792.28467,191.108667 1790.494,191.358 L1796.886,202 L1791.718,202 L1786.142,191.8 L1783.014,191.8 L1783.014,202 L1778.73,202 L1778.73,177.928 Z M1786.346,188.128 C1786.958,188.128 1787.57,188.099667 1788.182,188.043 C1788.794,187.986333 1789.355,187.850333 1789.865,187.635 C1790.375,187.419667 1790.78867,187.091 1791.106,186.649 C1791.42333,186.207 1791.582,185.589333 1791.582,184.796 C1791.582,184.093333 1791.43467,183.526667 1791.14,183.096 C1790.84533,182.665333 1790.46,182.342333 1789.984,182.127 C1789.508,181.911667 1788.981,181.77 1788.403,181.702 C1787.825,181.634 1787.264,181.6 1786.72,181.6 L1783.014,181.6 L1783.014,188.128 L1786.346,188.128 Z M1811.948,183.096 C1811.49467,182.438667 1810.88833,181.957 1810.129,181.651 C1809.36967,181.345 1808.57067,181.192 1807.732,181.192 C1807.23333,181.192 1806.75167,181.248667 1806.287,181.362 C1805.82233,181.475333 1805.403,181.656667 1805.029,181.906 C1804.655,182.155333 1804.35467,182.478333 1804.128,182.875 C1803.90133,183.271667 1803.788,183.742 1803.788,184.286 C1803.788,185.102 1804.07133,185.725333 1804.638,186.156 C1805.20467,186.586667 1805.90733,186.960667 1806.746,187.278 C1807.58467,187.595333 1808.50267,187.901333 1809.5,188.196 C1810.49733,188.490667 1811.41533,188.898667 1812.254,189.42 C1813.09267,189.941333 1813.79533,190.632667 1814.362,191.494 C1814.92867,192.355333 1815.212,193.5 1815.212,194.928 C1815.212,196.22 1814.974,197.347667 1814.498,198.311 C1814.022,199.274333 1813.38167,200.073333 1812.577,200.708 C1811.77233,201.342667 1810.83733,201.818667 1809.772,202.136 C1808.70667,202.453333 1807.58467,202.612 1806.406,202.612 C1804.91,202.612 1803.47067,202.362667 1802.088,201.864 C1800.70533,201.365333 1799.51533,200.526667 1798.518,199.348 L1801.748,196.22 C1802.26933,197.013333 1802.955,197.631 1803.805,198.073 C1804.655,198.515 1805.556,198.736 1806.508,198.736 C1807.00667,198.736 1807.50533,198.668 1808.004,198.532 C1808.50267,198.396 1808.956,198.192 1809.364,197.92 C1809.772,197.648 1810.10067,197.302333 1810.35,196.883 C1810.59933,196.463667 1810.724,195.982 1810.724,195.438 C1810.724,194.554 1810.44067,193.874 1809.874,193.398 C1809.30733,192.922 1808.60467,192.519667 1807.766,192.191 C1806.92733,191.862333 1806.00933,191.550667 1805.012,191.256 C1804.01467,190.961333 1803.09667,190.559 1802.258,190.049 C1801.41933,189.539 1800.71667,188.859 1800.15,188.009 C1799.58333,187.159 1799.3,186.02 1799.3,184.592 C1799.3,183.345333 1799.555,182.268667 1800.065,181.362 C1800.575,180.455333 1801.24367,179.701667 1802.071,179.101 C1802.89833,178.500333 1803.84467,178.052667 1804.91,177.758 C1805.97533,177.463333 1807.06333,177.316 1808.174,177.316 C1809.44333,177.316 1810.673,177.508667 1811.863,177.894 C1813.053,178.279333 1814.124,178.914 1815.076,179.798 L1811.948,183.096 Z" id="形状结合"></path>
        </g>
    </g>
</svg>