<?xml version="1.0" encoding="UTF-8"?>
<svg width="1768px" height="243px" viewBox="0 0 1768 243" version="1.1" xmlns="http://www.w3.org/2000/svg" xmlns:xlink="http://www.w3.org/1999/xlink">
    <title>形状结合</title>
    <g id="页面-1" stroke="none" stroke-width="1" fill="none" fill-rule="evenodd">
        <g id="首页" transform="translate(-76.000000, -67.000000)" fill="#86EE1E">
            <path d="M1838,67 C1841.31371,67 1844,69.6862915 1844,73 L1844,304 C1844,307.313708 1841.31371,310 1838,310 L82,310 C78.6862915,310 76,307.313708 76,304 L76,73 C76,69.6862915 78.6862915,67 82,67 L1838,67 Z M837.556,276.308 L833.408,276.308 L831.028,285.284 L834.666,285.284 L837.556,276.308 Z M1441.11503,256.31659 L1440.648,256.316 C1438.78933,256.316 1437.08367,256.616333 1435.531,257.217 C1433.97833,257.817667 1432.641,258.673333 1431.519,259.784 C1430.397,260.894667 1429.51867,262.237667 1428.884,263.813 C1428.24933,265.388333 1427.932,267.139333 1427.932,269.066 C1427.932,270.947333 1428.24933,272.658667 1428.884,274.2 C1429.51867,275.741333 1430.397,277.061667 1431.519,278.161 C1432.641,279.260333 1433.97833,280.110333 1435.531,280.711 C1437.08367,281.311667 1438.78933,281.612 1440.648,281.612 C1442.52933,281.589333 1444.252,281.266333 1445.816,280.643 C1447.38,280.019667 1448.72867,279.152667 1449.862,278.042 C1450.99533,276.931333 1451.87933,275.605333 1452.514,274.064 C1453.14867,272.522667 1453.466,270.811333 1453.466,268.93 C1453.466,267.003333 1453.14867,265.258 1452.514,263.694 C1451.87933,262.13 1450.99533,260.792667 1449.862,259.682 C1448.72867,258.571333 1447.38,257.727 1445.816,257.149 C1444.252,256.571 1442.52933,256.293333 1440.648,256.316 Z M1316.956,256.928 L1312.672,256.928 L1312.672,272.16 C1312.672,273.610667 1312.91567,274.919667 1313.403,276.087 C1313.89033,277.254333 1314.57033,278.246 1315.443,279.062 C1316.31567,279.878 1317.34133,280.507 1318.52,280.949 C1319.69867,281.391 1320.97933,281.612 1322.362,281.612 C1323.74467,281.612 1325.02533,281.391 1326.204,280.949 C1327.38267,280.507 1328.40267,279.878 1329.264,279.062 C1330.12533,278.246 1330.80533,277.254333 1331.304,276.087 C1331.80267,274.919667 1332.052,273.610667 1332.052,272.16 L1332.052,272.16 L1332.052,256.928 L1327.768,256.928 L1327.768,272.024 C1327.768,272.613333 1327.67733,273.231 1327.496,273.877 C1327.31467,274.523 1327.01433,275.118 1326.595,275.662 C1326.17567,276.206 1325.62033,276.653667 1324.929,277.005 C1324.23767,277.356333 1323.382,277.532 1322.362,277.532 C1321.342,277.532 1320.48633,277.356333 1319.795,277.005 C1319.10367,276.653667 1318.54833,276.206 1318.129,275.662 C1317.70967,275.118 1317.40933,274.523 1317.228,273.877 C1317.04667,273.231 1316.956,272.613333 1316.956,272.024 L1316.956,272.024 L1316.956,256.928 Z M1270.53703,256.31659 L1270.07,256.316 C1268.21133,256.316 1266.50567,256.616333 1264.953,257.217 C1263.40033,257.817667 1262.063,258.673333 1260.941,259.784 C1259.819,260.894667 1258.94067,262.237667 1258.306,263.813 C1257.67133,265.388333 1257.354,267.139333 1257.354,269.066 C1257.354,270.947333 1257.67133,272.658667 1258.306,274.2 C1258.94067,275.741333 1259.819,277.061667 1260.941,278.161 C1262.063,279.260333 1263.40033,280.110333 1264.953,280.711 C1266.50567,281.311667 1268.21133,281.612 1270.07,281.612 C1271.95133,281.589333 1273.674,281.266333 1275.238,280.643 C1276.802,280.019667 1278.15067,279.152667 1279.284,278.042 C1280.41733,276.931333 1281.30133,275.605333 1281.936,274.064 C1282.57067,272.522667 1282.888,270.811333 1282.888,268.93 C1282.888,267.003333 1282.57067,265.258 1281.936,263.694 C1281.30133,262.13 1280.41733,260.792667 1279.284,259.682 C1278.15067,258.571333 1276.802,257.727 1275.238,257.149 C1273.674,256.571 1271.95133,256.293333 1270.07,256.316 Z M136.093028,256.31659 L135.626,256.316 C133.767333,256.316 132.061667,256.616333 130.509,257.217 C128.956333,257.817667 127.619,258.673333 126.497,259.784 C125.375,260.894667 124.496667,262.237667 123.862,263.813 C123.227333,265.388333 122.91,267.139333 122.91,269.066 C122.91,270.947333 123.227333,272.658667 123.862,274.2 C124.496667,275.741333 125.375,277.061667 126.497,278.161 C127.619,279.260333 128.956333,280.110333 130.509,280.711 C132.061667,281.311667 133.767333,281.612 135.626,281.612 C137.507333,281.589333 139.23,281.266333 140.794,280.643 C142.358,280.019667 143.706667,279.152667 144.84,278.042 C145.973333,276.931333 146.857333,275.605333 147.492,274.064 C148.126667,272.522667 148.444,270.811333 148.444,268.93 C148.444,267.003333 148.126667,265.258 147.492,263.694 C146.857333,262.13 145.973333,260.792667 144.84,259.682 C143.706667,258.571333 142.358,257.727 140.794,257.149 C139.23,256.571 137.507333,256.293333 135.626,256.316 Z M1811.86,256.316 C1810.74933,256.316 1809.66133,256.463333 1808.596,256.758 C1807.53067,257.052667 1806.58433,257.500333 1805.757,258.101 C1804.92967,258.701667 1804.261,259.455333 1803.751,260.362 C1803.241,261.268667 1802.986,262.345333 1802.986,263.592 C1802.986,265.02 1803.26933,266.159 1803.836,267.009 C1804.40267,267.859 1805.10533,268.539 1805.944,269.049 C1806.78267,269.559 1807.70067,269.961333 1808.698,270.256 C1809.69533,270.550667 1810.61333,270.862333 1811.452,271.191 C1812.29067,271.519667 1812.99333,271.922 1813.56,272.398 C1814.12667,272.874 1814.41,273.554 1814.41,274.438 C1814.41,274.982 1814.28533,275.463667 1814.036,275.883 C1813.78667,276.302333 1813.458,276.648 1813.05,276.92 C1812.642,277.192 1812.18867,277.396 1811.69,277.532 C1811.19133,277.668 1810.69267,277.736 1810.194,277.736 C1809.242,277.736 1808.341,277.515 1807.491,277.073 C1806.641,276.631 1805.95533,276.013333 1805.434,275.22 L1805.434,275.22 L1802.204,278.348 C1803.20133,279.526667 1804.39133,280.365333 1805.774,280.864 C1807.15667,281.362667 1808.596,281.612 1810.092,281.612 C1811.27067,281.612 1812.39267,281.453333 1813.458,281.136 C1814.52333,280.818667 1815.45833,280.342667 1816.263,279.708 C1817.06767,279.073333 1817.708,278.274333 1818.184,277.311 C1818.66,276.347667 1818.898,275.22 1818.898,273.928 C1818.898,272.5 1818.61467,271.355333 1818.048,270.494 C1817.48133,269.632667 1816.77867,268.941333 1815.94,268.42 C1815.10133,267.898667 1814.18333,267.490667 1813.186,267.196 C1812.18867,266.901333 1811.27067,266.595333 1810.432,266.278 C1809.59333,265.960667 1808.89067,265.586667 1808.324,265.156 C1807.75733,264.725333 1807.474,264.102 1807.474,263.286 C1807.474,262.742 1807.58733,262.271667 1807.814,261.875 C1808.04067,261.478333 1808.341,261.155333 1808.715,260.906 C1809.089,260.656667 1809.50833,260.475333 1809.973,260.362 C1810.43767,260.248667 1810.91933,260.192 1811.418,260.192 C1812.25667,260.192 1813.05567,260.345 1813.815,260.651 C1814.57433,260.957 1815.18067,261.438667 1815.634,262.096 L1815.634,262.096 L1818.762,258.798 C1817.81,257.914 1816.739,257.279333 1815.549,256.894 C1814.359,256.508667 1813.12933,256.316 1811.86,256.316 Z M156.706,256.928 L152.422,256.928 L152.422,272.16 C152.422,273.610667 152.665667,274.919667 153.153,276.087 C153.640333,277.254333 154.320333,278.246 155.193,279.062 C156.065667,279.878 157.091333,280.507 158.27,280.949 C159.448667,281.391 160.729333,281.612 162.112,281.612 C163.494667,281.612 164.775333,281.391 165.954,280.949 C167.132667,280.507 168.152667,279.878 169.014,279.062 C169.875333,278.246 170.555333,277.254333 171.054,276.087 C171.552667,274.919667 171.802,273.610667 171.802,272.16 L171.802,272.16 L171.802,256.928 L167.518,256.928 L167.518,272.024 C167.518,272.613333 167.427333,273.231 167.246,273.877 C167.064667,274.523 166.764333,275.118 166.345,275.662 C165.925667,276.206 165.370333,276.653667 164.679,277.005 C163.987667,277.356333 163.132,277.532 162.112,277.532 C161.092,277.532 160.236333,277.356333 159.545,277.005 C158.853667,276.653667 158.298333,276.206 157.879,275.662 C157.459667,275.118 157.159333,274.523 156.978,273.877 C156.796667,273.231 156.706,272.613333 156.706,272.024 L156.706,272.024 L156.706,256.928 Z M1586.60103,256.31659 L1586.134,256.316 C1584.27533,256.316 1582.56967,256.616333 1581.017,257.217 C1579.46433,257.817667 1578.127,258.673333 1577.005,259.784 C1575.883,260.894667 1575.00467,262.237667 1574.37,263.813 C1573.73533,265.388333 1573.418,267.139333 1573.418,269.066 C1573.418,270.947333 1573.73533,272.658667 1574.37,274.2 C1575.00467,275.741333 1575.883,277.061667 1577.005,278.161 C1578.127,279.260333 1579.46433,280.110333 1581.017,280.711 C1582.56967,281.311667 1584.27533,281.612 1586.134,281.612 C1588.01533,281.589333 1589.738,281.266333 1591.302,280.643 C1592.866,280.019667 1594.21467,279.152667 1595.348,278.042 C1596.48133,276.931333 1597.36533,275.605333 1598,274.064 C1598.63467,272.522667 1598.952,270.811333 1598.952,268.93 C1598.952,267.003333 1598.63467,265.258 1598,263.694 C1597.36533,262.13 1596.48133,260.792667 1595.348,259.682 C1594.21467,258.571333 1592.866,257.727 1591.302,257.149 C1589.738,256.571 1588.01533,256.293333 1586.134,256.316 Z M304.742,256.316 C303.631333,256.316 302.543333,256.463333 301.478,256.758 C300.412667,257.052667 299.466333,257.500333 298.639,258.101 C297.811667,258.701667 297.143,259.455333 296.633,260.362 C296.123,261.268667 295.868,262.345333 295.868,263.592 C295.868,265.02 296.151333,266.159 296.718,267.009 C297.284667,267.859 297.987333,268.539 298.826,269.049 C299.664667,269.559 300.582667,269.961333 301.58,270.256 C302.577333,270.550667 303.495333,270.862333 304.334,271.191 C305.172667,271.519667 305.875333,271.922 306.442,272.398 C307.008667,272.874 307.292,273.554 307.292,274.438 C307.292,274.982 307.167333,275.463667 306.918,275.883 C306.668667,276.302333 306.34,276.648 305.932,276.92 C305.524,277.192 305.070667,277.396 304.572,277.532 C304.073333,277.668 303.574667,277.736 303.076,277.736 C302.124,277.736 301.223,277.515 300.373,277.073 C299.523,276.631 298.837333,276.013333 298.316,275.22 L298.316,275.22 L295.086,278.348 C296.083333,279.526667 297.273333,280.365333 298.656,280.864 C300.038667,281.362667 301.478,281.612 302.974,281.612 C304.152667,281.612 305.274667,281.453333 306.34,281.136 C307.405333,280.818667 308.340333,280.342667 309.145,279.708 C309.949667,279.073333 310.59,278.274333 311.066,277.311 C311.542,276.347667 311.78,275.22 311.78,273.928 C311.78,272.5 311.496667,271.355333 310.93,270.494 C310.363333,269.632667 309.660667,268.941333 308.822,268.42 C307.983333,267.898667 307.065333,267.490667 306.068,267.196 C305.070667,266.901333 304.152667,266.595333 303.314,266.278 C302.475333,265.960667 301.772667,265.586667 301.206,265.156 C300.639333,264.725333 300.356,264.102 300.356,263.286 C300.356,262.742 300.469333,262.271667 300.696,261.875 C300.922667,261.478333 301.223,261.155333 301.597,260.906 C301.971,260.656667 302.390333,260.475333 302.855,260.362 C303.319667,260.248667 303.801333,260.192 304.3,260.192 C305.138667,260.192 305.937667,260.345 306.697,260.651 C307.456333,260.957 308.062667,261.438667 308.516,262.096 L308.516,262.096 L311.644,258.798 C310.692,257.914 309.621,257.279333 308.431,256.894 C307.241,256.508667 306.011333,256.316 304.742,256.316 Z M1142.876,256.316 C1141.01733,256.316 1139.31167,256.616333 1137.759,257.217 C1136.20633,257.817667 1134.869,258.673333 1133.747,259.784 C1132.625,260.894667 1131.74667,262.237667 1131.112,263.813 C1130.47733,265.388333 1130.16,267.139333 1130.16,269.066 C1130.16,270.947333 1130.47733,272.658667 1131.112,274.2 C1131.74667,275.741333 1132.625,277.061667 1133.747,278.161 C1134.869,279.260333 1136.20633,280.110333 1137.759,280.711 C1139.31167,281.311667 1141.01733,281.612 1142.876,281.612 C1144.644,281.612 1146.31,281.272 1147.874,280.592 C1149.438,279.912 1150.764,278.824 1151.852,277.328 L1151.852,277.328 L1148.316,274.812 C1147.52267,275.832 1146.667,276.574333 1145.749,277.039 C1144.831,277.503667 1143.88467,277.736 1142.91,277.736 C1141.66333,277.736 1140.53567,277.509333 1139.527,277.056 C1138.51833,276.602667 1137.65133,275.979333 1136.926,275.186 C1136.20067,274.392667 1135.63967,273.452 1135.243,272.364 C1134.84633,271.276 1134.648,270.086 1134.648,268.794 C1134.648,267.592667 1134.84633,266.470667 1135.243,265.428 C1135.63967,264.385333 1136.20067,263.473 1136.926,262.691 C1137.65133,261.909 1138.51833,261.297 1139.527,260.855 C1140.53567,260.413 1141.66333,260.192 1142.91,260.192 C1143.74867,260.192 1144.58167,260.350667 1145.409,260.668 C1146.23633,260.985333 1147.092,261.62 1147.976,262.572 L1147.976,262.572 L1151.308,260.124 C1150.10667,258.741333 1148.809,257.761 1147.415,257.183 C1146.021,256.605 1144.508,256.316 1142.876,256.316 Z M1115.02103,256.31659 L1114.554,256.316 C1112.69533,256.316 1110.98967,256.616333 1109.437,257.217 C1107.88433,257.817667 1106.547,258.673333 1105.425,259.784 C1104.303,260.894667 1103.42467,262.237667 1102.79,263.813 C1102.15533,265.388333 1101.838,267.139333 1101.838,269.066 C1101.838,270.947333 1102.15533,272.658667 1102.79,274.2 C1103.42467,275.741333 1104.303,277.061667 1105.425,278.161 C1106.547,279.260333 1107.88433,280.110333 1109.437,280.711 C1110.98967,281.311667 1112.69533,281.612 1114.554,281.612 C1116.43533,281.589333 1118.158,281.266333 1119.722,280.643 C1121.286,280.019667 1122.63467,279.152667 1123.768,278.042 C1124.90133,276.931333 1125.78533,275.605333 1126.42,274.064 C1127.05467,272.522667 1127.372,270.811333 1127.372,268.93 C1127.372,267.003333 1127.05467,265.258 1126.42,263.694 C1125.78533,262.13 1124.90133,260.792667 1123.768,259.682 C1122.63467,258.571333 1121.286,257.727 1119.722,257.149 C1118.158,256.571 1116.43533,256.293333 1114.554,256.316 Z M338.189028,256.31659 L337.722,256.316 C335.863333,256.316 334.157667,256.616333 332.605,257.217 C331.052333,257.817667 329.715,258.673333 328.593,259.784 C327.471,260.894667 326.592667,262.237667 325.958,263.813 C325.323333,265.388333 325.006,267.139333 325.006,269.066 C325.006,270.947333 325.323333,272.658667 325.958,274.2 C326.592667,275.741333 327.471,277.061667 328.593,278.161 C329.715,279.260333 331.052333,280.110333 332.605,280.711 C334.157667,281.311667 335.863333,281.612 337.722,281.612 C339.603333,281.589333 341.326,281.266333 342.89,280.643 C344.454,280.019667 345.802667,279.152667 346.936,278.042 C348.069333,276.931333 348.953333,275.605333 349.588,274.064 C350.222667,272.522667 350.54,270.811333 350.54,268.93 C350.54,267.003333 350.222667,265.258 349.588,263.694 C348.953333,262.13 348.069333,260.792667 346.936,259.682 C345.802667,258.571333 344.454,257.727 342.89,257.149 C341.326,256.571 339.603333,256.293333 337.722,256.316 Z M1091.638,256.316 C1090.52733,256.316 1089.43933,256.463333 1088.374,256.758 C1087.30867,257.052667 1086.36233,257.500333 1085.535,258.101 C1084.70767,258.701667 1084.039,259.455333 1083.529,260.362 C1083.019,261.268667 1082.764,262.345333 1082.764,263.592 C1082.764,265.02 1083.04733,266.159 1083.614,267.009 C1084.18067,267.859 1084.88333,268.539 1085.722,269.049 C1086.56067,269.559 1087.47867,269.961333 1088.476,270.256 C1089.47333,270.550667 1090.39133,270.862333 1091.23,271.191 C1092.06867,271.519667 1092.77133,271.922 1093.338,272.398 C1093.90467,272.874 1094.188,273.554 1094.188,274.438 C1094.188,274.982 1094.06333,275.463667 1093.814,275.883 C1093.56467,276.302333 1093.236,276.648 1092.828,276.92 C1092.42,277.192 1091.96667,277.396 1091.468,277.532 C1090.96933,277.668 1090.47067,277.736 1089.972,277.736 C1089.02,277.736 1088.119,277.515 1087.269,277.073 C1086.419,276.631 1085.73333,276.013333 1085.212,275.22 L1085.212,275.22 L1081.982,278.348 C1082.97933,279.526667 1084.16933,280.365333 1085.552,280.864 C1086.93467,281.362667 1088.374,281.612 1089.87,281.612 C1091.04867,281.612 1092.17067,281.453333 1093.236,281.136 C1094.30133,280.818667 1095.23633,280.342667 1096.041,279.708 C1096.84567,279.073333 1097.486,278.274333 1097.962,277.311 C1098.438,276.347667 1098.676,275.22 1098.676,273.928 C1098.676,272.5 1098.39267,271.355333 1097.826,270.494 C1097.25933,269.632667 1096.55667,268.941333 1095.718,268.42 C1094.87933,267.898667 1093.96133,267.490667 1092.964,267.196 C1091.96667,266.901333 1091.04867,266.595333 1090.21,266.278 C1089.37133,265.960667 1088.66867,265.586667 1088.102,265.156 C1087.53533,264.725333 1087.252,264.102 1087.252,263.286 C1087.252,262.742 1087.36533,262.271667 1087.592,261.875 C1087.81867,261.478333 1088.119,261.155333 1088.493,260.906 C1088.867,260.656667 1089.28633,260.475333 1089.751,260.362 C1090.21567,260.248667 1090.69733,260.192 1091.196,260.192 C1092.03467,260.192 1092.83367,260.345 1093.593,260.651 C1094.35233,260.957 1094.95867,261.438667 1095.412,262.096 L1095.412,262.096 L1098.54,258.798 C1097.588,257.914 1096.517,257.279333 1095.327,256.894 C1094.137,256.508667 1092.90733,256.316 1091.638,256.316 Z M1348.746,256.316 C1346.88733,256.316 1345.18167,256.616333 1343.629,257.217 C1342.07633,257.817667 1340.739,258.673333 1339.617,259.784 C1338.495,260.894667 1337.61667,262.237667 1336.982,263.813 C1336.34733,265.388333 1336.03,267.139333 1336.03,269.066 C1336.03,270.947333 1336.34733,272.658667 1336.982,274.2 C1337.61667,275.741333 1338.495,277.061667 1339.617,278.161 C1340.739,279.260333 1342.07633,280.110333 1343.629,280.711 C1345.18167,281.311667 1346.88733,281.612 1348.746,281.612 C1350.514,281.612 1352.18,281.272 1353.744,280.592 C1355.308,279.912 1356.634,278.824 1357.722,277.328 L1357.722,277.328 L1354.186,274.812 C1353.39267,275.832 1352.537,276.574333 1351.619,277.039 C1350.701,277.503667 1349.75467,277.736 1348.78,277.736 C1347.53333,277.736 1346.40567,277.509333 1345.397,277.056 C1344.38833,276.602667 1343.52133,275.979333 1342.796,275.186 C1342.07067,274.392667 1341.50967,273.452 1341.113,272.364 C1340.71633,271.276 1340.518,270.086 1340.518,268.794 C1340.518,267.592667 1340.71633,266.470667 1341.113,265.428 C1341.50967,264.385333 1342.07067,263.473 1342.796,262.691 C1343.52133,261.909 1344.38833,261.297 1345.397,260.855 C1346.40567,260.413 1347.53333,260.192 1348.78,260.192 C1349.61867,260.192 1350.45167,260.350667 1351.279,260.668 C1352.10633,260.985333 1352.962,261.62 1353.846,262.572 L1353.846,262.572 L1357.178,260.124 C1355.97667,258.741333 1354.679,257.761 1353.285,257.183 C1351.891,256.605 1350.378,256.316 1348.746,256.316 Z M923.635028,256.31659 L923.168,256.316 C921.309333,256.316 919.603667,256.616333 918.051,257.217 C916.498333,257.817667 915.161,258.673333 914.039,259.784 C912.917,260.894667 912.038667,262.237667 911.404,263.813 C910.769333,265.388333 910.452,267.139333 910.452,269.066 C910.452,270.947333 910.769333,272.658667 911.404,274.2 C912.038667,275.741333 912.917,277.061667 914.039,278.161 C915.161,279.260333 916.498333,280.110333 918.051,280.711 C919.603667,281.311667 921.309333,281.612 923.168,281.612 C925.049333,281.589333 926.772,281.266333 928.336,280.643 C929.9,280.019667 931.248667,279.152667 932.382,278.042 C933.515333,276.931333 934.399333,275.605333 935.034,274.064 C935.668667,272.522667 935.986,270.811333 935.986,268.93 C935.986,267.003333 935.668667,265.258 935.034,263.694 C934.399333,262.13 933.515333,260.792667 932.382,259.682 C931.248667,258.571333 929.9,257.727 928.336,257.149 C926.772,256.571 925.049333,256.293333 923.168,256.316 Z M559.946,256.316 C558.087333,256.316 556.381667,256.616333 554.829,257.217 C553.276333,257.817667 551.939,258.673333 550.817,259.784 C549.695,260.894667 548.816667,262.237667 548.182,263.813 C547.547333,265.388333 547.23,267.139333 547.23,269.066 C547.23,270.947333 547.547333,272.658667 548.182,274.2 C548.816667,275.741333 549.695,277.061667 550.817,278.161 C551.939,279.260333 553.276333,280.110333 554.829,280.711 C556.381667,281.311667 558.087333,281.612 559.946,281.612 C561.714,281.612 563.38,281.272 564.944,280.592 C566.508,279.912 567.834,278.824 568.922,277.328 L568.922,277.328 L565.386,274.812 C564.592667,275.832 563.737,276.574333 562.819,277.039 C561.901,277.503667 560.954667,277.736 559.98,277.736 C558.733333,277.736 557.605667,277.509333 556.597,277.056 C555.588333,276.602667 554.721333,275.979333 553.996,275.186 C553.270667,274.392667 552.709667,273.452 552.313,272.364 C551.916333,271.276 551.718,270.086 551.718,268.794 C551.718,267.592667 551.916333,266.470667 552.313,265.428 C552.709667,264.385333 553.270667,263.473 553.996,262.691 C554.721333,261.909 555.588333,261.297 556.597,260.855 C557.605667,260.413 558.733333,260.192 559.98,260.192 C560.818667,260.192 561.651667,260.350667 562.479,260.668 C563.306333,260.985333 564.162,261.62 565.046,262.572 L565.046,262.572 L568.378,260.124 C567.176667,258.741333 565.879,257.761 564.485,257.183 C563.091,256.605 561.578,256.316 559.946,256.316 Z M1750.15,256.316 C1749.03933,256.316 1747.95133,256.463333 1746.886,256.758 C1745.82067,257.052667 1744.87433,257.500333 1744.047,258.101 C1743.21967,258.701667 1742.551,259.455333 1742.041,260.362 C1741.531,261.268667 1741.276,262.345333 1741.276,263.592 C1741.276,265.02 1741.55933,266.159 1742.126,267.009 C1742.69267,267.859 1743.39533,268.539 1744.234,269.049 C1745.07267,269.559 1745.99067,269.961333 1746.988,270.256 C1747.98533,270.550667 1748.90333,270.862333 1749.742,271.191 C1750.58067,271.519667 1751.28333,271.922 1751.85,272.398 C1752.41667,272.874 1752.7,273.554 1752.7,274.438 C1752.7,274.982 1752.57533,275.463667 1752.326,275.883 C1752.07667,276.302333 1751.748,276.648 1751.34,276.92 C1750.932,277.192 1750.47867,277.396 1749.98,277.532 C1749.48133,277.668 1748.98267,277.736 1748.484,277.736 C1747.532,277.736 1746.631,277.515 1745.781,277.073 C1744.931,276.631 1744.24533,276.013333 1743.724,275.22 L1743.724,275.22 L1740.494,278.348 C1741.49133,279.526667 1742.68133,280.365333 1744.064,280.864 C1745.44667,281.362667 1746.886,281.612 1748.382,281.612 C1749.56067,281.612 1750.68267,281.453333 1751.748,281.136 C1752.81333,280.818667 1753.74833,280.342667 1754.553,279.708 C1755.35767,279.073333 1755.998,278.274333 1756.474,277.311 C1756.95,276.347667 1757.188,275.22 1757.188,273.928 C1757.188,272.5 1756.90467,271.355333 1756.338,270.494 C1755.77133,269.632667 1755.06867,268.941333 1754.23,268.42 C1753.39133,267.898667 1752.47333,267.490667 1751.476,267.196 C1750.47867,266.901333 1749.56067,266.595333 1748.722,266.278 C1747.88333,265.960667 1747.18067,265.586667 1746.614,265.156 C1746.04733,264.725333 1745.764,264.102 1745.764,263.286 C1745.764,262.742 1745.87733,262.271667 1746.104,261.875 C1746.33067,261.478333 1746.631,261.155333 1747.005,260.906 C1747.379,260.656667 1747.79833,260.475333 1748.263,260.362 C1748.72767,260.248667 1749.20933,260.192 1749.708,260.192 C1750.54667,260.192 1751.34567,260.345 1752.105,260.651 C1752.86433,260.957 1753.47067,261.438667 1753.924,262.096 L1753.924,262.096 L1757.052,258.798 C1756.1,257.914 1755.029,257.279333 1753.839,256.894 C1752.649,256.508667 1751.41933,256.316 1750.15,256.316 Z M1638.12,256.316 C1637.00933,256.316 1635.92133,256.463333 1634.856,256.758 C1633.79067,257.052667 1632.84433,257.500333 1632.017,258.101 C1631.18967,258.701667 1630.521,259.455333 1630.011,260.362 C1629.501,261.268667 1629.246,262.345333 1629.246,263.592 C1629.246,265.02 1629.52933,266.159 1630.096,267.009 C1630.66267,267.859 1631.36533,268.539 1632.204,269.049 C1633.04267,269.559 1633.96067,269.961333 1634.958,270.256 C1635.95533,270.550667 1636.87333,270.862333 1637.712,271.191 C1638.55067,271.519667 1639.25333,271.922 1639.82,272.398 C1640.38667,272.874 1640.67,273.554 1640.67,274.438 C1640.67,274.982 1640.54533,275.463667 1640.296,275.883 C1640.04667,276.302333 1639.718,276.648 1639.31,276.92 C1638.902,277.192 1638.44867,277.396 1637.95,277.532 C1637.45133,277.668 1636.95267,277.736 1636.454,277.736 C1635.502,277.736 1634.601,277.515 1633.751,277.073 C1632.901,276.631 1632.21533,276.013333 1631.694,275.22 L1631.694,275.22 L1628.464,278.348 C1629.46133,279.526667 1630.65133,280.365333 1632.034,280.864 C1633.41667,281.362667 1634.856,281.612 1636.352,281.612 C1637.53067,281.612 1638.65267,281.453333 1639.718,281.136 C1640.78333,280.818667 1641.71833,280.342667 1642.523,279.708 C1643.32767,279.073333 1643.968,278.274333 1644.444,277.311 C1644.92,276.347667 1645.158,275.22 1645.158,273.928 C1645.158,272.5 1644.87467,271.355333 1644.308,270.494 C1643.74133,269.632667 1643.03867,268.941333 1642.2,268.42 C1641.36133,267.898667 1640.44333,267.490667 1639.446,267.196 C1638.44867,266.901333 1637.53067,266.595333 1636.692,266.278 C1635.85333,265.960667 1635.15067,265.586667 1634.584,265.156 C1634.01733,264.725333 1633.734,264.102 1633.734,263.286 C1633.734,262.742 1633.84733,262.271667 1634.074,261.875 C1634.30067,261.478333 1634.601,261.155333 1634.975,260.906 C1635.349,260.656667 1635.76833,260.475333 1636.233,260.362 C1636.69767,260.248667 1637.17933,260.192 1637.678,260.192 C1638.51667,260.192 1639.31567,260.345 1640.075,260.651 C1640.83433,260.957 1641.44067,261.438667 1641.894,262.096 L1641.894,262.096 L1645.022,258.798 C1644.07,257.914 1642.999,257.279333 1641.809,256.894 C1640.619,256.508667 1639.38933,256.316 1638.12,256.316 Z M653.412,256.928 L649.128,256.928 L649.128,272.16 C649.128,273.610667 649.371667,274.919667 649.859,276.087 C650.346333,277.254333 651.026333,278.246 651.899,279.062 C652.771667,279.878 653.797333,280.507 654.976,280.949 C656.154667,281.391 657.435333,281.612 658.818,281.612 C660.200667,281.612 661.481333,281.391 662.66,280.949 C663.838667,280.507 664.858667,279.878 665.72,279.062 C666.581333,278.246 667.261333,277.254333 667.76,276.087 C668.258667,274.919667 668.508,273.610667 668.508,272.16 L668.508,272.16 L668.508,256.928 L664.224,256.928 L664.224,272.024 C664.224,272.613333 664.133333,273.231 663.952,273.877 C663.770667,274.523 663.470333,275.118 663.051,275.662 C662.631667,276.206 662.076333,276.653667 661.385,277.005 C660.693667,277.356333 659.838,277.532 658.818,277.532 C657.798,277.532 656.942333,277.356333 656.251,277.005 C655.559667,276.653667 655.004333,276.206 654.585,275.662 C654.165667,275.118 653.865333,274.523 653.684,273.877 C653.502667,273.231 653.412,272.613333 653.412,272.024 L653.412,272.024 L653.412,256.928 Z M1388.152,256.316 C1387.04133,256.316 1385.95333,256.463333 1384.888,256.758 C1383.82267,257.052667 1382.87633,257.500333 1382.049,258.101 C1381.22167,258.701667 1380.553,259.455333 1380.043,260.362 C1379.533,261.268667 1379.278,262.345333 1379.278,263.592 C1379.278,265.02 1379.56133,266.159 1380.128,267.009 C1380.69467,267.859 1381.39733,268.539 1382.236,269.049 C1383.07467,269.559 1383.99267,269.961333 1384.99,270.256 C1385.98733,270.550667 1386.90533,270.862333 1387.744,271.191 C1388.58267,271.519667 1389.28533,271.922 1389.852,272.398 C1390.41867,272.874 1390.702,273.554 1390.702,274.438 C1390.702,274.982 1390.57733,275.463667 1390.328,275.883 C1390.07867,276.302333 1389.75,276.648 1389.342,276.92 C1388.934,277.192 1388.48067,277.396 1387.982,277.532 C1387.48333,277.668 1386.98467,277.736 1386.486,277.736 C1385.534,277.736 1384.633,277.515 1383.783,277.073 C1382.933,276.631 1382.24733,276.013333 1381.726,275.22 L1381.726,275.22 L1378.496,278.348 C1379.49333,279.526667 1380.68333,280.365333 1382.066,280.864 C1383.44867,281.362667 1384.888,281.612 1386.384,281.612 C1387.56267,281.612 1388.68467,281.453333 1389.75,281.136 C1390.81533,280.818667 1391.75033,280.342667 1392.555,279.708 C1393.35967,279.073333 1394,278.274333 1394.476,277.311 C1394.952,276.347667 1395.19,275.22 1395.19,273.928 C1395.19,272.5 1394.90667,271.355333 1394.34,270.494 C1393.77333,269.632667 1393.07067,268.941333 1392.232,268.42 C1391.39333,267.898667 1390.47533,267.490667 1389.478,267.196 C1388.48067,266.901333 1387.56267,266.595333 1386.724,266.278 C1385.88533,265.960667 1385.18267,265.586667 1384.616,265.156 C1384.04933,264.725333 1383.766,264.102 1383.766,263.286 C1383.766,262.742 1383.87933,262.271667 1384.106,261.875 C1384.33267,261.478333 1384.633,261.155333 1385.007,260.906 C1385.381,260.656667 1385.80033,260.475333 1386.265,260.362 C1386.72967,260.248667 1387.21133,260.192 1387.71,260.192 C1388.54867,260.192 1389.34767,260.345 1390.107,260.651 C1390.86633,260.957 1391.47267,261.438667 1391.926,262.096 L1391.926,262.096 L1395.054,258.798 C1394.102,257.914 1393.031,257.279333 1391.841,256.894 C1390.651,256.508667 1389.42133,256.316 1388.152,256.316 Z M1671.56703,256.31659 L1671.1,256.316 C1669.24133,256.316 1667.53567,256.616333 1665.983,257.217 C1664.43033,257.817667 1663.093,258.673333 1661.971,259.784 C1660.849,260.894667 1659.97067,262.237667 1659.336,263.813 C1658.70133,265.388333 1658.384,267.139333 1658.384,269.066 C1658.384,270.947333 1658.70133,272.658667 1659.336,274.2 C1659.97067,275.741333 1660.849,277.061667 1661.971,278.161 C1663.093,279.260333 1664.43033,280.110333 1665.983,280.711 C1667.53567,281.311667 1669.24133,281.612 1671.1,281.612 C1672.98133,281.589333 1674.704,281.266333 1676.268,280.643 C1677.832,280.019667 1679.18067,279.152667 1680.314,278.042 C1681.44733,276.931333 1682.33133,275.605333 1682.966,274.064 C1683.60067,272.522667 1683.918,270.811333 1683.918,268.93 C1683.918,267.003333 1683.60067,265.258 1682.966,263.694 C1682.33133,262.13 1681.44733,260.792667 1680.314,259.682 C1679.18067,258.571333 1677.832,257.727 1676.268,257.149 C1674.704,256.571 1672.98133,256.293333 1671.1,256.316 Z M747.898,256.316 C746.787333,256.316 745.699333,256.463333 744.634,256.758 C743.568667,257.052667 742.622333,257.500333 741.795,258.101 C740.967667,258.701667 740.299,259.455333 739.789,260.362 C739.279,261.268667 739.024,262.345333 739.024,263.592 C739.024,265.02 739.307333,266.159 739.874,267.009 C740.440667,267.859 741.143333,268.539 741.982,269.049 C742.820667,269.559 743.738667,269.961333 744.736,270.256 C745.733333,270.550667 746.651333,270.862333 747.49,271.191 C748.328667,271.519667 749.031333,271.922 749.598,272.398 C750.164667,272.874 750.448,273.554 750.448,274.438 C750.448,274.982 750.323333,275.463667 750.074,275.883 C749.824667,276.302333 749.496,276.648 749.088,276.92 C748.68,277.192 748.226667,277.396 747.728,277.532 C747.229333,277.668 746.730667,277.736 746.232,277.736 C745.28,277.736 744.379,277.515 743.529,277.073 C742.679,276.631 741.993333,276.013333 741.472,275.22 L741.472,275.22 L738.242,278.348 C739.239333,279.526667 740.429333,280.365333 741.812,280.864 C743.194667,281.362667 744.634,281.612 746.13,281.612 C747.308667,281.612 748.430667,281.453333 749.496,281.136 C750.561333,280.818667 751.496333,280.342667 752.301,279.708 C753.105667,279.073333 753.746,278.274333 754.222,277.311 C754.698,276.347667 754.936,275.22 754.936,273.928 C754.936,272.5 754.652667,271.355333 754.086,270.494 C753.519333,269.632667 752.816667,268.941333 751.978,268.42 C751.139333,267.898667 750.221333,267.490667 749.224,267.196 C748.226667,266.901333 747.308667,266.595333 746.47,266.278 C745.631333,265.960667 744.928667,265.586667 744.362,265.156 C743.795333,264.725333 743.512,264.102 743.512,263.286 C743.512,262.742 743.625333,262.271667 743.852,261.875 C744.078667,261.478333 744.379,261.155333 744.753,260.906 C745.127,260.656667 745.546333,260.475333 746.011,260.362 C746.475667,260.248667 746.957333,260.192 747.456,260.192 C748.294667,260.192 749.093667,260.345 749.853,260.651 C750.612333,260.957 751.218667,261.438667 751.672,262.096 L751.672,262.096 L754.8,258.798 C753.848,257.914 752.777,257.279333 751.587,256.894 C750.397,256.508667 749.167333,256.316 747.898,256.316 Z M1721.76,256.928 L1717.476,256.928 L1717.476,272.16 C1717.476,273.610667 1717.71967,274.919667 1718.207,276.087 C1718.69433,277.254333 1719.37433,278.246 1720.247,279.062 C1721.11967,279.878 1722.14533,280.507 1723.324,280.949 C1724.50267,281.391 1725.78333,281.612 1727.166,281.612 C1728.54867,281.612 1729.82933,281.391 1731.008,280.949 C1732.18667,280.507 1733.20667,279.878 1734.068,279.062 C1734.92933,278.246 1735.60933,277.254333 1736.108,276.087 C1736.60667,274.919667 1736.856,273.610667 1736.856,272.16 L1736.856,272.16 L1736.856,256.928 L1732.572,256.928 L1732.572,272.024 C1732.572,272.613333 1732.48133,273.231 1732.3,273.877 C1732.11867,274.523 1731.81833,275.118 1731.399,275.662 C1730.97967,276.206 1730.42433,276.653667 1729.733,277.005 C1729.04167,277.356333 1728.186,277.532 1727.166,277.532 C1726.146,277.532 1725.29033,277.356333 1724.599,277.005 C1723.90767,276.653667 1723.35233,276.206 1722.933,275.662 C1722.51367,275.118 1722.21333,274.523 1722.032,273.877 C1721.85067,273.231 1721.76,272.613333 1721.76,272.024 L1721.76,272.024 L1721.76,256.928 Z M780.266,256.316 C778.407333,256.316 776.701667,256.616333 775.149,257.217 C773.596333,257.817667 772.259,258.673333 771.137,259.784 C770.015,260.894667 769.136667,262.237667 768.502,263.813 C767.867333,265.388333 767.55,267.139333 767.55,269.066 C767.55,270.947333 767.867333,272.658667 768.502,274.2 C769.136667,275.741333 770.015,277.061667 771.137,278.161 C772.259,279.260333 773.596333,280.110333 775.149,280.711 C776.701667,281.311667 778.407333,281.612 780.266,281.612 C783.938,281.612 787.258667,280.818667 790.228,279.232 L790.228,279.232 L790.228,266.924 L781.014,266.924 L781.014,270.8 L785.944,270.8 L785.944,276.478 C785.196,276.908667 784.340333,277.226 783.377,277.43 C782.413667,277.634 781.388,277.736 780.3,277.736 C779.053333,277.736 777.925667,277.509333 776.917,277.056 C775.908333,276.602667 775.041333,275.979333 774.316,275.186 C773.590667,274.392667 773.029667,273.452 772.633,272.364 C772.236333,271.276 772.038,270.086 772.038,268.794 C772.038,267.592667 772.236333,266.470667 772.633,265.428 C773.029667,264.385333 773.590667,263.473 774.316,262.691 C775.041333,261.909 775.908333,261.297 776.917,260.855 C777.925667,260.413 779.053333,260.192 780.3,260.192 C781.524,260.192 782.685667,260.396 783.785,260.804 C784.884333,261.212 785.819333,261.79 786.59,262.538 L786.59,262.538 L789.752,259.342 C788.482667,258.208667 787.043333,257.421 785.434,256.979 C783.824667,256.537 782.102,256.316 780.266,256.316 Z M408.238,256.928 L402.832,256.928 L410.856,268.42 L402.288,281 L407.456,281 L413.78,270.834 L420.138,281 L425.578,281 L416.84,268.42 L424.728,256.928 L419.526,256.928 L413.916,265.836 L408.238,256.928 Z M527.136,256.928 L521.458,256.928 L521.458,281 L525.742,281 L525.742,262.538 L525.81,262.538 L537.71,281 L543.15,281 L543.15,256.928 L538.866,256.928 L538.866,274.812 L538.798,274.812 L527.136,256.928 Z M1703.536,256.928 L1687.998,256.928 L1687.998,281 L1692.282,281 L1692.282,271.004 L1702.89,271.004 L1702.89,267.128 L1692.282,267.128 L1692.282,260.804 L1703.536,260.804 L1703.536,256.928 Z M763.572,256.928 L759.288,256.928 L759.288,281 L763.572,281 L763.572,256.928 Z M800.972,256.928 L795.294,256.928 L795.294,281 L799.578,281 L799.578,262.538 L799.646,262.538 L811.546,281 L816.986,281 L816.986,256.928 L812.702,256.928 L812.702,274.812 L812.634,274.812 L800.972,256.928 Z M735.046,256.928 L719.1,256.928 L719.1,281 L735.658,281 L735.658,277.124 L723.384,277.124 L723.384,270.596 L734.434,270.596 L734.434,266.72 L723.384,266.72 L723.384,260.804 L735.046,260.804 L735.046,256.928 Z M1377.204,256.928 L1358.164,256.928 L1358.164,260.804 L1365.542,260.804 L1365.542,281 L1369.826,281 L1369.826,260.804 L1377.204,260.804 L1377.204,256.928 Z M702.78,256.928 L693.294,256.928 L693.294,281 L702.27,281 C703.720667,281 705.199667,280.756333 706.707,280.269 C708.214333,279.781667 709.585667,279.045 710.821,278.059 C712.056333,277.073 713.065,275.826333 713.847,274.319 C714.629,272.811667 715.02,271.026667 715.02,268.964 C715.02,266.924 714.68,265.150333 714,263.643 C713.32,262.135667 712.413333,260.883333 711.28,259.886 C710.146667,258.888667 708.843333,258.146333 707.37,257.659 C705.896667,257.171667 704.366667,256.928 702.78,256.928 L702.78,256.928 Z M677.96,256.928 L673.676,256.928 L673.676,281 L677.96,281 L677.96,256.928 Z M1790.78,256.928 L1782.416,256.928 L1782.416,281 L1786.7,281 L1786.7,270.8 L1789.828,270.8 L1795.404,281 L1800.572,281 L1794.18,270.358 C1795.97067,270.108667 1797.34767,269.394667 1798.311,268.216 C1799.27433,267.037333 1799.756,265.575333 1799.756,263.83 C1799.756,262.47 1799.50667,261.348 1799.008,260.464 C1798.50933,259.58 1797.84067,258.877333 1797.002,258.356 C1796.16333,257.834667 1795.20567,257.466333 1794.129,257.251 C1793.05233,257.035667 1791.936,256.928 1790.78,256.928 L1790.78,256.928 Z M856.732,256.928 L852.448,256.928 L852.448,281 L856.732,281 L856.732,256.928 Z M617.78,256.928 L612.102,256.928 L612.102,281 L616.386,281 L616.386,262.538 L616.454,262.538 L628.354,281 L633.794,281 L633.794,256.928 L629.51,256.928 L629.51,274.812 L629.442,274.812 L617.78,256.928 Z M606.832,256.928 L602.548,256.928 L602.548,281 L606.832,281 L606.832,256.928 Z M587.758,256.928 L571.812,256.928 L571.812,281 L588.37,281 L588.37,277.124 L576.096,277.124 L576.096,270.596 L587.146,270.596 L587.146,266.72 L576.096,266.72 L576.096,260.804 L587.758,260.804 L587.758,256.928 Z M867.68,256.928 L862.002,256.928 L862.002,281 L866.286,281 L866.286,262.538 L866.354,262.538 L878.254,281 L883.694,281 L883.694,256.928 L879.41,256.928 L879.41,274.812 L879.342,274.812 L867.68,256.928 Z M1608.71,256.928 L1603.032,256.928 L1603.032,281 L1607.316,281 L1607.316,262.538 L1607.384,262.538 L1619.284,281 L1624.724,281 L1624.724,256.928 L1620.44,256.928 L1620.44,274.812 L1620.372,274.812 L1608.71,256.928 Z M516.63,256.928 L500.684,256.928 L500.684,281 L517.242,281 L517.242,277.124 L504.968,277.124 L504.968,270.596 L516.018,270.596 L516.018,266.72 L504.968,266.72 L504.968,260.804 L516.63,260.804 L516.63,256.928 Z M495.414,256.928 L491.13,256.928 L491.13,281 L495.414,281 L495.414,256.928 Z M1052.164,256.928 L1046.486,256.928 L1046.486,281 L1050.77,281 L1050.77,262.538 L1050.838,262.538 L1062.738,281 L1068.178,281 L1068.178,256.928 L1063.894,256.928 L1063.894,274.812 L1063.826,274.812 L1052.164,256.928 Z M1524.696,256.928 L1520.412,256.928 L1520.412,281 L1524.696,281 L1524.696,256.928 Z M478.176,256.928 L469.812,256.928 L469.812,281 L474.096,281 L474.096,270.8 L477.224,270.8 L482.8,281 L487.968,281 L481.576,270.358 C483.366667,270.108667 484.743667,269.394667 485.707,268.216 C486.670333,267.037333 487.152,265.575333 487.152,263.83 C487.152,262.47 486.902667,261.348 486.404,260.464 C485.905333,259.58 485.236667,258.877333 484.398,258.356 C483.559333,257.834667 482.601667,257.466333 481.525,257.251 C480.448333,257.035667 479.332,256.928 478.176,256.928 L478.176,256.928 Z M1495.66,256.928 L1489.132,256.928 L1489.132,281 L1493.212,281 L1493.212,261.008 L1493.28,261.008 L1500.59,281 L1503.582,281 L1510.892,261.008 L1510.96,261.008 L1510.96,281 L1515.04,281 L1515.04,256.928 L1508.58,256.928 L1502.086,273.792 L1495.66,256.928 Z M1296.454,256.928 L1286.968,256.928 L1286.968,281 L1295.944,281 C1297.39467,281 1298.87367,280.756333 1300.381,280.269 C1301.88833,279.781667 1303.25967,279.045 1304.495,278.059 C1305.73033,277.073 1306.739,275.826333 1307.521,274.319 C1308.303,272.811667 1308.694,271.026667 1308.694,268.964 C1308.694,266.924 1308.354,265.150333 1307.674,263.643 C1306.994,262.135667 1306.08733,260.883333 1304.954,259.886 C1303.82067,258.888667 1302.51733,258.146333 1301.044,257.659 C1299.57067,257.171667 1298.04067,256.928 1296.454,256.928 L1296.454,256.928 Z M1010.65,256.928 L1001.164,256.928 L1001.164,281 L1010.14,281 C1011.59067,281 1013.06967,280.756333 1014.577,280.269 C1016.08433,279.781667 1017.45567,279.045 1018.691,278.059 C1019.92633,277.073 1020.935,275.826333 1021.717,274.319 C1022.499,272.811667 1022.89,271.026667 1022.89,268.964 C1022.89,266.924 1022.55,265.150333 1021.87,263.643 C1021.19,262.135667 1020.28333,260.883333 1019.15,259.886 C1018.01667,258.888667 1016.71333,258.146333 1015.24,257.659 C1013.76667,257.171667 1012.23667,256.928 1010.65,256.928 L1010.65,256.928 Z M1465.91,256.928 L1457.546,256.928 L1457.546,281 L1461.83,281 L1461.83,270.8 L1464.958,270.8 L1470.534,281 L1475.702,281 L1469.31,270.358 C1471.10067,270.108667 1472.47767,269.394667 1473.441,268.216 C1474.40433,267.037333 1474.886,265.575333 1474.886,263.83 C1474.886,262.47 1474.63667,261.348 1474.138,260.464 C1473.63933,259.58 1472.97067,258.877333 1472.132,258.356 C1471.29333,257.834667 1470.33567,257.466333 1469.259,257.251 C1468.18233,257.035667 1467.066,256.928 1465.91,256.928 L1465.91,256.928 Z M996.336,256.928 L980.39,256.928 L980.39,281 L996.948,281 L996.948,277.124 L984.674,277.124 L984.674,270.596 L995.724,270.596 L995.724,266.72 L984.674,266.72 L984.674,260.804 L996.336,260.804 L996.336,256.928 Z M1534.25,256.928 L1529.966,256.928 L1529.966,281 L1544.484,281 L1544.484,277.124 L1534.25,277.124 L1534.25,256.928 Z M120.224,256.928 L104.686,256.928 L104.686,281 L108.97,281 L108.97,271.004 L119.578,271.004 L119.578,267.128 L108.97,267.128 L108.97,260.804 L120.224,260.804 L120.224,256.928 Z M1551.896,256.928 L1547.612,256.928 L1547.612,281 L1562.13,281 L1562.13,277.124 L1551.896,277.124 L1551.896,256.928 Z M959.854,256.928 L954.924,256.928 L964.376,281 L968.082,281 L977.806,256.928 L973.182,256.928 L966.416,275.118 L959.854,256.928 Z M1569.44,256.928 L1565.156,256.928 L1565.156,281 L1569.44,281 L1569.44,256.928 Z M1041.216,256.928 L1036.932,256.928 L1036.932,281 L1041.216,281 L1041.216,256.928 Z M185.436,256.928 L177.072,256.928 L177.072,281 L181.356,281 L181.356,270.8 L184.484,270.8 L190.06,281 L195.228,281 L188.836,270.358 C190.626667,270.108667 192.003667,269.394667 192.967,268.216 C193.930333,267.037333 194.412,265.575333 194.412,263.83 C194.412,262.47 194.162667,261.348 193.664,260.464 C193.165333,259.58 192.496667,258.877333 191.658,258.356 C190.819333,257.834667 189.861667,257.466333 188.785,257.251 C187.708333,257.035667 186.592,256.928 185.436,256.928 L185.436,256.928 Z M1245.59,256.928 L1237.226,256.928 L1237.226,281 L1241.51,281 L1241.51,270.8 L1244.638,270.8 L1250.214,281 L1255.382,281 L1248.99,270.358 C1250.78067,270.108667 1252.15767,269.394667 1253.121,268.216 C1254.08433,267.037333 1254.566,265.575333 1254.566,263.83 C1254.566,262.47 1254.31667,261.348 1253.818,260.464 C1253.31933,259.58 1252.65067,258.877333 1251.812,258.356 C1250.97333,257.834667 1250.01567,257.466333 1248.939,257.251 C1247.86233,257.035667 1246.746,256.928 1245.59,256.928 L1245.59,256.928 Z M464.984,256.928 L449.038,256.928 L449.038,281 L465.596,281 L465.596,277.124 L453.322,277.124 L453.322,270.596 L464.372,270.596 L464.372,266.72 L453.322,266.72 L453.322,260.804 L464.984,260.804 L464.984,256.928 Z M210.766,256.928 L205.394,256.928 L214.438,270.698 L214.438,281 L218.722,281 L218.722,270.698 L227.766,256.928 L222.666,256.928 L216.682,266.516 L210.766,256.928 Z M245.922,256.928 L229.976,256.928 L229.976,281 L246.534,281 L246.534,277.124 L234.26,277.124 L234.26,270.596 L245.31,270.596 L245.31,266.72 L234.26,266.72 L234.26,260.804 L245.922,260.804 L245.922,256.928 Z M262.242,256.928 L258.536,256.928 L248.064,281 L252.858,281 L255.034,275.492 L265.472,275.492 L267.716,281 L272.612,281 L262.242,256.928 Z M1224.544,256.928 L1216.452,256.928 L1216.452,281 L1220.736,281 L1220.736,271.038 L1223.796,271.038 C1225.06533,271.038 1226.28367,270.947333 1227.451,270.766 C1228.61833,270.584667 1229.644,270.239 1230.528,269.729 C1231.412,269.219 1232.11467,268.499333 1232.636,267.57 C1233.15733,266.640667 1233.418,265.416667 1233.418,263.898 C1233.418,262.560667 1233.17433,261.444333 1232.687,260.549 C1232.19967,259.653667 1231.548,258.939667 1230.732,258.407 C1229.916,257.874333 1228.96967,257.494667 1227.893,257.268 C1226.81633,257.041333 1225.7,256.928 1224.544,256.928 L1224.544,256.928 Z M283.662,256.928 L275.298,256.928 L275.298,281 L279.582,281 L279.582,270.8 L282.71,270.8 L288.286,281 L293.454,281 L287.062,270.358 C288.852667,270.108667 290.229667,269.394667 291.193,268.216 C292.156333,267.037333 292.638,265.575333 292.638,263.83 C292.638,262.47 292.388667,261.348 291.89,260.464 C291.391333,259.58 290.722667,258.877333 289.884,258.356 C289.045333,257.834667 288.087667,257.466333 287.011,257.251 C285.934333,257.035667 284.818,256.928 283.662,256.928 L283.662,256.928 Z M1193.026,256.928 L1188.742,256.928 L1188.742,281 L1203.26,281 L1203.26,277.124 L1193.026,277.124 L1193.026,256.928 Z M944.35,256.928 L940.066,256.928 L940.066,281 L954.584,281 L954.584,277.124 L944.35,277.124 L944.35,256.928 Z M1777.588,256.928 L1761.642,256.928 L1761.642,281 L1778.2,281 L1778.2,277.124 L1765.926,277.124 L1765.926,270.596 L1776.976,270.596 L1776.976,266.72 L1765.926,266.72 L1765.926,260.804 L1777.588,260.804 L1777.588,256.928 Z M1425.246,256.928 L1409.708,256.928 L1409.708,281 L1413.992,281 L1413.992,271.004 L1424.6,271.004 L1424.6,267.128 L1413.992,267.128 L1413.992,260.804 L1425.246,260.804 L1425.246,256.928 Z M1175.686,256.928 L1171.98,256.928 L1161.508,281 L1166.302,281 L1168.478,275.492 L1178.916,275.492 L1181.16,281 L1186.056,281 L1175.686,256.928 Z M1158.924,256.928 L1154.64,256.928 L1154.64,281 L1158.924,281 L1158.924,256.928 Z M891.208,256.928 L886.278,256.928 L895.73,281 L899.436,281 L909.16,256.928 L904.536,256.928 L897.77,275.118 L891.208,256.928 Z M370.158,256.928 L354.62,256.928 L354.62,281 L358.904,281 L358.904,271.004 L369.512,271.004 L369.512,267.128 L358.904,267.128 L358.904,260.804 L370.158,260.804 L370.158,256.928 Z M400.146,256.928 L384.2,256.928 L384.2,281 L400.758,281 L400.758,277.124 L388.484,277.124 L388.484,270.596 L399.534,270.596 L399.534,266.72 L388.484,266.72 L388.484,260.804 L400.146,260.804 L400.146,256.928 Z M436.356,256.928 L428.264,256.928 L428.264,281 L432.548,281 L432.548,271.038 L435.608,271.038 C436.877333,271.038 438.095667,270.947333 439.263,270.766 C440.430333,270.584667 441.456,270.239 442.34,269.729 C443.224,269.219 443.926667,268.499333 444.448,267.57 C444.969333,266.640667 445.23,265.416667 445.23,263.898 C445.23,262.560667 444.986333,261.444333 444.499,260.549 C444.011667,259.653667 443.36,258.939667 442.544,258.407 C441.728,257.874333 440.781667,257.494667 439.705,257.268 C438.628333,257.041333 437.512,256.928 436.356,256.928 L436.356,256.928 Z M1270.104,260.192 C1271.35067,260.192 1272.484,260.413 1273.504,260.855 C1274.524,261.297 1275.39667,261.909 1276.122,262.691 C1276.84733,263.473 1277.40833,264.385333 1277.805,265.428 C1278.20167,266.470667 1278.4,267.592667 1278.4,268.794 C1278.4,270.086 1278.20167,271.276 1277.805,272.364 C1277.40833,273.452 1276.84733,274.392667 1276.122,275.186 C1275.39667,275.979333 1274.524,276.602667 1273.504,277.056 C1272.484,277.509333 1271.35067,277.736 1270.104,277.736 C1268.85733,277.736 1267.72967,277.509333 1266.721,277.056 C1265.71233,276.602667 1264.84533,275.979333 1264.12,275.186 C1263.39467,274.392667 1262.83367,273.452 1262.437,272.364 C1262.04033,271.276 1261.842,270.086 1261.842,268.794 C1261.842,267.592667 1262.04033,266.470667 1262.437,265.428 C1262.83367,264.385333 1263.39467,263.473 1264.12,262.691 C1264.84533,261.909 1265.71233,261.297 1266.721,260.855 C1267.72967,260.413 1268.85733,260.192 1270.104,260.192 Z M1440.682,260.192 C1441.92867,260.192 1443.062,260.413 1444.082,260.855 C1445.102,261.297 1445.97467,261.909 1446.7,262.691 C1447.42533,263.473 1447.98633,264.385333 1448.383,265.428 C1448.77967,266.470667 1448.978,267.592667 1448.978,268.794 C1448.978,270.086 1448.77967,271.276 1448.383,272.364 C1447.98633,273.452 1447.42533,274.392667 1446.7,275.186 C1445.97467,275.979333 1445.102,276.602667 1444.082,277.056 C1443.062,277.509333 1441.92867,277.736 1440.682,277.736 C1439.43533,277.736 1438.30767,277.509333 1437.299,277.056 C1436.29033,276.602667 1435.42333,275.979333 1434.698,275.186 C1433.97267,274.392667 1433.41167,273.452 1433.015,272.364 C1432.61833,271.276 1432.42,270.086 1432.42,268.794 C1432.42,267.592667 1432.61833,266.470667 1433.015,265.428 C1433.41167,264.385333 1433.97267,263.473 1434.698,262.691 C1435.42333,261.909 1436.29033,261.297 1437.299,260.855 C1438.30767,260.413 1439.43533,260.192 1440.682,260.192 Z M135.66,260.192 C136.906667,260.192 138.04,260.413 139.06,260.855 C140.08,261.297 140.952667,261.909 141.678,262.691 C142.403333,263.473 142.964333,264.385333 143.361,265.428 C143.757667,266.470667 143.956,267.592667 143.956,268.794 C143.956,270.086 143.757667,271.276 143.361,272.364 C142.964333,273.452 142.403333,274.392667 141.678,275.186 C140.952667,275.979333 140.08,276.602667 139.06,277.056 C138.04,277.509333 136.906667,277.736 135.66,277.736 C134.413333,277.736 133.285667,277.509333 132.277,277.056 C131.268333,276.602667 130.401333,275.979333 129.676,275.186 C128.950667,274.392667 128.389667,273.452 127.993,272.364 C127.596333,271.276 127.398,270.086 127.398,268.794 C127.398,267.592667 127.596333,266.470667 127.993,265.428 C128.389667,264.385333 128.950667,263.473 129.676,262.691 C130.401333,261.909 131.268333,261.297 132.277,260.855 C133.285667,260.413 134.413333,260.192 135.66,260.192 Z M1586.168,260.192 C1587.41467,260.192 1588.548,260.413 1589.568,260.855 C1590.588,261.297 1591.46067,261.909 1592.186,262.691 C1592.91133,263.473 1593.47233,264.385333 1593.869,265.428 C1594.26567,266.470667 1594.464,267.592667 1594.464,268.794 C1594.464,270.086 1594.26567,271.276 1593.869,272.364 C1593.47233,273.452 1592.91133,274.392667 1592.186,275.186 C1591.46067,275.979333 1590.588,276.602667 1589.568,277.056 C1588.548,277.509333 1587.41467,277.736 1586.168,277.736 C1584.92133,277.736 1583.79367,277.509333 1582.785,277.056 C1581.77633,276.602667 1580.90933,275.979333 1580.184,275.186 C1579.45867,274.392667 1578.89767,273.452 1578.501,272.364 C1578.10433,271.276 1577.906,270.086 1577.906,268.794 C1577.906,267.592667 1578.10433,266.470667 1578.501,265.428 C1578.89767,264.385333 1579.45867,263.473 1580.184,262.691 C1580.90933,261.909 1581.77633,261.297 1582.785,260.855 C1583.79367,260.413 1584.92133,260.192 1586.168,260.192 Z M923.202,260.192 C924.448667,260.192 925.582,260.413 926.602,260.855 C927.622,261.297 928.494667,261.909 929.22,262.691 C929.945333,263.473 930.506333,264.385333 930.903,265.428 C931.299667,266.470667 931.498,267.592667 931.498,268.794 C931.498,270.086 931.299667,271.276 930.903,272.364 C930.506333,273.452 929.945333,274.392667 929.22,275.186 C928.494667,275.979333 927.622,276.602667 926.602,277.056 C925.582,277.509333 924.448667,277.736 923.202,277.736 C921.955333,277.736 920.827667,277.509333 919.819,277.056 C918.810333,276.602667 917.943333,275.979333 917.218,275.186 C916.492667,274.392667 915.931667,273.452 915.535,272.364 C915.138333,271.276 914.94,270.086 914.94,268.794 C914.94,267.592667 915.138333,266.470667 915.535,265.428 C915.931667,264.385333 916.492667,263.473 917.218,262.691 C917.943333,261.909 918.810333,261.297 919.819,260.855 C920.827667,260.413 921.955333,260.192 923.202,260.192 Z M337.756,260.192 C339.002667,260.192 340.136,260.413 341.156,260.855 C342.176,261.297 343.048667,261.909 343.774,262.691 C344.499333,263.473 345.060333,264.385333 345.457,265.428 C345.853667,266.470667 346.052,267.592667 346.052,268.794 C346.052,270.086 345.853667,271.276 345.457,272.364 C345.060333,273.452 344.499333,274.392667 343.774,275.186 C343.048667,275.979333 342.176,276.602667 341.156,277.056 C340.136,277.509333 339.002667,277.736 337.756,277.736 C336.509333,277.736 335.381667,277.509333 334.373,277.056 C333.364333,276.602667 332.497333,275.979333 331.772,275.186 C331.046667,274.392667 330.485667,273.452 330.089,272.364 C329.692333,271.276 329.494,270.086 329.494,268.794 C329.494,267.592667 329.692333,266.470667 330.089,265.428 C330.485667,264.385333 331.046667,263.473 331.772,262.691 C332.497333,261.909 333.364333,261.297 334.373,260.855 C335.381667,260.413 336.509333,260.192 337.756,260.192 Z M1114.588,260.192 C1115.83467,260.192 1116.968,260.413 1117.988,260.855 C1119.008,261.297 1119.88067,261.909 1120.606,262.691 C1121.33133,263.473 1121.89233,264.385333 1122.289,265.428 C1122.68567,266.470667 1122.884,267.592667 1122.884,268.794 C1122.884,270.086 1122.68567,271.276 1122.289,272.364 C1121.89233,273.452 1121.33133,274.392667 1120.606,275.186 C1119.88067,275.979333 1119.008,276.602667 1117.988,277.056 C1116.968,277.509333 1115.83467,277.736 1114.588,277.736 C1113.34133,277.736 1112.21367,277.509333 1111.205,277.056 C1110.19633,276.602667 1109.32933,275.979333 1108.604,275.186 C1107.87867,274.392667 1107.31767,273.452 1106.921,272.364 C1106.52433,271.276 1106.326,270.086 1106.326,268.794 C1106.326,267.592667 1106.52433,266.470667 1106.921,265.428 C1107.31767,264.385333 1107.87867,263.473 1108.604,262.691 C1109.32933,261.909 1110.19633,261.297 1111.205,260.855 C1112.21367,260.413 1113.34133,260.192 1114.588,260.192 Z M1671.134,260.192 C1672.38067,260.192 1673.514,260.413 1674.534,260.855 C1675.554,261.297 1676.42667,261.909 1677.152,262.691 C1677.87733,263.473 1678.43833,264.385333 1678.835,265.428 C1679.23167,266.470667 1679.43,267.592667 1679.43,268.794 C1679.43,270.086 1679.23167,271.276 1678.835,272.364 C1678.43833,273.452 1677.87733,274.392667 1677.152,275.186 C1676.42667,275.979333 1675.554,276.602667 1674.534,277.056 C1673.514,277.509333 1672.38067,277.736 1671.134,277.736 C1669.88733,277.736 1668.75967,277.509333 1667.751,277.056 C1666.74233,276.602667 1665.87533,275.979333 1665.15,275.186 C1664.42467,274.392667 1663.86367,273.452 1663.467,272.364 C1663.07033,271.276 1662.872,270.086 1662.872,268.794 C1662.872,267.592667 1663.07033,266.470667 1663.467,265.428 C1663.86367,264.385333 1664.42467,263.473 1665.15,262.691 C1665.87533,261.909 1666.74233,261.297 1667.751,260.855 C1668.75967,260.413 1669.88733,260.192 1671.134,260.192 Z M1295.162,260.804 C1296.47667,260.804 1297.68367,260.957 1298.783,261.263 C1299.88233,261.569 1300.83433,262.045 1301.639,262.691 C1302.44367,263.337 1303.07267,264.181333 1303.526,265.224 C1303.97933,266.266667 1304.206,267.513333 1304.206,268.964 C1304.206,270.437333 1303.951,271.689667 1303.441,272.721 C1302.931,273.752333 1302.234,274.591 1301.35,275.237 C1300.466,275.883 1299.429,276.359 1298.239,276.665 C1297.049,276.971 1295.78533,277.124 1294.448,277.124 L1294.448,277.124 L1291.252,277.124 L1291.252,260.804 Z M1009.358,260.804 C1010.67267,260.804 1011.87967,260.957 1012.979,261.263 C1014.07833,261.569 1015.03033,262.045 1015.835,262.691 C1016.63967,263.337 1017.26867,264.181333 1017.722,265.224 C1018.17533,266.266667 1018.402,267.513333 1018.402,268.964 C1018.402,270.437333 1018.147,271.689667 1017.637,272.721 C1017.127,273.752333 1016.43,274.591 1015.546,275.237 C1014.662,275.883 1013.625,276.359 1012.435,276.665 C1011.245,276.971 1009.98133,277.124 1008.644,277.124 L1008.644,277.124 L1005.448,277.124 L1005.448,260.804 Z M701.488,260.804 C702.802667,260.804 704.009667,260.957 705.109,261.263 C706.208333,261.569 707.160333,262.045 707.965,262.691 C708.769667,263.337 709.398667,264.181333 709.852,265.224 C710.305333,266.266667 710.532,267.513333 710.532,268.964 C710.532,270.437333 710.277,271.689667 709.767,272.721 C709.257,273.752333 708.56,274.591 707.676,275.237 C706.792,275.883 705.755,276.359 704.565,276.665 C703.375,276.971 702.111333,277.124 700.774,277.124 L700.774,277.124 L697.578,277.124 L697.578,260.804 Z M260.27,262.028 L263.976,271.82 L256.496,271.82 L260.27,262.028 Z M1173.714,262.028 L1177.42,271.82 L1169.94,271.82 L1173.714,262.028 Z M1223.796,260.6 C1224.36267,260.6 1224.952,260.634 1225.564,260.702 C1226.176,260.77 1226.73133,260.923 1227.23,261.161 C1227.72867,261.399 1228.13667,261.739 1228.454,262.181 C1228.77133,262.623 1228.93,263.218 1228.93,263.966 C1228.93,264.782 1228.75433,265.416667 1228.403,265.87 C1228.05167,266.323333 1227.59833,266.663333 1227.043,266.89 C1226.48767,267.116667 1225.88133,267.252667 1225.224,267.298 C1224.56667,267.343333 1223.932,267.366 1223.32,267.366 L1223.32,267.366 L1220.736,267.366 L1220.736,260.6 Z M435.608,260.6 C436.174667,260.6 436.764,260.634 437.376,260.702 C437.988,260.77 438.543333,260.923 439.042,261.161 C439.540667,261.399 439.948667,261.739 440.266,262.181 C440.583333,262.623 440.742,263.218 440.742,263.966 C440.742,264.782 440.566333,265.416667 440.215,265.87 C439.863667,266.323333 439.410333,266.663333 438.855,266.89 C438.299667,267.116667 437.693333,267.252667 437.036,267.298 C436.378667,267.343333 435.744,267.366 435.132,267.366 L435.132,267.366 L432.548,267.366 L432.548,260.6 Z M1465.536,260.6 C1466.08,260.6 1466.641,260.634 1467.219,260.702 C1467.797,260.77 1468.324,260.911667 1468.8,261.127 C1469.276,261.342333 1469.66133,261.665333 1469.956,262.096 C1470.25067,262.526667 1470.398,263.093333 1470.398,263.796 C1470.398,264.589333 1470.23933,265.207 1469.922,265.649 C1469.60467,266.091 1469.191,266.419667 1468.681,266.635 C1468.171,266.850333 1467.61,266.986333 1466.998,267.043 C1466.386,267.099667 1465.774,267.128 1465.162,267.128 L1465.162,267.128 L1461.83,267.128 L1461.83,260.6 Z M1245.216,260.6 C1245.76,260.6 1246.321,260.634 1246.899,260.702 C1247.477,260.77 1248.004,260.911667 1248.48,261.127 C1248.956,261.342333 1249.34133,261.665333 1249.636,262.096 C1249.93067,262.526667 1250.078,263.093333 1250.078,263.796 C1250.078,264.589333 1249.91933,265.207 1249.602,265.649 C1249.28467,266.091 1248.871,266.419667 1248.361,266.635 C1247.851,266.850333 1247.29,266.986333 1246.678,267.043 C1246.066,267.099667 1245.454,267.128 1244.842,267.128 L1244.842,267.128 L1241.51,267.128 L1241.51,260.6 Z M185.062,260.6 C185.606,260.6 186.167,260.634 186.745,260.702 C187.323,260.77 187.85,260.911667 188.326,261.127 C188.802,261.342333 189.187333,261.665333 189.482,262.096 C189.776667,262.526667 189.924,263.093333 189.924,263.796 C189.924,264.589333 189.765333,265.207 189.448,265.649 C189.130667,266.091 188.717,266.419667 188.207,266.635 C187.697,266.850333 187.136,266.986333 186.524,267.043 C185.912,267.099667 185.3,267.128 184.688,267.128 L184.688,267.128 L181.356,267.128 L181.356,260.6 Z M283.288,260.6 C283.832,260.6 284.393,260.634 284.971,260.702 C285.549,260.77 286.076,260.911667 286.552,261.127 C287.028,261.342333 287.413333,261.665333 287.708,262.096 C288.002667,262.526667 288.15,263.093333 288.15,263.796 C288.15,264.589333 287.991333,265.207 287.674,265.649 C287.356667,266.091 286.943,266.419667 286.433,266.635 C285.923,266.850333 285.362,266.986333 284.75,267.043 C284.138,267.099667 283.526,267.128 282.914,267.128 L282.914,267.128 L279.582,267.128 L279.582,260.6 Z M477.802,260.6 C478.346,260.6 478.907,260.634 479.485,260.702 C480.063,260.77 480.59,260.911667 481.066,261.127 C481.542,261.342333 481.927333,261.665333 482.222,262.096 C482.516667,262.526667 482.664,263.093333 482.664,263.796 C482.664,264.589333 482.505333,265.207 482.188,265.649 C481.870667,266.091 481.457,266.419667 480.947,266.635 C480.437,266.850333 479.876,266.986333 479.264,267.043 C478.652,267.099667 478.04,267.128 477.428,267.128 L477.428,267.128 L474.096,267.128 L474.096,260.6 Z M1790.406,260.6 C1790.95,260.6 1791.511,260.634 1792.089,260.702 C1792.667,260.77 1793.194,260.911667 1793.67,261.127 C1794.146,261.342333 1794.53133,261.665333 1794.826,262.096 C1795.12067,262.526667 1795.268,263.093333 1795.268,263.796 C1795.268,264.589333 1795.10933,265.207 1794.792,265.649 C1794.47467,266.091 1794.061,266.419667 1793.551,266.635 C1793.041,266.850333 1792.48,266.986333 1791.868,267.043 C1791.256,267.099667 1790.644,267.128 1790.032,267.128 L1790.032,267.128 L1786.7,267.128 L1786.7,260.6 Z M1556.53768,91 C1551.4148,91 1546.39647,91.7746416 1541.48269,93.3239247 C1536.56891,94.8732079 1532.20401,97.2269265 1528.38798,100.385081 C1524.57196,103.543235 1521.48778,107.505824 1519.13544,112.272849 C1516.7831,117.039875 1515.60692,122.700717 1515.60692,129.255376 C1515.60692,136.763441 1516.91378,142.752016 1519.52749,147.221102 C1522.14121,151.690188 1525.38221,155.265457 1529.25051,157.946909 C1533.11881,160.62836 1537.35302,162.743728 1541.95316,164.293011 C1546.55329,165.842294 1550.78751,167.480959 1554.6558,169.209005 C1558.5241,170.937052 1561.76511,173.052419 1564.37882,175.555108 C1566.99253,178.057796 1568.29939,181.633065 1568.29939,186.280914 C1568.29939,189.141129 1567.72437,191.673611 1566.57434,193.87836 C1565.4243,196.083109 1563.90835,197.900538 1562.02648,199.330645 C1560.1446,200.760753 1558.05363,201.833333 1555.75356,202.548387 C1553.4535,203.263441 1551.15343,203.620968 1548.85336,203.620968 C1544.46232,203.620968 1540.30652,202.459005 1536.38595,200.135081 C1532.46538,197.811156 1529.30278,194.56362 1526.89817,190.392473 L1526.89817,190.392473 L1512,206.83871 C1516.60014,213.035842 1522.08893,217.445341 1528.4664,220.067204 C1534.84386,222.689068 1541.48269,224 1548.38289,224 C1553.81942,224 1558.99457,223.165771 1563.90835,221.497312 C1568.82213,219.828853 1573.13476,217.326165 1576.84623,213.989247 C1580.55771,210.65233 1583.5112,206.451389 1585.70672,201.386425 C1587.90224,196.321461 1589,190.392473 1589,183.599462 C1589,176.091398 1587.69314,170.073029 1585.07943,165.544355 C1582.46572,161.015681 1579.22471,157.380824 1575.35642,154.639785 C1571.48812,151.898746 1567.2539,149.753584 1562.65377,148.204301 C1558.05363,146.655018 1553.81942,145.046147 1549.95112,143.377688 C1546.08282,141.709229 1542.84182,139.742832 1540.22811,137.478495 C1537.61439,135.214158 1536.30754,131.936828 1536.30754,127.646505 C1536.30754,124.78629 1536.83028,122.313396 1537.87576,120.227823 C1538.92125,118.142249 1540.30652,116.443996 1542.03157,115.133065 C1543.75662,113.822133 1545.69077,112.868728 1547.83401,112.272849 C1549.97726,111.676971 1552.19891,111.379032 1554.49898,111.379032 C1558.36728,111.379032 1562.05261,112.183468 1565.55499,113.792339 C1569.05737,115.40121 1571.85404,117.933692 1573.94501,121.389785 L1573.94501,121.389785 L1588.37271,104.049731 C1583.98167,99.4018817 1579.04175,96.0649642 1573.55295,94.0389785 C1568.06415,92.0129928 1562.3924,91 1556.53768,91 Z M146.537678,91 C141.4148,91 136.39647,91.7746416 131.482688,93.3239247 C126.568907,94.8732079 122.204005,97.2269265 118.387984,100.385081 C114.571962,103.543235 111.48778,107.505824 109.135438,112.272849 C106.783096,117.039875 105.606925,122.700717 105.606925,129.255376 C105.606925,136.763441 106.913781,142.752016 109.527495,147.221102 C112.141208,151.690188 115.382213,155.265457 119.250509,157.946909 C123.118805,160.62836 127.353021,162.743728 131.953157,164.293011 C136.553293,165.842294 140.787508,167.480959 144.655804,169.209005 C148.5241,170.937052 151.765105,173.052419 154.378819,175.555108 C156.992532,178.057796 158.299389,181.633065 158.299389,186.280914 C158.299389,189.141129 157.724372,191.673611 156.574338,193.87836 C155.424304,196.083109 153.90835,197.900538 152.026477,199.330645 C150.144603,200.760753 148.053632,201.833333 145.753564,202.548387 C143.453496,203.263441 141.153428,203.620968 138.85336,203.620968 C134.462322,203.620968 130.306517,202.459005 126.385947,200.135081 C122.465377,197.811156 119.302783,194.56362 116.898167,190.392473 L116.898167,190.392473 L102,206.83871 C106.600136,213.035842 112.088934,217.445341 118.466395,220.067204 C124.843856,222.689068 131.482688,224 138.382892,224 C143.819416,224 148.994569,223.165771 153.90835,221.497312 C158.822132,219.828853 163.134759,217.326165 166.846232,213.989247 C170.557705,210.65233 173.511202,206.451389 175.706721,201.386425 C177.90224,196.321461 179,190.392473 179,183.599462 C179,176.091398 177.693143,170.073029 175.07943,165.544355 C172.465716,161.015681 169.224711,157.380824 165.356415,154.639785 C161.488119,151.898746 157.253904,149.753584 152.653768,148.204301 C148.053632,146.655018 143.819416,145.046147 139.95112,143.377688 C136.082824,141.709229 132.841819,139.742832 130.228106,137.478495 C127.614392,135.214158 126.307536,131.936828 126.307536,127.646505 C126.307536,124.78629 126.830278,122.313396 127.875764,120.227823 C128.921249,118.142249 130.306517,116.443996 132.031568,115.133065 C133.756619,113.822133 135.690767,112.868728 137.834012,112.272849 C139.977257,111.676971 142.198914,111.379032 144.498982,111.379032 C148.367278,111.379032 152.052614,112.183468 155.55499,113.792339 C159.057366,115.40121 161.854039,117.933692 163.94501,121.389785 L163.94501,121.389785 L178.372709,104.049731 C173.98167,99.4018817 169.041752,96.0649642 163.552953,94.0389785 C158.064155,92.0129928 152.392396,91 146.537678,91 Z M1181.38226,95 L1160,95 L1192.38328,221 L1210.35678,221 L1235.76758,125.076271 L1236.07747,125.076271 L1261.48828,221 L1280.08155,221 L1312,95 L1292.16718,95 L1270.62997,185.762712 L1270.32008,185.762712 L1246.14883,95 L1226.93578,95 L1202.29969,185.762712 L1201.98981,185.762712 L1181.38226,95 Z M942.264543,95 L925.204986,95 L877,221 L899.067867,221 L909.084488,192.169492 L957.132964,192.169492 L967.462604,221 L990,221 L942.264543,95 Z M1461.27342,95 L1418,95 L1418,221 L1457.98088,221 C1463.20714,221 1468.355,220.40678 1473.42447,219.220339 C1478.49395,218.033898 1482.98853,216.04661 1486.90822,213.258475 C1490.82792,210.470339 1493.9898,206.792373 1496.39388,202.224576 C1498.79796,197.65678 1500,191.932203 1500,185.050847 C1500,181.016949 1499.39898,177.25 1498.19694,173.75 C1496.9949,170.25 1495.34863,167.165254 1493.25813,164.495763 C1491.16762,161.826271 1488.63289,159.631356 1485.65392,157.911017 C1482.67495,156.190678 1479.4608,155.09322 1476.01147,154.618644 L1476.01147,154.618644 L1476.01147,154.262712 C1481.76036,152.245763 1486.41173,148.923729 1489.96558,144.29661 C1493.51944,139.669492 1495.29637,133.79661 1495.29637,126.677966 C1495.29637,120.983051 1494.30338,116.118644 1492.3174,112.084746 C1490.33142,108.050847 1487.74442,104.758475 1484.55641,102.207627 C1481.36839,99.6567797 1477.73614,97.8177966 1473.65966,96.690678 C1469.58317,95.5635593 1465.45443,95 1461.27342,95 L1461.27342,95 Z M1397.19097,95 L1324,95 L1324,221 L1400,221 L1400,200.711864 L1343.66324,200.711864 L1343.66324,166.542373 L1394.38193,166.542373 L1394.38193,146.254237 L1343.66324,146.254237 L1343.66324,115.288136 L1397.19097,115.288136 L1397.19097,95 Z M272.190965,95 L199,95 L199,221 L275,221 L275,200.711864 L218.663244,200.711864 L218.663244,166.542373 L269.38193,166.542373 L269.38193,146.254237 L218.663244,146.254237 L218.663244,115.288136 L272.190965,115.288136 L272.190965,95 Z M312.667238,95 L293,95 L293,221 L312.667238,221 L312.667238,165.474576 L364.332762,165.474576 L364.332762,221 L384,221 L384,95 L364.332762,95 L364.332762,145.186441 L312.667238,145.186441 L312.667238,95 Z M1028.17555,95 L1002,95 L1002,221 L1021.74922,221 L1021.74922,124.364407 L1022.0627,124.364407 L1076.92163,221 L1102,221 L1102,95 L1082.25078,95 L1082.25078,188.610169 L1081.9373,188.610169 L1028.17555,95 Z M1628,95 L1608,95 L1608,221 L1628,221 L1628,95 Z M1814.19097,95 L1741,95 L1741,221 L1817,221 L1817,200.711864 L1760.66324,200.711864 L1760.66324,166.542373 L1811.38193,166.542373 L1811.38193,146.254237 L1760.66324,146.254237 L1760.66324,115.288136 L1814.19097,115.288136 L1814.19097,95 Z M1727,95 L1640,95 L1640,115.288136 L1673.7125,115.288136 L1673.7125,221 L1693.2875,221 L1693.2875,115.288136 L1727,115.288136 L1727,95 Z M871,95 L800,95 L800,221 L819.575492,221 L819.575492,168.677966 L868.04814,168.677966 L868.04814,148.389831 L819.575492,148.389831 L819.575492,115.288136 L871,115.288136 L871,95 Z M730,95 L710,95 L710,221 L730,221 L730,95 Z M629.804511,91 C621.931495,91 614.498747,92.5817264 607.506266,95.7451791 C600.513784,98.9086318 594.37594,103.325528 589.092732,108.995868 C583.809524,114.666208 579.639933,121.410927 576.58396,129.230028 C573.527987,137.049128 572,145.614325 572,154.92562 C572,165.191919 573.527987,174.413682 576.58396,182.590909 C579.639933,190.768136 583.835422,197.691919 589.170426,203.362259 C594.50543,209.032599 600.824561,213.389807 608.12782,216.433884 C615.431078,219.477961 623.381788,221 631.97995,221 L631.97995,221 L696,221 L696,202.735537 L664.45614,202.735537 L664.45614,202.37741 C667.045948,200.586777 669.71345,198.378329 672.458647,195.752066 C675.203843,193.125803 677.715957,189.872819 679.994987,185.993113 C682.274018,182.113407 684.112782,177.636823 685.511278,172.563361 C686.909774,167.489899 687.609023,161.610652 687.609023,154.92562 C687.609023,145.614325 686.081036,137.049128 683.025063,129.230028 C679.969089,121.410927 675.799499,114.666208 670.516291,108.995868 C665.233083,103.325528 659.095238,98.9086318 652.102757,95.7451791 C645.110276,92.5817264 637.677527,91 629.804511,91 Z M435.175549,95 L409,95 L409,221 L428.749216,221 L428.749216,124.364407 L429.062696,124.364407 L483.92163,221 L509,221 L509,95 L489.250784,95 L489.250784,188.610169 L488.937304,188.610169 L435.175549,95 Z M1456.72658,165.474576 C1464.77502,165.474576 1470.70682,166.779661 1474.52199,169.389831 C1478.33716,172 1480.24474,176.627119 1480.24474,183.271186 C1480.24474,187.423729 1479.4608,190.716102 1477.89293,193.148305 C1476.32505,195.580508 1474.33907,197.449153 1471.93499,198.754237 C1469.53091,200.059322 1466.89165,200.889831 1464.01721,201.245763 C1461.14277,201.601695 1458.45124,201.779661 1455.94264,201.779661 L1455.94264,201.779661 L1437.75526,201.779661 L1437.75526,165.474576 Z M629.338346,111.413223 C634.932331,111.413223 640.034252,112.517447 644.64411,114.725895 C649.253968,116.934343 653.216374,120.008264 656.531328,123.947658 C659.846282,127.887052 662.43609,132.5427 664.300752,137.914601 C666.165414,143.286501 667.097744,149.135904 667.097744,155.46281 C667.097744,161.909091 666.165414,167.907713 664.300752,173.458678 C662.43609,179.009642 659.846282,183.784665 656.531328,187.783747 C653.216374,191.782828 649.253968,194.916437 644.64411,197.184573 C640.034252,199.452709 635.035923,200.586777 629.649123,200.586777 C624.262322,200.586777 619.315789,199.452709 614.809524,197.184573 C610.303258,194.916437 606.392648,191.782828 603.077694,187.783747 C599.76274,183.784665 597.172932,179.009642 595.308271,173.458678 C593.443609,167.907713 592.511278,161.909091 592.511278,155.46281 C592.511278,149.135904 593.443609,143.286501 595.308271,137.914601 C597.172932,132.5427 599.736842,127.887052 603,123.947658 C606.263158,120.008264 610.14787,116.934343 614.654135,114.725895 C619.160401,112.517447 624.055138,111.413223 629.338346,111.413223 Z M933.186981,121.694915 L950.246537,172.949153 L915.814404,172.949153 L933.186981,121.694915 Z M1454.06119,114.220339 C1461.587,114.220339 1467.04844,115.555085 1470.44551,118.224576 C1473.84257,120.894068 1475.54111,124.957627 1475.54111,130.415254 C1475.54111,135.161017 1473.89484,138.987288 1470.60229,141.894068 C1467.30975,144.800847 1462.37094,146.254237 1455.78585,146.254237 L1455.78585,146.254237 L1437.75526,146.254237 L1437.75526,114.220339 Z" id="形状结合"></path>
        </g>
    </g>
</svg>