<?xml version="1.0" encoding="UTF-8"?>
<svg width="117px" height="117px" viewBox="0 0 117 117" version="1.1" xmlns="http://www.w3.org/2000/svg" xmlns:xlink="http://www.w3.org/1999/xlink">
    <title>形状结合</title>
    <g id="页面-1" stroke="none" stroke-width="1" fill="none" fill-rule="evenodd">
        <g id="首页" transform="translate(-84.000000, -650.000000)" fill="#FFFFFF" fill-rule="nonzero">
            <g id="编组-2" transform="translate(76.000000, 641.000000)">
                <path d="M65.0007462,114.771651 L67.1893227,114.479424 L70.3785739,122.286002 L70.4102924,122.281766 L71.8519422,113.856852 L73.8184892,113.594271 L77.3725032,121.352144 L77.4042217,121.347909 L78.5286865,112.965347 L80.5586705,112.694295 L78.7909188,124.358868 L76.8878088,124.612978 L73.1455107,116.412127 L73.1137922,116.416363 L71.6542563,125.311783 L69.8145833,125.557424 L65.0007462,114.771651 Z M91.8373338,108.76474 C92.5445893,109.004353 93.1923889,109.39097 93.7807324,109.924589 C94.369076,110.458208 94.8598773,111.133488 95.2531362,111.950429 C95.6371421,112.748147 95.8518936,113.538555 95.897391,114.321651 C95.9428884,115.104748 95.8387115,115.847432 95.5848605,116.549703 C95.3310095,117.251974 94.9361176,117.894878 94.400185,118.478416 C93.8642524,119.061954 93.1997401,119.550532 92.4066483,119.944149 C91.618541,120.323528 90.8340062,120.544331 90.053044,120.606558 C89.2720817,120.668786 88.5315323,120.581339 87.8313956,120.344217 C87.131259,120.107096 86.4893322,119.726532 85.9056152,119.202523 C85.3218982,118.678515 84.8380368,118.017652 84.4540309,117.219933 C84.060772,116.402993 83.8379239,115.595766 83.7854866,114.798253 C83.7330494,114.00074 83.8313536,113.252004 84.0803991,112.552046 C84.3294445,111.852089 84.7218441,111.216303 85.2575978,110.644689 C85.7933515,110.073076 86.455282,109.597579 87.2433894,109.2182 C88.0364812,108.824583 88.8235977,108.590699 89.6047389,108.516547 C90.38588,108.442396 91.1300784,108.525127 91.8373338,108.76474 Z M89.6259376,110.441889 C89.1032214,110.46267 88.577559,110.600291 88.0489505,110.854752 C87.5203419,111.109214 87.0873005,111.433094 86.7498264,111.826392 C86.4123522,112.219691 86.1696465,112.656156 86.0217093,113.135788 C85.8737721,113.61542 85.8221179,114.116774 85.8667468,114.639848 C85.9113757,115.162922 86.0562944,115.679152 86.3015029,116.188538 C86.5652177,116.736369 86.8922098,117.200467 87.2824791,117.580834 C87.6727484,117.9612 88.1026252,118.245551 88.5721094,118.433888 C89.0415936,118.622225 89.5364477,118.709562 90.0566716,118.695901 C90.5768956,118.68224 91.1013118,118.548178 91.6299204,118.293717 C92.158529,118.039255 92.5928165,117.711815 92.9327829,117.311398 C93.2727493,116.910981 93.5155444,116.468554 93.6611683,115.984116 C93.8067923,115.499678 93.8526632,114.986311 93.7987812,114.444015 C93.7448992,113.901719 93.5861007,113.356655 93.3223859,112.808825 C93.0771774,112.299438 92.764065,111.864173 92.3830489,111.503029 C92.0020328,111.141885 91.5779392,110.869548 91.1107683,110.686016 C90.6435973,110.502485 90.1486537,110.421109 89.6259376,110.441889 Z M102.311008,100.825005 C102.762234,100.981593 103.19961,101.299796 103.623137,101.779613 C104.166663,102.395379 104.45202,103.061182 104.479206,103.777022 C104.506392,104.492862 104.242928,105.173587 103.688815,105.819198 L109.258056,107.583193 L107.43475,109.192596 L102.291045,107.330425 L101.187465,108.304537 L104.363918,111.903169 L102.852493,113.237279 L95.356064,104.744509 L98.3069417,102.139818 C98.7147866,101.77982 99.142166,101.47016 99.58908,101.210839 C100.035994,100.951518 100.488571,100.783235 100.94681,100.70599 C101.40505,100.628745 101.859782,100.668416 102.311008,100.825005 Z M100.634194,102.721259 C100.399199,102.793523 100.169152,102.907658 99.9440536,103.063666 C99.7189548,103.219675 99.5104419,103.382384 99.3185149,103.551795 L98.0110122,104.705906 L100.043942,107.00903 L101.219495,105.971389 C101.435413,105.780802 101.642507,105.580218 101.840778,105.369639 C102.039049,105.159059 102.194621,104.936373 102.307494,104.701579 C102.420367,104.466785 102.463959,104.222006 102.438271,103.967243 C102.412582,103.712479 102.276209,103.44515 102.029151,103.165257 C101.810329,102.917351 101.581879,102.763309 101.343802,102.703131 C101.105724,102.642953 100.869188,102.648996 100.634194,102.721259 Z M108.849756,88.6529537 L110.264317,95.9618836 L118.469628,94.6450767 L116.898384,97.0012209 L109.540699,97.9986404 L109.47856,98.0918213 L114.110979,101.181047 L112.992466,102.858302 L103.567889,96.5733253 L104.686402,94.8960702 L108.679867,97.5591961 L108.733129,97.4793268 L107.340651,90.915917 L108.849756,88.6529537 Z M116.090195,71.6420254 C115.581283,71.9808 115.221909,72.330361 115.012075,72.6907085 C114.80224,73.0510559 114.665678,73.4260092 114.602389,73.8155683 C114.50831,74.3946425 114.525866,74.9351191 114.655056,75.4369979 C114.784246,75.9388768 115.003092,76.3877806 115.311593,76.7837094 C115.620094,77.1796382 116.001535,77.50907 116.455918,77.7720048 C116.910301,78.0349395 117.4165,78.2117356 117.974517,78.3023931 C118.574649,78.3998927 119.142369,78.3975694 119.677677,78.2954234 C120.212985,78.1932774 120.692258,78.0036805 121.115496,77.7266327 C121.538735,77.4495849 121.893699,77.0939043 122.18039,76.6595909 C122.46708,76.2252776 122.657465,75.7185837 122.751543,75.1395095 C122.825095,74.6867787 122.788591,74.2296759 122.64203,73.768201 C122.49547,73.3067261 122.215229,72.8532511 121.801309,72.407776 L123.236827,70.9551783 C123.849612,71.5734464 124.25492,72.2714758 124.452753,73.0492663 C124.650586,73.8270569 124.682792,74.6265684 124.549372,75.4478011 C124.409109,76.3111481 124.140889,77.0807627 123.74471,77.7566446 C123.348531,78.4325266 122.852787,78.9895709 122.257478,79.4277776 C121.662169,79.8659843 120.982594,80.1743307 120.218753,80.3528169 C119.454912,80.5313031 118.636054,80.5495597 117.762178,80.4075867 C116.867245,80.2621926 116.077856,79.9826544 115.394012,79.5689719 C114.710167,79.1552894 114.152628,78.6459571 113.721397,78.0409748 C113.290165,77.4359926 112.99363,76.7502318 112.831792,75.9836923 C112.669954,75.2171529 112.659166,74.4022097 112.799429,73.5388626 C112.922586,72.7808017 113.171003,72.0998252 113.54468,71.4959331 C113.918356,70.892041 114.471647,70.3632573 115.20455,69.9095818 L116.090195,71.6420254 Z M113.185224,63.0214723 L112.989868,61.2884482 L123.699938,55.1702462 L123.958022,57.4597458 L121.500624,58.7994447 L122.050845,63.6805306 L124.741236,64.4077411 L124.993944,66.6495428 L113.185224,63.0214723 Z M119.862358,59.6925772 L115.478714,61.9417699 L120.256654,63.1904239 L119.862358,59.6925772 Z M111.874099,47.5409262 C111.65863,47.8487761 111.545754,48.1952611 111.535469,48.580381 C111.525185,48.9655009 111.588889,49.342995 111.726581,49.7128633 C111.808453,49.932785 111.912524,50.1359058 112.038795,50.3222257 C112.165066,50.5085457 112.313884,50.6637085 112.485248,50.7877142 C112.656613,50.9117199 112.848371,50.9911425 113.060523,51.0259821 C113.272674,51.0608217 113.498708,51.0335845 113.738622,50.9442704 C114.098494,50.8102994 114.326878,50.5830049 114.423775,50.2623869 C114.520672,49.941769 114.57025,49.5704759 114.572507,49.1485078 C114.574765,48.7265396 114.559,48.2714446 114.525211,47.7832228 C114.491422,47.295001 114.520641,46.8231596 114.612866,46.3676987 C114.705092,45.9122378 114.89462,45.4888449 115.181449,45.09752 C115.468278,44.7061951 115.926581,44.393308 116.556357,44.1588586 C117.126154,43.9467378 117.662552,43.8665599 118.16555,43.9183249 C118.668549,43.9700899 119.126053,44.1213094 119.538064,44.3719833 C119.950074,44.6226573 120.313508,44.9568607 120.628365,45.3745936 C120.943222,45.7923264 121.197407,46.2611003 121.390921,46.7809152 C121.636534,47.4406803 121.762884,48.1163899 121.769968,48.808044 C121.777053,49.4996981 121.602559,50.1622037 121.246487,50.7955608 L119.336676,49.8846236 C119.600959,49.5244559 119.760789,49.1206549 119.816166,48.6732207 C119.871544,48.2257866 119.821083,47.7921442 119.664783,47.3722937 C119.582912,47.152372 119.471051,46.9436146 119.329202,46.7460214 C119.187352,46.5484282 119.022955,46.3819921 118.836013,46.2467132 C118.64907,46.1114343 118.442663,46.0232375 118.216794,45.9821229 C117.990924,45.9410083 117.758032,45.965108 117.518117,46.054422 C117.128256,46.1995573 116.874881,46.4361554 116.757991,46.7642161 C116.641101,47.0922769 116.579028,47.4682218 116.571772,47.8920506 C116.564516,48.3158795 116.577783,48.7719048 116.611571,49.2601267 C116.64536,49.7483485 116.61864,50.2192595 116.531413,50.6728597 C116.444186,51.1264599 116.259656,51.5479921 115.977825,51.9374563 C115.695994,52.3269205 115.240191,52.6388772 114.610415,52.8733266 C114.060611,53.0780045 113.543914,53.1423119 113.060324,53.0662487 C112.576735,52.9901855 112.134571,52.8190277 111.733834,52.5527751 C111.333096,52.2865226 110.980297,51.9426692 110.675437,51.5212149 C110.370577,51.0997607 110.126972,50.6441207 109.944622,50.1542951 C109.736223,49.5944944 109.619306,49.0205555 109.593871,48.4324782 C109.568436,47.844401 109.672499,47.2678695 109.906061,46.7028837 L111.874099,47.5409262 Z M112.152907,30.7625799 L116.490646,37.2355454 L107.080257,43.5417453 L102.902844,37.3080269 L104.418077,36.2926218 L107.473199,40.8516099 L109.785922,39.3017811 L106.891127,34.9820402 L108.406359,33.9666352 L111.301154,38.2863761 L113.853124,36.5762202 L110.637675,31.7779849 L112.152907,30.7625799 Z M102.951104,22.5796068 C103.432228,22.6129182 103.908592,22.7427398 104.380195,22.9690717 C104.851798,23.1954035 105.292969,23.4949482 105.703709,23.8677059 C106.225032,24.3408213 106.647755,24.8829029 106.971879,25.4939506 C107.296003,26.1049983 107.445461,26.773597 107.420252,27.4997468 L105.305426,27.5682868 C105.374648,27.126954 105.331047,26.6948661 105.174625,26.2720233 C105.018203,25.8491804 104.774116,25.4872222 104.442365,25.1861488 C104.268591,25.0284436 104.073311,24.894435 103.856526,24.7841229 C103.639741,24.6738107 103.417249,24.6015319 103.189049,24.5672865 C102.960849,24.533041 102.736997,24.5495562 102.517495,24.6168321 C102.297992,24.684108 102.102219,24.8125319 101.930177,25.002104 C101.650609,25.3101585 101.534292,25.6367288 101.581226,25.9818147 C101.62816,26.3269006 101.745785,26.6893258 101.9341,27.0690903 C102.122415,27.4488548 102.343752,27.8477846 102.598111,28.2658798 C102.85247,28.6839749 103.045134,29.1145001 103.176101,29.5574552 C103.307069,30.0004104 103.33688,30.4595963 103.265536,30.935013 C103.194191,31.4104297 102.932713,31.8969514 102.481103,32.394578 C102.08684,32.8290139 101.657479,33.1235639 101.193018,33.278228 C100.728558,33.432892 100.257192,33.48406 99.778922,33.431732 C99.3006515,33.3794039 98.8292989,33.2361246 98.3648642,33.0018939 C97.9004296,32.7676632 97.4746908,32.4749217 97.0876479,32.1236693 C96.6453131,31.722238 96.2777329,31.2662114 95.9849071,30.7555894 C95.6920813,30.2449674 95.519577,29.6850923 95.4673942,29.0759643 L97.6004379,28.9159252 C97.5505305,29.2883597 97.6094955,29.6479651 97.7773329,29.9947413 C97.9451702,30.3415175 98.1752174,30.6475213 98.4674743,30.9127526 C98.6412486,31.0704578 98.8270199,31.2030395 99.0247881,31.3104979 C99.2225563,31.4179562 99.4260321,31.4873812 99.6352154,31.5187729 C99.8443988,31.5501646 100.051208,31.5325877 100.255644,31.4660422 C100.46008,31.3994968 100.648318,31.271438 100.82036,31.081866 C101.078423,30.7975079 101.176819,30.4906848 101.115548,30.1613965 C101.054277,29.8321083 100.927692,29.4795566 100.735793,29.1037415 C100.543894,28.7279264 100.320765,28.3309713 100.066406,27.9128762 C99.8120462,27.4947811 99.6211749,27.0622812 99.4937916,26.6153766 C99.3664082,26.168472 99.340181,25.7053367 99.4151099,25.2259705 C99.4900389,24.7466044 99.7533084,24.2581081 100.204919,23.7604814 C100.613518,23.3102479 101.053085,22.9925492 101.523618,22.8073854 C101.994151,22.6222217 102.46998,22.5462955 102.951104,22.5796068 Z M84.6143943,15.1243743 L88.2864174,16.5853844 L87.6830853,18.1017664 L84.0110622,16.6407563 L84.6143943,15.1243743 Z M71.8919358,20.5679569 L69.5719365,20.5697935 L66.4771609,12.0122408 L63.2999385,20.5747588 L61.1239392,20.5764814 L65.6909698,9.24486236 L67.4349693,9.24348171 L71.8919358,20.5679569 Z M57.5877012,21.1749591 L55.6058105,21.5442358 L53.5308269,10.4078977 L55.5127176,10.038621 L57.5877012,21.1749591 Z M32.615019,20.2392042 L42.4681764,26.7523608 L40.7789303,28.1742299 L33.8961553,23.3017159 L33.8716735,23.3223227 L37.1801017,31.2034292 L35.6622284,32.4810506 L28.4979123,27.8455148 L28.4734305,27.8661216 L32.026677,35.5411601 L30.45984,36.8599952 L25.6866618,26.0709281 L27.1555714,24.8345202 L34.7166133,29.7426153 L34.7410952,29.7220085 L31.195073,21.4343985 L32.615019,20.2392042 Z M46.864918,12.451954 L51.1494977,22.9384196 L44.2029548,25.7766511 L43.5130649,24.0881524 L48.5933724,22.0124309 L47.5403824,19.4352487 L42.72668,21.4020402 L42.03679,19.7135415 L46.8504925,17.74675 L45.6885725,14.9029627 L40.34166,17.0876142 L39.65177,15.3991155 L46.864918,12.451954 Z M25.1589006,44.9149555 L23.9654481,47.7456542 L15.478005,47.4490375 L21.6034066,53.3480787 L20.4223858,56.1492909 L9.98418444,51.7484346 L10.7300923,49.979248 L19.399107,53.6341964 L19.4115388,53.6047099 L12.0789423,46.7799687 L12.6259414,45.4825652 L22.6313743,45.9677208 L22.6438061,45.9382343 L13.9747914,42.2832859 L14.7206992,40.5140993 L25.1589006,44.9149555 Z M14.4177985,58.4893464 C15.3223183,58.5517035 16.1340966,58.7573549 16.8531333,59.1063005 C17.5721701,59.4552461 18.1742461,59.9110673 18.6593612,60.4737641 C19.1444764,61.036461 19.5029064,61.691998 19.7346512,62.4403753 C19.9663961,63.1887526 20.0521903,63.999239 19.992034,64.8718346 C19.9417855,65.7558051 19.7556736,66.5555655 19.4336983,67.2711155 C19.1117231,67.9866656 18.6716806,68.5925024 18.1135708,69.0886258 C17.5554611,69.5847492 16.899007,69.9564809 16.1442086,70.203821 C15.3894102,70.4511612 14.5597511,70.5436527 13.6552313,70.4812955 C12.7719944,70.4204056 11.9788386,70.216038 11.2757639,69.8681928 C10.5726893,69.5203477 9.97877778,69.0624163 9.49402941,68.4943988 C9.00928104,67.9263813 8.64589714,67.2651567 8.40387772,66.5107251 C8.16185831,65.7562935 8.06597286,64.9370924 8.11622137,64.0531218 C8.17637768,63.1805263 8.37258077,62.3894806 8.70483064,61.6799849 C9.03708051,60.9704891 9.47941656,60.3701565 10.0318388,59.878987 C10.584261,59.3878175 11.2325506,59.0181958 11.9767076,58.7701221 C12.7208646,58.5220484 13.5345616,58.4284565 14.4177985,58.4893464 Z M14.40024,60.6051488 C13.7936796,60.5633328 13.2285865,60.6179304 12.7049607,60.7689416 C12.1813348,60.9199528 11.7215594,61.1528828 11.3256344,61.4677314 C10.9297095,61.78258 10.60901,62.1694395 10.363536,62.62831 C10.118062,63.0871804 9.97515066,63.6092544 9.93480192,64.1945319 C9.89445317,64.7798094 9.96418659,65.319216 10.1440022,65.8127516 C10.3238177,66.3062873 10.5882124,66.736156 10.9371861,67.1023575 C11.2861597,67.4685591 11.7096213,67.7623789 12.2075707,67.983817 C12.7055201,68.2052552 13.257775,68.3368822 13.8643353,68.3786982 C14.42833,68.4175797 14.9614988,68.3607812 15.4638419,68.2083028 C15.9661849,68.0558244 16.4126586,67.8219774 16.8032629,67.506762 C17.1938671,67.1915466 17.5094293,66.8016599 17.7499494,66.3371019 C17.9904694,65.872544 18.1309039,65.3476263 18.1712526,64.7623488 C18.2116014,64.1770713 18.1443449,63.6405084 17.9694832,63.1526602 C17.7946215,62.6648121 17.5353642,62.2379706 17.1917112,61.8721358 C16.8480582,61.5063011 16.4378985,61.2133983 15.9612319,60.9934274 C15.4845653,60.7734565 14.9642347,60.6440303 14.40024,60.6051488 Z M19.8514937,74.1429011 L20.6496187,77.9971316 C20.7599286,78.5298301 20.8168393,79.0545237 20.8204638,79.5712124 C20.8238623,80.0879012 20.7455142,80.5643531 20.5853064,81.0005683 C20.4250986,81.4367835 20.1651082,81.8119641 19.8053352,82.1261103 C19.4455622,82.4402565 18.9523236,82.6622178 18.3256194,82.7919942 C17.5213491,82.9585406 16.8016797,82.8760925 16.1666111,82.54465 C15.5315426,82.2132075 15.0711243,81.6468021 14.7853563,80.845434 L10.4913455,84.8064439 L9.99819512,82.4249682 L14.1663929,78.8821581 L13.8679072,77.4407386 L9.16762609,78.4140616 L8.75883039,76.4399436 L19.8514937,74.1429011 Z M15.8779606,78.6257674 C15.9363599,78.9077843 16.0078157,79.1870975 16.0923277,79.463707 C16.1768398,79.7403165 16.293043,79.9858543 16.4409373,80.2003204 C16.5888316,80.4147865 16.7797587,80.5740464 17.0137188,80.6781001 C17.2476788,80.7821537 17.5474475,80.7963291 17.9130249,80.7206261 C18.236822,80.653575 18.4838896,80.5316085 18.6542277,80.3547268 C18.8245658,80.177845 18.9366381,79.969457 18.9904445,79.7295626 C19.0442509,79.4896682 19.0592442,79.233302 19.0354245,78.9604639 C19.0116047,78.6876258 18.9737395,78.4258659 18.921829,78.1751843 L18.5681882,76.4674155 L15.5600083,77.0903423 L15.8779606,78.6257674 Z M22.9407362,85.4972123 L26.1955325,92.2585965 L24.5520404,93.049741 L22.171667,88.1048481 L19.663179,89.3123845 L21.9186349,93.9977787 L20.2751428,94.7889232 L18.0196869,90.103529 L15.2517002,91.4359829 L17.7569911,96.6403746 L16.113499,97.4315191 L12.7337852,90.4106361 L22.9407362,85.4972123 Z M36.0504058,103.168257 L37.3959146,104.277826 L33.9537654,116.122216 L32.1762125,114.656365 L33.0105841,111.984769 L29.2209401,108.859654 L26.7818332,110.207911 L25.0413127,108.772598 L36.0504058,103.168257 Z M33.5668318,110.203705 L35.1530268,105.539031 L30.851126,107.964209 L33.5668318,110.203705 Z M43.8851333,108.852294 L45.6954219,109.739487 L41.5129407,118.273704 L45.8375189,120.39311 L45.0348205,122.03099 L38.8999537,119.024391 L43.8851333,108.852294 Z M53.3841566,112.774791 L55.3445324,113.245092 L53.1273995,122.486864 L57.8105194,123.61036 L57.385009,125.384034 L50.7415134,123.790236 L53.3841566,112.774791 Z" id="形状结合"></path>
            </g>
        </g>
    </g>
</svg>